<?xml version="1.0" standalone="no"?>
<!DOCTYPE svg PUBLIC "-//W3C//DTD SVG 1.1//EN" "http://www.w3.org/Graphics/SVG/1.1/DTD/svg11.dtd" >
<svg xmlns="http://www.w3.org/2000/svg" version="1.1">
    <metadata>
        Created by FontForge 20161013 at Mon Sep 28 17:03:00 2009
        By ,,,
        Copyright (c) 2001,2007,2009 by S. John Ross - email sjohn@io.com for licensing information
    </metadata>
    <defs>
        <font id="DirtyHeadline" horiz-adv-x="500">
            <font-face
                    font-family="Dirty Headline"
                    font-weight="400"
                    font-stretch="normal"
                    units-per-em="1000"
                    panose-1="2 11 9 4 7 0 0 0 0 0"
                    ascent="800"
                    descent="-200"
                    x-height="719"
                    cap-height="800"
                    bbox="3 -280 1284 1068"
                    underline-thickness="10"
                    underline-position="-80"
                    unicode-range="U+0020-2122"
            />
            <missing-glyph
            />
            <glyph glyph-name=".notdef"
            />
            <glyph glyph-name=".null" horiz-adv-x="0"
            />
            <glyph glyph-name="nonmarkingreturn"
            />
            <glyph glyph-name="space" unicode=" " horiz-adv-x="300"
            />
            <glyph glyph-name="space" unicode="&#xa0;" horiz-adv-x="300"
            />
            <glyph glyph-name="exclam" unicode="!" horiz-adv-x="239"
                   d="M204 703q3 -39 -2.5 -89.5t-18.5 -110.5q-15 -85 -26 -135.5t-11 -66.5q-8 -10 -18 -10q-5 0 -14 4t-23 11q-20 100 -29 152.5t-8 51.5q-11 59 -15.5 109t-5.5 96q0 13 0.5 24t1.5 22q7 12 15.5 21.5t21.5 14.5q-12 2 59 2q26 -1 42.5 -6.5t23.5 -16.5q4 -8 6 -26t3 -46z
M207 64q0 -20 -10 -36t-29 -26q-21 1 -39 1t-37 1q-26 2 -39 12t-18 27q1 4 1.5 10t0.5 12q0 14 -3 40q-2 13 -2.5 23.5t0.5 17.5q0 56 40 71q5 -1 14 -2t20 0q22 1 32 1q9 0 5 0q48 0 60 -35q-7 -14 -7 -34q0 -6 1.5 -17t3.5 -26q3 -13 4 -23.5t1 -17.5zM103 724h-10v-9h10
v9z"/>
            <glyph glyph-name="quotedbl" unicode="&#x22;" horiz-adv-x="347"
                   d="M305 502q-13 -8 -25 -12.5t-23 -4.5q-9 0 -19.5 6.5t-24.5 17.5l1 258q16 27 54 27q14 0 25.5 -5.5t21.5 -17.5zM138 511q-2 -8 -7.5 -12.5t-13 -7.5t-16 -4.5t-16.5 -2.5q-17 1 -32 12q-20 12 -17 28l-3 231q0 8 4.5 14.5t11.5 11.5t15.5 7.5t16.5 2.5q19 0 34 -6
t28 -15l-4 -259h-1z"/>
            <glyph glyph-name="numbersign" unicode="#" horiz-adv-x="789"
                   d="M774 536q0 -42 -16.5 -63t-47.5 -21q-6 0 -16 1t-20.5 2.5t-20.5 2t-16 0.5q-35 0 -54 -22t-17 -66q-1 -24 8.5 -35t28.5 -11q4 0 11 0.5t15 1t15 1t12 1.5q41 -1 40 -31q1 -16 -4 -30t-15 -24.5t-22.5 -16.5t-27.5 -6q-6 0 -16.5 1.5t-22 3.5t-22 3t-16.5 1
q-18 1 -31.5 -10.5t-20.5 -35.5q-6 -25 -12.5 -49.5t-14.5 -48.5q-10 -32 -25.5 -52t-37.5 -33q-2 1 -37 6q-11 1 -19 4.5t-14 8.5q-1 4 -1 7v7q0 28 26 72q12 24 18.5 42t6.5 30t-5.5 24t-16.5 23q-11 3 -21 4t-20 1q-24 0 -42 -6.5t-26 -18.5q-12 -22 -22 -70
q-5 -28 -9.5 -46.5t-8.5 -27.5q-9 -21 -23.5 -36t-32.5 -24q-27 0 -44.5 6t-27.5 19l1 4q-1 17 5 36.5t18 45.5q14 26 21.5 46t9.5 34q-13 33 -46 33q-15 2 -31 2t-31 1q-15 4 -22 18q6 22 9.5 35.5t7.5 19.5q7 15 18 24t25 9l110 -8q19 28 28.5 51t9.5 39q0 13 -3 25
q-8 9 -26.5 12.5t-45.5 4.5q-21 0 -35.5 5t-20.5 16q6 45 23.5 68t43.5 23q6 0 16 -1t21.5 -2t22 -2t17.5 -2q15 0 25 2.5t17 8t11.5 14t7.5 21.5q10 42 18.5 68.5t13.5 40.5q14 37 30.5 54.5t38.5 18.5q27 2 62 -30q-2 -10 -9.5 -33t-21.5 -57q-11 -32 -17.5 -52.5
t-5.5 -29.5q0 -18 21 -25q18 -6 36 -2q0 -13 7 -13l7 2t20 7q26 10 44 10q-18 3 -18 12q0 6 13 21q7 7 10 13.5t4 11.5q12 63 30 102.5t51 58.5q2 -1 13 -2t30 -3q14 -2 22 -7t11 -16q-8 -21 -15.5 -42.5t-16.5 -43.5q-9 -26 -15 -49t-8 -41q7 -7 16 -11.5t22 -4.5h42
q43 0 43 -30zM633 540h-8v-6h8v6zM579 558h-9v-9h9v9zM591 524h-8v-9h8v9zM549 534l-6 6zM546 503h-6v-9h6v9zM583 452q-7 0 -13 -6h13v6zM501 506q-5 1 -15 6l9 -12zM525 464h-9v-6h9v6zM444 497h-9v-9h9v9zM333 594l-7 -6h12zM335 546h-9v-6h9v6zM372 500h-13l19 -6z
M498 374h-9v-9h9v9zM496 435q-17 10 -37.5 14t-42.5 6q-24 -1 -47.5 -6t-45.5 -15q16 -1 16 -14q0 -4 -2 -11.5t-7 -17.5q-8 -20 -8 -32q0 -6 4 -11.5t8 -9t8 -6t4 -4.5q0 -1 -2 -5q5 2 20.5 3.5t40.5 1.5q38 2 54 25l-6 6q-1 2 -1.5 4.5t-0.5 5.5q0 6 6 15t17 20l-6 3
q0 2 -0.5 5.5t-1.5 7t-1.5 7t-0.5 5.5q0 9 10 14q12 -12 18 -12h3zM320 460q-1 1 -3 1l-6 6l-12 -9q3 -1 5 -1h5q11 0 11 3zM402 323h-9v-6h9v6zM432 278q-1 1 -2 1h-2q-2 0 -8 -7h12v6zM302 377h-6v-6h6v6zM465 212h-6v-9h6v9zM423 248h-9v-6h9v6zM323 323h-6v-6h6v6z
M390 260h-9v-9h9v9zM275 350h-6v-6h6v6zM326 263l-3 -6h21zM290 299l-33 6q1 1 2 1h2q3 0 6.5 -1.5t7 -4t6.5 -4t5 -1.5zM236 344q-5 0 -12 -6h12v6zM221 242h-6v-6h6v6zM164 269l-9 -18l21 18h-12z"/>
            <glyph glyph-name="dollar" unicode="$" horiz-adv-x="488"
                   d="M468 218q3 -40 -9.5 -75t-35.5 -60q-10 -32 -54 -46q-18 -8 -35.5 -13.5t-34.5 -10.5q-35 -16 -35 -51q0 -13 5 -27q-7 -12 -16.5 -16.5t-20.5 -5.5q-22 0 -25 25q-2 13 -3 26t-3 25q-7 28 -36 38l-7 -1q-30 -3 -54.5 14t-47.5 54q-19 31 -28.5 63t-8.5 63q-1 61 39 60
q11 0 36 -6q12 -2 21.5 -3.5t16.5 -0.5q3 -4 8.5 -21t12.5 -46q11 -44 46 -54q13 4 19 11t6 17q0 5 -2 11.5t-4.5 14t-4 14.5t-1.5 11q0 16 17 24q-8 9 -12.5 18t-3.5 19l1 8l12 11q-13 16 -36 37t-53 45q-28 23 -48.5 41t-30.5 32q-18 26 -27 56.5t-10 65.5q1 32 6.5 59
t17.5 49q10 17 26 31.5t38 24.5l77 37q17 37 31.5 55t26.5 19q16 0 30 -33q-1 -2 -1.5 -4.5t-0.5 -4.5q-1 -8 7 -17.5t22 -21.5q14 -1 29.5 -4.5t30.5 -14.5q14 -9 27.5 -18t27.5 -17q22 -32 33 -62t10 -61q0 -7 -0.5 -13t-1.5 -12q-16 -23 -50 -22q-13 0 -32 3q-24 4 -32 4
q-16 10 -23 55q-4 38 -33 36l-7 -1q-12 -16 -18 -34.5t-7 -39.5q0 -15 4.5 -37t11.5 -54q35 -29 69 -54.5t68 -50.5q29 -31 44.5 -71.5t17.5 -90.5zM406 655h-9v-6h9v6zM292 731h-9v-6h9v6zM259 722h-6v-9h6v9zM265 674h-9v-9h9v9zM241 625q-4 2 -6 2q-10 0 -10 -8l1 -3h15
v9zM238 580h-9v-9h9v9zM147 662h-9v-10h9v10zM129 674h-6v-9h6v9zM214 605q-1 11 -2 20.5t-4 17.5q-5 4 -10 6.5t-11 2.5q-8 0 -14.5 -5t-11 -12t-8 -16t-3.5 -17q0 -9 5.5 -18t13 -16.5t17 -12.5t19.5 -5q9 28 9 55zM244 514h-9v-6h9v6zM96 649h-6v-6h6v6zM406 322h-9v-9h9
v9zM150 568h-6v-6h6v6zM177 535v-12l9 12h-9zM208 496q-3 6 -13 6h-2l12 -12zM120 568h-9v-6h9v6zM150 508l-12 -12l15 12h-3zM262 388q-5 5 -15 5q-17 0 -18 1q1 0 4.5 -2t7 -4.5t7 -4t5.5 -1.5q4 0 9 6zM406 234h-9v-9h9v9zM280 334h-6l9 -6zM226 367h-2t-2 1q-3 0 -8 -7
h12v6zM256 285h-5q-5 0 -9.5 -1.5t-6.5 -4.5h6q3 0 7 1t9 2t9.5 2t7.5 1h-18zM343 216q-16 6 -26 33q-5 10 -14 15.5t-23 6.5q0 -3 -3.5 -7t-7 -8.5t-6.5 -8.5t-3 -8q0 -3 0.5 -9.5t0.5 -14t0.5 -15.5t-0.5 -13q0 -41 28 -40q29 0 34 29q4 17 8.5 27t11.5 13zM132 135l-6 -6
h12z"/>
            <glyph glyph-name="uni0025" unicode="%" horiz-adv-x="887"
                   d="M334 738q10 -20 18 -42.5t-1 -45.5q6 -19 9 -42.5t3 -47.5t-3 -46.5t-9 -38.5q6 -7 5.5 -17t-5.5 -17l-6 -5q2 -7 -0.5 -14t-6 -15t-6.5 -16t-3 -16q-20 -21 -45 -35.5t-52.5 -21t-56 -5t-55.5 12.5q-52 21 -71.5 62.5t-22.5 92t2.5 104t3.5 99.5q10 31 27.5 61t49.5 48
q28 6 61 10t64.5 0.5t58 -18.5t41.5 -47zM708 788q-50 -103 -110 -200.5t-120 -195.5q-2 -22 -12.5 -41t-27.5 -31q3 -7 0 -14t-8 -14.5t-11 -15.5t-8 -16q-5 -17 -18 -33t-26 -27q8 -5 5 -13.5t-5 -14.5q-15 -21 -27 -43.5l-24 -45t-24.5 -44.5t-28.5 -43q-6 -7 -15 -9.5
t-19 -2.5t-20 2t-18 5q-2 3 -6 6t-7 6t-4.5 6.5t1.5 8.5q11 21 24 41.5t25 41.5l94 165q3 6 10.5 7t5.5 9t1.5 15t9 14.5t10.5 15t7 15.5q35 54 66 110t60.5 112t59 112.5t61.5 111.5q6 11 16.5 14t22.5 3t25 -1t24 1zM260 684v7h-8v-7h8zM224 645q-1 14 -10 23t-20 10.5
t-21.5 -5.5t-14.5 -23l-5 6q-2 -7 3.5 -9.5t7.5 -6.5q-2 -6 0 -12.5t-6 -10.5q6 -8 6 -15t-2 -14.5t-3 -15t5 -15.5q-7 -5 -6 -9.5t3 -9.5t3 -9.5t-6 -9.5q6 -6 6 -11.5t-2 -11t-5 -11t-4 -10.5q9 3 12 -0.5t3.5 -9t2 -11.5t9.5 -7q22 -4 29 4t8.5 21.5t2 29.5t9.5 27
q2 5 0.5 9.5t-3.5 8.5t-2 7.5t5 7.5q-5 23 -4 43t-1 40zM332 491v8h-9v-8h9zM840 397q9 -28 11 -61t0 -60q9 -20 10 -40.5t-1 -42.5t-5.5 -44t-3.5 -43q-9 -31 -28.5 -58.5t-48.5 -46.5q-24 -5 -51.5 -8.5t-54.5 -1.5t-52.5 10.5t-45.5 27.5q-17 16 -25.5 36t-13 41t-6 43.5
t-4.5 44.5q6 0 10.5 -4t11.5 -2l11 12q-22 -4 -29 5.5t-6.5 24.5t4 31.5t3.5 26.5q-8 4 -5.5 12t0.5 15q4 -2 6.5 0.5l4.5 4.5q-2 30 8.5 62.5t29.5 58.5q38 28 86 37.5t96 -3.5q27 -8 53 -28.5t35 -49.5zM257 453h-11l6 -6zM617 403v8h-8v-8h8zM732 375v9h-7v-9h7zM617 365
v8h-8v-8h8zM725 310q-6 5 -9 13t-6 15.5t-8 12t-15 3.5q-15 -3 -19 -10t-4.5 -16t-1 -18.5t-9.5 -16.5q3 -8 2 -18.5t-1.5 -22t-0.5 -22.5t5 -20q-7 -4 -8.5 -10.5t-7.5 -11.5q6 2 9 -3t7 -7q5 -13 7 -32t-12 -29q5 6 10 6t9.5 -2t9 -5t9.5 -4q14 5 19.5 16.5t7.5 25.5
t2.5 29t4.5 27q-6 6 -6 13t2 13.5t4.5 12.5t-0.5 11q-7 11 -6 25t6 25zM554 348q-1 -3 1 -4.5t5 -1.5t6 1.5t4 4.5h-16zM642 332h-11l11 -6v6zM397 282v9h-8v-9h8zM769 188h-6l6 -5v5zM612 156v8h-8v-8h8z"/>
            <glyph glyph-name="ampersand" unicode="&#x26;" horiz-adv-x="543"
                   d="M522 381q-1 -16 -12 -47q-7 -15 -9 -26t-3 -19q0 -4 0.5 -8.5t1.5 -8.5q-2 -5 -8 -17.5t-16 -31.5q-8 -15 -12.5 -28.5t-3.5 -23.5q-1 -9 6 -26t19 -40q16 -21 22.5 -40.5t5.5 -34.5q-18 -18 -58 -19q6 0 -11.5 1.5t-57.5 5.5q-6 14 -13.5 20.5t-18.5 6.5q-6 0 -19.5 -6
t-37.5 -17q-18 -12 -40 -16.5t-45 -5.5q-46 0 -81 15.5t-62 46.5q-43 63 -46 157q-1 27 0 43.5t4 26.5q5 15 12.5 33t20.5 38.5t24.5 36.5t23.5 27q2 1 19 1q11 0 14 5l-21 15q9 15 9 33q0 11 -5.5 27.5t-17.5 40.5q-9 22 -14.5 40t-2.5 34q-2 41 9.5 75t34.5 59t57 38.5
t78 14.5q35 -3 66 -15t53.5 -32.5t35 -49t11.5 -64.5q0 -43 -12.5 -76.5t-36.5 -65.5q-16 -1 -28 -27q-9 -27 -30 -27q-3 0 -6.5 2t-6.5 4l-6 4t-5 2q-4 0 -6.5 -2.5t-4.5 -7.5q23 -10 32 -42q6 -23 10.5 -36.5t8.5 -19.5q17 -23 37 -23q10 0 17 6q7 10 7 30q0 32 1 33
q2 13 8.5 22t19.5 14l47 1q10 0 17.5 -4.5t13 -12.5t8 -17.5t3.5 -20.5v-1zM340 622h-9v-9h9v9zM367 583h-9v-9h9v9zM310 619q0 2 -2 4.5t-4.5 6t-4 6.5t-1.5 6q0 5 5 10q-27 32 -53 31q-34 -17 -33 -70q-1 -12 4 -22t13 -17.5t19.5 -11t23.5 -3.5l-1 5q-1 10 8 24t26 31z
M319 565h-15l21 -6zM180 628q-2 0 -7 1t-7 1q-5 0 -9 -5h23v3zM247 556h-9v-9h9v9zM168 598l-6 -6h12zM283 490q-18 18 -18 21h-27q2 -6 22 -6q15 0 11 -15h12zM199 562h-9v-9h9v9zM313 415h-9v-6h9v6zM171 550h-9v-6h9v6zM328 379h-9v-9h9v9zM280 415h-9v-6h9v6zM457 231
h-6v-9h6v9zM235 436q-3 2 -7.5 2.5t-9.5 1t-9.5 1.5t-6.5 4q10 -5 10 -15q0 -7 -4 -12zM263 392v1q0 2 -1 4q-1 1 -3 1h-2q-3 0 -5.5 -2.5t-5 -6t-4.5 -6t-5 -2.5l-2 1q1 2 4.5 3.5t10.5 0.5q13 -2 13 6zM358 294q-1 -1 -4.5 -1.5t-7 -2.5t-6.5 -5t-3 -6v-3q4 0 21 18z
M295 334h-6v-6h6v6zM418 207q-2 -1 -6 -1q-1 0 -6 1.5t-15 5.5l27 -12v6zM379 234h-9l9 -12v12zM193 415h-9v-6h9v6zM355 246h-9v-6h9v6zM292 358q-10 -5 -20 -11t-21 -11q-24 -14 -28 -32q2 14 29 30q19 12 29 17.5t11 6.5zM214 379h-6v-9h6v9zM331 261q-4 6 -10 6
q-12 0 -17 -12q10 -2 27 6zM418 147v-9l6 3zM199 367h-9v-9h9v9zM385 174q-5 7 -16 7t-11 -11v-2h4t12 1q11 0 11 5zM364 207q-12 6 -27 6q-20 0 -21 -12q4 2 8 2q6 0 14.5 -3.5t13.5 -3.5q6 0 12 11zM316 234h-18l21 -6zM171 361h-9v-6h9v6zM187 334h-7v-6h7v6zM159 328h-6
v-6h6v6zM304 207q-2 -1 -5 -1h-4q-20 1 -30 26q-12 34 -21 41q4 5 6 5q3 0 7.5 -3.5t7.5 -3.5l6 2q-2 4 -2 6q0 6 15 10q6 2 10.5 3t9.5 2q-7 7 -14 7q-4 0 -9.5 -3t-12.5 -10q-14 -12 -24 -12q-13 19 -25 19q-9 0 -25 -19q-17 -18 -27 -18q-5 0 -11 3l24 -12q-1 -3 -1.5 -6
t-0.5 -7t1.5 -10t3 -13t2.5 -13.5t1 -9.5q0 -10 -6 -16l4 -6l12 12q16 -16 15 -21q4 -1 7 -1h8q23 0 42 19q13 12 22 20t14 10zM292 153q-1 1 -5 1q-3 0 -6 -2.5t-6.5 -5.5t-6 -5.5t-3.5 -2.5q7 3 16 6t11 9zM120 304l-18 6zM335 66q-10 0 -16 6v-6h16zM129 225h-9v-6h9v6z
M111 210h-9v-9h9v9z"/>
            <glyph glyph-name="quotesingle" unicode="'" horiz-adv-x="177"
                   d="M145 557q0 -10 -6 -17q6 -6 6 -14q0 -5 -4 -15.5t-2 -19.5q-13 -17 -42 -17q-11 0 -50 6q-17 39 -17 46q0 11 6 19q-4 0 12 0q7 0 10 6l-5 -1q-23 0 -23 26q0 10 6 18q6 4 6 8q0 2 -6 8.5t-6 11.5q6 12 6 26q0 10 -3 28t-3 28q0 14 6 26q-6 3 -6 10q0 13 0 12q8 23 49 33
q6 -4 35 -6q22 -2 25 -21q6 -34 6 -98v-49q-6 -8 -6 -18q0 -6 3 -18t3 -18z"/>
            <glyph glyph-name="parenleft" unicode="(" horiz-adv-x="297"
                   d="M272 788q-12 -19 -20 -39.5t-14.5 -41t-15 -41t-21.5 -38.5l6 -5q-11 -48 -25.5 -94.5t-18.5 -97.5l5 -6q-8 -47 -7 -92.5t7.5 -90t15.5 -88t17 -86.5q20 -32 30 -66.5t30 -65.5q0 -11 4 -19t2 -20q-9 -8 -21 -10t-24.5 -1.5t-25.5 0t-23 -5.5q-23 8 -36.5 23t-22 33.5
t-14.5 38.5t-15 38q-38 81 -50 173t-10 189q2 70 10 138t39 127q5 20 9.5 40.5t23.5 30.5q-2 13 2.5 27t12.5 27t19 24.5t22 20.5q29 1 58 -1.5t51 -20.5z"/>
            <glyph glyph-name="parenright" unicode=")" horiz-adv-x="303"
                   d="M112 799q7 7 18 6.5t16 -6.5q36 -42 55 -92t38 -101q26 -71 33.5 -140.5t4.5 -150.5q-4 -117 -37.5 -223.5t-99.5 -199.5q-9 -1 -18 -4t-18 -5t-18 -2t-18 5q-6 -6 -11.5 -5.5t-11 3.5t-10.5 7t-11 6q11 36 24.5 71t26 70t22.5 71t15 74q5 -2 7 0.5t4 4.5q-4 31 2 63.5
t4 68.5q-2 62 -8 121.5t-18 116.5t-31 110t-48 103q5 3 5.5 7.5t0.5 9.5l-6 5q7 12 16.5 15t21 2t23 -3.5t22.5 -1.5l5 -6v0z"/>
            <glyph glyph-name="asterisk" unicode="*" horiz-adv-x="513"
                   d="M323 788q1 -21 -6.5 -40.5t-14 -38.5t-6.5 -37.5t16 -37.5q18 7 36 19t36 22t37 16t39 3q6 -12 13 -25t11 -26.5t4.5 -27t-6.5 -25.5q-17 -11 -37 -14.5t-40 -5t-40 -4.5t-36 -14q4 -12 13 -23.5t19 -21.5t20.5 -19.5t18.5 -18.5q13 -8 23 -15t10 -23q0 -13 -6.5 -23
t-16.5 -17.5t-22 -13.5t-21 -12q-8 2 -12.5 -2.5t-9.5 -8.5q-19 13 -27.5 31.5t-15 38t-14.5 37.5t-25 30q-1 3 0.5 6l3 6t1 5.5t-4.5 4.5h-9.5t-7.5 -6l5 -5q-24 -33 -38.5 -70.5t-32.5 -72.5q-18 -2 -31.5 3.5t-25.5 14.5t-22 20.5t-20 21.5q2 18 12 32.5t24 26t29.5 21.5
t27.5 20q8 6 6 15.5t0 17.5q-17 10 -36 13.5t-39.5 5.5t-40.5 4t-38 9q-8 71 33 116q20 -2 38 -11t35 -19.5t34 -20.5t36 -15q11 8 18 17t-7 21q1 16 -3 30.5t-8.5 29t-7 29t1.5 32.5q11 14 24 15.5t27.5 -0.5t29.5 -5t30 2zM263 628h-12l12 -5v5z"/>
            <glyph glyph-name="plus" unicode="+" horiz-adv-x="704"
                   d="M415 612q-8 -48 -6 -100t0 -103l28 -22l209 5q7 -6 14.5 -11t12.5 -11.5t6 -14.5t-6 -18q8 -9 5 -21t-5 -23q-9 -11 -23 -14.5t-28.5 -3t-29 1.5t-24.5 -1q-20 3 -42 5t-44 0t-42 -8.5t-37 -18.5q6 -6 6 -15v-17l-6 -6l12 -176q-3 -23 -22 -32.5t-39 -11.5
q-19 -2 -35.5 6.5t-25.5 21.5q-1 55 1 119t-6 123l-17 16l-214 -11q-11 2 -18 11.5t-15 15.5q7 13 6 27.5t-1 27t3.5 23t19.5 16.5q5 -6 10 -6t10.5 2.5t11 4.5t12.5 -1q28 0 56.5 -3.5t56.5 -4t53.5 6t47.5 28.5q-11 7 -14.5 20t-3.5 28t2.5 30l4.5 27q-6 34 -6 63t6 63
q10 12 23.5 15t27.5 1.5t28 -6.5t25 -10zM376 354h-11l6 -6zM255 348h-5l5 -6v6zM489 315v8h-9v-8h9zM321 288h-6l11 -6z"/>
            <glyph glyph-name="comma" unicode="," horiz-adv-x="214"
                   d="M192 9q-6 -8 -15.5 -25.5t-19.5 -42.5q-10 -26 -20 -44.5t-18 -28.5q-14 -14 -30.5 -22.5t-39.5 -6.5h-7q-4 7 -6 14t-3 16q0 10 6 23.5t16 31.5q11 16 16.5 30t5.5 26q0 8 -3 17q-21 13 -33.5 38t-10.5 66q-1 8 0 19t1 24q2 17 3.5 28.5t1.5 14.5q13 22 22 27
q4 2 12 3.5t20 1.5h11q6 0 13.5 0.5t13.5 1t11 0.5q41 0 53 -25v-186v-1z"/>
            <glyph glyph-name="hyphen" unicode="-" horiz-adv-x="339"
                   d="M305 296q1 5 1 -5v-36q0 -32 -26 -43q-16 1 -46 2t-74 0q-38 0 -67.5 1.5t-51.5 4.5q0 3 -1.5 7t-3 8.5t-3 8.5t-1.5 6q0 5 1 7l17 11q-3 -1 -4 -1h-3q-9 0 -9 10q0 3 1 8.5t1 8.5q0 6 -3 10q4 5 4 10q0 2 -1 7t-1 8q0 5 6 12q47 5 110.5 5.5t142.5 -4.5l11 -29l-2 -4
t-2 -5q-2 -5 4 -8zM206 318l-12 3zM242 287q-4 1 -8 1t-8 -2q-8 -2 -11.5 -3l-3.5 -1q6 1 13.5 2t17.5 3zM206 285q-7 7 -17 0h17zM161 304l-3 -3l8 3h-5zM214 243l-17 -3zM172 287q-5 2 -13 1.5t-18 -3.5q6 -1 16 0q11 3 15 2zM180 259l-3 3t-4 6q-5 4 -12 3q13 -3 19 -12z
M138 273h-11l11 -2v2zM127 287q-2 3 -4.5 3t-6.5 -1q-8 -4 -10 -4q19 0 21 2zM147 243l-3 -3h22zM109 271q-4 1 -8.5 1.5t-11.5 0.5v-2h20zM119 243l-3 -3h17z"/>
            <glyph glyph-name="period" unicode="." horiz-adv-x="229"
                   d="M198 182q-2 -10 -2.5 -26t0.5 -38q2 -24 1 -41t-3 -27q-4 -17 -12.5 -30t-21.5 -21q-20 1 -38 1h-38q-43 4 -55 37q6 18 6 45q0 6 -0.5 14.5t-1 18t-1 18t-0.5 14.5q0 26 8 44t24 30l55 2q64 -2 79 -42v1z"/>
            <glyph glyph-name="slash" unicode="/" horiz-adv-x="422"
                   d="M330 544q-161 -395 -182 -449l-51 -135q-16 -26 -54 -26q-25 0 -39 16q-1 -1 -1 11q0 7 6 10l10 -11q4 -1 11 5q0 8 -8 11l-13 5q19 44 26 67q2 13 12 13t19 -8q5 5 5 8q0 5 -10.5 10t-10.5 10q0 13 9.5 26.5t21.5 13.5q-6 6 -10 4v16q6 6 21 48q10 31 36 30l-16 15
q17 52 73 177q50 111 67 180q14 3 16 27t15 29l-5 6q32 76 41 108q7 25 34 30q24 0 49 1q16 -19 16 -24q0 -3 -1 -7zM200 369v-8h8v8h-8zM278 539v-8h8v8h-8zM283 601v-8h8v8h-8zM309 632l-16 11z"/>
            <glyph glyph-name="zero" unicode="0"
                   d="M471 320q0 -10 -3 -29.5t-8 -45.5l4 -5q-2 -12 -4.5 -25.5t-5 -30t-5.5 -36t-6 -42.5q-3 -10 -11 -24.5t-26 -31.5q-17 -16 -31 -25.5t-25 -14.5q-19 -4 -43.5 -7t-55.5 -5q-66 0 -110.5 18.5t-66.5 57.5q-18 36 -28 83.5t-13 109.5q1 -1 5 -1q3 0 7 2.5t9 8.5l-10 11
l-7 -2q1 65 -0.5 113t-2.5 81l-1.5 49.5t2.5 17.5q-4 95 25.5 154.5t88.5 82.5q21 8 48.5 12t60.5 3q56 1 97.5 -17t67.5 -53q14 -18 15 -25q5 -15 10 -35t8 -46q2 -40 6 -113t8 -185l1 -6v1zM313 771h-8v-8h8v8zM369 647q0 1 -5 9l-6 -5q7 -6 9 -6h2v2zM321 672q-4 6 -7 6
q-5 0 -14 -11h21v5zM409 579h-8v-8h8v8zM358 619q-2 6 -10 6t-11 -6q1 -6 9 -6h12v6zM238 733h-8v-8h8v8zM353 565v-5l5 5h-5zM242 683h-2q-7 0 -10 -6l6 -5l10 11h-4zM372 520h-8v-8h8v8zM417 439l-5 9l-6 -5q8 -6 9 -6h2v2zM150 704q-2 6 -10 6t-11 -6l5 -5h7q7 0 9 5z
M177 635l-5 -6l5 -5l5 5zM390 400h-5l5 -5v5zM428 347l-6 -6l6 -5l5 5zM414 355h-8v-8h8v8zM182 517h-5l5 -5v5zM105 563h-8v-8h8v8zM316 549q-18 11 -20 37q-2 18 -3.5 29t-2.5 14q-21 22 -35 22t-30 -12q-7 -5 -13.5 -9.5t-13.5 -10.5q5 -2 8 -5.5t3 -7.5q0 -2 -1.5 -6
t-4 -8.5t-4 -8.5t-1.5 -7q0 -14 3 -32q2 -23 3 -32q-2 -4 -3.5 -7.5t-1.5 -7.5q0 -5 2.5 -13.5t2.5 -14.5q0 -9 -6 -16q6 -11 6 -20q0 3 -1.5 -6l-4.5 -27l6 -5q-1 -4 0 -33q0 -22 -16 -26h9q9 -3 8 -39q0 -4 -1 -10t-2.5 -13t-3 -13.5t-1.5 -10.5q1 -6 4 -22.5t8 -40.5
q4 -2 9 -9.5t10 -18.5q10 -23 21 -23q7 0 19 8l-6 5q16 19 23.5 34.5t8.5 29.5v2q0 3 6 9q-6 6 -6 13q0 5 3 14t3 13q0 8 -6 13q1 4 1.5 9t0.5 10q0 3 -0.5 9l-1 12t-0.5 11.5v9.5q0 22 11 30l-11 11v28q0 18 16 20q-16 5 -16 18q0 4 1.5 13t1.5 14q0 7 -3 13q7 7 7 17
q0 3 -1 7.5t-2.5 9t-2.5 9t-1 7.5q0 12 11 20q7 -6 9 -6h2zM318 333h-8v-8h8v8zM102 528l-5 -11l5 6v5zM353 267h-11l11 -6v6zM361 200h-8v-8h8v8zM150 379v-6l6 6h-6zM321 165h-5l5 -5v5zM177 304q-12 11 -17 11h-4l16 -16zM302 173h-8v-8h8v8zM348 107q-3 5 -8 5
q-7 0 -8 -5l5 -6h2q1 0 9 6zM57 392h-8v-8h8v8zM292 125h-8v-8h8v8zM113 288l-5 -11l10 11h-5zM172 219h-6q-4 0 -6.5 -1.5t-3.5 -4.5q4 -3 5.5 -4t2.5 -1h2q6 7 6 9v2zM252 112h-6q-4 0 -6.5 -1.5t-3.5 -3.5l8 -6h2q6 7 6 9v2zM268 59h-6l6 -6v6zM238 88h-8v-8h8v8z
M193 123l-5 5l5 -11v6zM134 165q-5 6 -12 6q-16 0 -20 -11h18q5 0 8 1.5t6 3.5z"/>
            <glyph glyph-name="one" unicode="1" horiz-adv-x="338"
                   d="M304 35q-1 -2 -2 -4.5t-4 -5.5q-7 -12 -22.5 -18t-37.5 -7q-7 0 -18 0.5t-26.5 3t-26 3.5t-18.5 1q-11 7 -17 18t-6 25v5t1 5l5 6l-2 3q0 130 4 195.5t6 62.5q-1 19 -4.5 76t-8.5 152q0 4 -8 13q-8 7 -25 12t-43 11q-47 9 -47 34q0 2 2.5 11.5t7.5 25.5q3 7 7 11t9 5
q19 5 22 6q5 -3 9 -3q12 0 31 16q10 9 17.5 13.5t13.5 4.5q30 41 56 62.5t48 20.5q20 1 40 -12q2 1 6 1q8 0 26 -17q3 -20 4 -29.5t3 -11.5q-6 -102 -6.5 -169.5t0.5 -105.5q0 -14 -1 -25t-4 -20q3 -98 4 -149.5t0 -53.5q0 -7 -6 -13l11 -138q-5 -2 -5 -6q0 -3 2.5 -7.5
t2.5 -7.5zM243 666h-8v-8h8v8zM286 612h-9v-8h9v8zM173 676h-8v-8h8v8zM235 545h-6l6 -6v6zM184 564h-9v-8h9v8zM218 497l-5 -6l5 -5l6 5zM202 475h-5l5 -5v5zM229 411h-11l11 -6v6zM157 411q-7 0 -8 -6l5 -5h3q-2 0 13 11h-13zM243 317h-8v-8h8v8zM175 137h-10l10 -6v6z
"/>
            <glyph glyph-name="two" unicode="2" horiz-adv-x="490"
                   d="M460 575q1 -41 -9 -82t-36 -78q-8 -19 -32 -52.5t-62 -89.5q-1 -1 -7.5 -5.5t-19.5 -14.5q-16 -13 -32 -12q7 -7 7 -13q0 -8 -14 -20q-7 -6 -10 -11t-4 -9q9 -29 42 -28h6t6 1q4 -16 13 -15q3 0 8 2t11 5.5t11.5 6t9.5 2.5t12 -1.5t12 -1.5q3 0 9.5 0.5t13 1.5t13 1.5
t9.5 0.5q31 0 38 -29q-6 -12 -6 -30q0 -4 1.5 -12.5t2.5 -17t2 -16.5t1 -13q-1 -26 -21 -40q-93 5 -140 6t-49 2q-1 -4 -46.5 -5.5t-136.5 -7.5q-17 8 -25 18.5t-8 21.5q0 4 3.5 12t3.5 12q0 5 -5 11q-1 7 -1.5 14t0.5 14q-2 38 13.5 72.5t45.5 71.5q7 4 15.5 12.5
t18.5 17.5l101 146q1 1 3 4t8 8q7 5 7 13q0 3 -2 8q7 10 13 20t13 21q3 6 7 19.5t10 35.5q18 -6 22 -6l5 1l5 5q-10 2 -16.5 11.5t-8.5 26.5t-7.5 27.5t-15.5 14.5q-28 12 -30 12q-12 0 -21.5 -7t-14.5 -21q-4 -12 -7 -24t-6 -26q-10 -24 -34 -19q-16 -8 -34.5 -12.5
t-39.5 -4.5h-8.5t-8.5 1q-9 8 -18.5 18.5t-9.5 20.5v8q-2 49 4.5 83.5t19.5 51.5q13 22 34.5 38t49.5 28q25 12 50 16.5t54 4.5q6 0 16 -1.5t20.5 -2.5t20 -2t15.5 -1q3 0 7 -3l8 -6t8.5 -6t7.5 -3t4.5 1t4.5 5q49 -37 73.5 -89t27.5 -119zM415 673h-8v-8h8v8zM292 753h-8
v-8h8v8zM348 638q-5 5 -17 5h-20l32 -16q5 8 5 9v2zM370 575q0 2 -6 9l-5 -5q8 -6 9 -6h2v2zM337 595h-2q-1 0 -3 -1.5t-5 -3.5l5 -6q6 7 6 9zM316 611q-3 6 -11 6q-9 0 -10 -6l5 -5h7q5 0 9 5zM348 531h-5h-4q-13 0 -12 -10v-1h16q5 8 5 9v2zM177 665l37 -27l5 5zM316 498
q-3 6 -11 6q-9 0 -10 -6l5 -5h7q5 0 9 5zM329 453h-8v-8h8v8zM222 383h-8v-8h8v8zM249 303h-8v-8h8v8zM345 110h-8v-8h8v8zM182 241l-3 1l-8 -6l6 -6q5 8 5 9v2zM262 155l-5 -5l5 -5l6 5zM311 70q0 9 -16 10l-1 -1q0 -10 13 -10zM319 35h-8v-8h8v8zM147 196h-8v-8h8v8z
M203 129q-10 -4 -16 -8t-10 -8l5 -6zM150 150h-6q-8 0 -10 -5l8 -6h2q6 7 6 9v2zM246 43h-5l5 -5v5zM209 80l-5 1h-2q-8 0 -9 -6l10 -11q6 3 6 11v5zM134 88q0 1 -6 8q-5 -1 -5 -8q0 -5 5 -8l6 6v2z"/>
            <glyph glyph-name="three" unicode="3" horiz-adv-x="480"
                   d="M452 299q-1 -12 -2.5 -48t-5.5 -97q1 -19 -8 -38.5t-27 -42.5q-20 -23 -38.5 -38.5t-36.5 -23.5q-11 -6 -36 -8.5t-60 -2.5q-24 0 -48 2.5t-45 9.5q-3 6 -8.5 11t-14.5 9l-20 10l-12 6q-9 13 -23.5 37.5t-32.5 58.5q1 2 1.5 4.5t0.5 4.5q0 5 -2 10t-4.5 10.5t-4.5 10.5
t-2 9q0 7 6 14q-6 3 -6 7q0 3 3 7t3 6t-5 6q1 28 11 42t31 17q10 -6 28 -6q4 0 10.5 0.5t13.5 1t13.5 1t10.5 0.5q28 0 37 -21q4 -9 5 -45q0 -16 2.5 -28t6.5 -19h-6q-4 0 -15 -11q3 -10 10 -10q2 0 4.5 1.5t6 3t6.5 3.5t4 2q17 -8 28 -11.5t17 -3.5q5 0 9.5 1t9.5 4
q33 50 32 98q0 18 -7 34l12 21q-23 12 -23 18q0 3 0.5 4.5t0.5 4.5q-3 4 -19.5 11.5t-46.5 20.5q-21 7 -31.5 20t-11.5 28q1 40 32 62l30 16t29 16q29 18 30 50q0 14 -4 28.5t-11 28.5q-18 33 -44 35q-5 -5 -11 -5q-4 0 -11.5 2.5t-12.5 2.5q-9 0 -13 -10q11 -8 10 -20
q0 -4 -1.5 -10t-3.5 -12t-4 -11.5t-2 -9.5q-26 -20 -75 -20q-36 0 -55.5 9.5t-18.5 30.5q0 5 2 13t4.5 17.5t4.5 18t2 14.5q0 14 6 29.5t17 33.5q11 15 22.5 27.5t24.5 20.5q8 7 22.5 12t36.5 8q19 4 35.5 5.5t28.5 0.5q57 3 102 -19q30 -9 49.5 -25.5t29.5 -38.5
q11 -18 16 -50t7 -75q-1 -18 -2.5 -33.5t-3.5 -31.5h-4q1 0 -12 -11q6 -3 6 -11l-1 -15q-14 -18 -23 -34.5t-13 -32.5q28 -28 42 -59t16 -65v2zM425 678q-2 5 -6 5q-10 0 -10 -9v-1h7q7 0 9 5zM357 678q-9 -2 -22 -11q8 1 22 11zM313 678q-1 1 -4 1q-4 0 -11.5 -3t-20.5 -9
q4 -4 8 -4q2 0 5.5 2.5t8 5.5t8.5 5.5t6 1.5zM362 567l-5 -11l2 1q1 0 8 -6l5 5zM248 665h-8v-8h8v8zM343 554h-8v-8h8v8zM370 490h-8v-8h8v8zM309 463l-5 9q-6 -3 -6 -8q0 -6 6 -8l5 5v2zM391 289h-8v-8h8v8zM383 239l-5 -5l5 -5l5 5zM309 276h-5l5 -5v5zM313 239l-4 -5
l4 -5l7 5zM351 186l-7.5 2.5t-9 3.5t-9.5 3.5t-8 1.5q-7 0 -13 -5q2 -1 6.5 -2.5t9.5 -3.5t9.5 -3.5t8.5 -1.5q6 0 13 5zM335 144q-16 11 -14 11h-1l-1 -2q0 -9 14 -9h2zM325 107q-2 0 -6 7q-4 4 -7 4h-3l16 -16v5zM290 126h-7v-8h7v8zM177 197h-5q-11 0 -11 -8v-1v-2h11
q2 4 3.5 5.5t1.5 2.5v3zM246 91h-2q-1 0 -9 5l-6 -5q3 -5 12 -5h5v5zM214 107q-8 6 -9 6l-2 -1l11 -10v5zM187 91q-2 6 -10 6l-5 -1l10 -10z"/>
            <glyph glyph-name="four" unicode="4" horiz-adv-x="520"
                   d="M496 266q0 -8 -1 -19t-4 -26q-1 -14 -2.5 -25.5t-1.5 -19.5q-14 -14 -22 -22.5t-12 -12.5q-8 -12 -12.5 -23t-3.5 -22v-9t1 -9v-10q0 -4 1 -12t1 -12q0 -7 -2.5 -15t-8 -13.5t-12 -9.5t-13.5 -4q-5 0 -11.5 1t-13.5 2.5t-14 2.5t-11 1q-3 0 -8 -1.5t-9.5 -3l-9 -3
t-7.5 -1.5q-9 0 -21 11l-17 18q-1 5 -2 9.5t-1 10.5q0 4 1 12t1.5 16t1.5 16t1 13q0 16 -9 33q-5 10 -11.5 15.5t-13.5 9.5l-224 1q-15 20 -16 51q1 9 1.5 20t2.5 26q3 16 4 26.5t1 18.5q0 14 -3 27q5 14 13 31.5t19 41.5q2 6 19.5 37t47.5 95q4 7 11 18t16 26q4 11 10 28
t14 39q16 37 35 72.5t38 66.5q3 0 7.5 1.5t9 3.5t9.5 4t7 2q9 0 16 -11l21 10q8 -3 22 -4.5t32 0.5q19 1 33 0.5t22 -3.5q19 -6 26 -25q-6 -14 -6 -46q1 -16 -1 -27.5t-10 -19.5l17 -334q50 -16 52 -75v1zM369 643q-1 5 -5.5 8t-10.5 3h-24q-6 0 -3 -1q15 -13 32 -13
q6 0 11 3zM391 585q0 1 -6 9l-6 -6q9 -5 10 -5h2v2zM364 599q-4 6 -11 6q-8 0 -12 -6l6 -5h7q6 0 10 5zM335 621q-1 6 -9 6q-9 0 -12 -6l5 -6h8q7 0 8 6zM355 545q-5 0 -8 -1.5t-6 -3.5l6 -6q2 -1 6 -1q13 0 21 12h-19zM297 615q-2 2 -5 2q-13 0 -16 -18q1 3 5 4t7.5 2
t6.5 3t3 6zM211 670l21 -22l7 5zM379 507l-5 -5l5 -6l6 6zM335 566q-22 17 -40 17q-10 0 -19 -5q3 -2 9.5 -4t17.5 -3q17 -2 23 -15l9 11v-1zM335 512q-1 7 -9 7q-9 0 -12 -7l5 -5h8q7 0 8 5zM341 458l-6 -5l6 -6l6 6zM241 548h-9v-8h9v8zM396 362q0 1 -5 9l-6 -5q7 -6 9 -6
h2v2zM326 436l-7 -5l7 -5l5 5zM385 344q-6 6 -13 6q-10 0 -15 -6l7 -5q-2 -1 12 -1q7 0 9 6zM333 379h-7v-8h7v8zM376 287h-7v-8h7v8zM189 458h-10l10 -5v5zM309 474l-6 1q-8 0 -11 -6q-3 4 -4 28v5l-17 27h-1q-3 0 -8 -2.5t-9.5 -5t-9.5 -5t-8 -2.5q-4 0 -7 4l-6 -6
q6 -2 8.5 -4.5t2.5 -6.5q0 -3 -3 -8t-6.5 -10.5t-6 -12.5t-0.5 -12q-6 -5 -10.5 -16.5t-11.5 -29.5q-6 -17 -11 -29t-11 -19q-16 -22 -44 -20q5 -5 30 -5q14 0 20 -11v-6q0 -9 -6 -10q3 -6 8 -6q1 0 3.5 2t5 3.5t5 3.5t4.5 2h2q7 -5 39 -5q18 0 26 -17l5 6v2q0 5 -6 8
q-5 1 -7.5 2.5t-3.5 2.5q28 11 31 47q5 47 12 57l-9 11q-1 -1 -1 18q0 10 5 15q8 -6 10 -6q8 0 7 11v5zM388 244h-9v-8h9v8zM331 301q-3 1 -4 1h-3q-4 0 -8 -1.5t-8 -3.5l-10.5 -4.5t-5.5 -2.5q3 -6 13 -6h14l2.5 2.5l3.5 3.5t4 4.5t2 4.5v2zM353 263q-6 6 -16 6
q-13 0 -18 -12l7 -5l5 -1q13 0 22 12zM146 442h-5l5 -6v6zM396 187q-2 6 -8 6q-7 0 -9 -6q3 -6 12 -6h5v6zM319 241q-4 11 -23 17q-8 4 -13 8t-7 8l16 -17q-3 -2 -3 -5l2 -4l6 -12q-1 -1 13 -1q8 0 9 6zM364 187q-4 6 -10 6q-4 0 -7 -6l6 -6h1q1 0 10 6zM254 279h-3h-2
q-9 0 -10 5v-1q0 -10 11 -10l4 1v5zM119 398h-5l5 -5v5zM331 198h-6q-13 2 -21 -11q3 -6 11 -6h4l2.5 2.5l3.5 3.5t4 4.5t2 4.5v2zM341 165h-6q-8 0 -9 -5q6 -6 7 -6h2q6 8 6 9v2zM290 206h-8v-8h8v8zM211 279l-5 -5l5 -6l5 6zM232 252v-5l7 5h-7zM366 114h-9v-9h9v9z
M207 245q0 7 -8 7q-5 0 -15 -11q3 -7 11 -5h6q6 8 6 9zM148 293h-7v-9h7v9zM163 263h-12l6 -11q6 7 6 9v2zM331 84l-5 5z"/>
            <glyph glyph-name="five" unicode="5" horiz-adv-x="502"
                   d="M475 261q1 -2 -0.5 -13t-6.5 -33q-4 -38 -11 -68.5t-17.5 -54t-25.5 -41t-35 -29.5q-10 -4 -26 -7.5t-40 -8.5q-21 -4 -37.5 -5t-28.5 1q-53 -2 -89.5 10t-65.5 38q-8 8 -15.5 20.5t-15.5 31.5q-7 18 -14 31t-14 20q5 7 5 14q0 3 -2 8t-4 10.5t-4 11.5t-2 10t1.5 8t5.5 8
q-6 6 -6 16q0 1 1.5 7.5t3.5 18.5q19 9 40.5 14.5t44.5 6.5q27 -1 46.5 -7t31.5 -18q-1 -5 -1.5 -10t0.5 -10q-2 -32 13 -57q8 -17 18 -25.5t25 -9.5q42 1 58 47q-6 9 -6 19q0 4 2 9.5t4.5 12t4 12t1.5 10.5v1q0 2 -1 6q-6 5 -6 17q0 23 1 21h3q-1 0 13 11q1 3 -5 10h-11
q2 8 1 16q2 47 -34 65q-7 12 -25 12q-34 0 -49 -30q-10 -16 -17 -23.5t-16 -6.5h-9q-3 1 -5 1h-4q-4 0 -10.5 -0.5t-13.5 -1t-14 -0.5h-11q-17 0 -30 4t-19 10l8 375q-6 6 -6 12t5.5 16.5t9.5 18.5l260 7q4 -3 9.5 -3.5t10.5 -1.5q7 -2 20 0q15 1 20 0q28 1 37 -27v-19v-46
q0 -15 -3 -25t-9.5 -16.5t-17 -9.5t-25.5 -4l-56 1q-23 -1 -40.5 0.5t-30.5 3.5q-13 -10 -21.5 -16t-13.5 -6q-2 0 -4 0.5t-5 1.5l-5 5v-4q-1 -3 1 -8.5t4 -12t4 -12.5t2 -10q0 -10 -6 -18q17 -29 52 -28q7 0 17 1t25 4q14 3 25 4.5t18 1.5q17 0 23 -4q39 -16 64.5 -45
t37.5 -75q6 -27 8.5 -70t4.5 -101zM289 727h-8v-8h8v8zM292 681h-2q-1 0 -9 6l-6 -6q4 -5 12 -5h5v5zM222 665q-6 -1 -6 -8q0 -8 8 -8q1 0 2.5 1t5.5 4zM184 681q0 6 -7 6q-10 0 -10 -9l1 -2h16v5zM367 449l-11 -10h6q5 6 5 9v1zM324 466l-2 -1q-1 0 -9 6l-5 -5q3 -6 11 -6
h5v6zM378 385q-8 5 -9 5q-8 0 -8 -8q0 -7 6 -8zM243 514q-4 4 -9.5 5.5t-13.5 1.5h-5q-2 0 -4 -1l11 -11q-1 -1 12 -1q8 0 9 6zM195 557q-1 1 -4.5 3t-7.5 4l-8 4t-7 2l-1.5 -0.5l-4.5 -1.5q13 -13 26 -13q3 0 7 2zM467 274h-8v-8h8v8zM286 449q-1 6 -6 6q-8 0 -15 -11h12
q8 0 9 5zM402 317h-8v-8h8v8zM122 587h-8v-8h8v8zM246 447h-8v-8h8v8zM168 514q-3 6 -9 6q-5 0 -8 -6l6 -5l2 -1q2 0 9 6zM448 193q0 1 -1 2.5t-4 5.5q-6 -1 -6 -8q0 -5 6 -8l5 5v3zM141 498h-6l6 -5v5zM178 428q-4 10 -13 10t-14 -10l6 -6h13q7 0 8 6zM335 255l-2 1
q-9 0 -9 -10v-2h5q6 7 6 9v2zM108 428q-3 6 -11 6q-7 0 -10 -6l5 -6h7q7 0 9 6zM340 120q-8 6 -9 6h-2l6 -11zM302 158h-5q-8 2 -11 -5q7 -6 9 -6h2q6 7 6 9zM356 93l-5 -5l5 -5l6 5zM281 104l-6 -11h3q1 0 2.5 1.5t5.5 4.5zM206 106q0 1 -6 9l-5 -5q6 -6 9 -6h1zM114 153
h-11l16 -6z"/>
            <glyph glyph-name="six" unicode="6" horiz-adv-x="483"
                   d="M455 236q1 -14 -1.5 -33t-7.5 -44q-6 -26 -11 -44.5t-11 -26.5q-11 -19 -29.5 -35t-44.5 -27q-27 -14 -51 -20t-49 -7q-27 1 -53 5.5t-52 13.5q-29 12 -48 28t-32 36q-6 16 -13 40t-10 57q-5 27 -7 51.5t-3 46.5q0 15 0.5 27.5t3.5 25.5q-6 10 -6 24t6 23q-5 3 -5 33
q0 22 1 35t4 17q-3 17 -5 35t-2 36q2 57 10.5 100.5t27.5 74.5q26 43 77 67q26 13 51 19t53 7q21 -1 36 -2.5t25 -5.5q5 -2 11.5 -6t13.5 -11q45 -20 70 -42.5t30 -45.5q16 -59 17 -70q0 -11 -4.5 -20.5t-11.5 -14.5q-20 -3 -37 -5t-30 -3q-20 1 -35.5 3.5t-28.5 9.5
q-14 29 -28 43t-29 14q-30 1 -45.5 -20.5t-15.5 -65.5t0.5 -62t0.5 -14q10 5 20 5q20 0 43 -16l12 11l-7 5q7 8 16.5 11.5t21.5 4.5q7 0 16 -1.5t23 -4.5q12 -2 22.5 -3.5t16.5 -2.5q26 -13 43.5 -34t23.5 -52q6 -17 9.5 -45t5.5 -69v-11.5t0.5 -16t1.5 -16.5t1 -13z
M285 764h-9v-8h9v8zM292 667q-1 5 -5 5q-11 0 -11 -9v-2h8q7 0 8 6zM327 622h-8v-8h8v8zM220 677h-7l7 -5v5zM385 448h-9v-8h9v8zM120 698q-3 6 -12 6q-8 0 -9 -6l5 -5h6q7 0 10 5zM178 619l-2 1q-3 0 -9 -6l4 -5q7 6 7 8v2zM146 625v-6l4 6h-4zM355 398h-4l4 -5v5zM403 346
q-5 5 -13 5h-18q1 0 3.5 -2t6 -4t6.5 -3.5t6 -1.5q5 0 9 6zM288 425q-7 5 -15 5q-12 0 -18 -11q6 -5 10 -5q5 0 12 5t11 6zM241 462q-3 2 -8 4.5t-13 5.5l14 -16zM150 514h-4l11 -5zM169 496h-7v-8h7v8zM397 262h-4l4 -6v6zM283 369q0 2 -7 8l-5 -10h12v2zM246 414l-17 -16
h4q5 0 17 11zM72 556l-6 -5l6 -5l6 5zM220 430q-25 -5 -39.5 -8.5t-23.5 -2.5l5 -5q5 6 15 6q5 0 14.5 -3t15.5 -3q10 0 18 11zM78 525l-6 -11l6 5v6zM330 272l-17 -10l6 -6q6 8 8.5 11.5t2.5 2.5v2zM117 464h-9v-8h9v8zM412 170h-9v-8h9v8zM136 432q0 2 -7 8l-4 -5
q8 -5 9 -5h1zM346 211q0 1 -6 9l-6 -6q9 -5 10 -5h2v2zM178 377q-3 6 -9 6t-7 -6l5 -5h1q1 0 10 5zM309 235h-5l5 -5v5zM146 398l-11 -10l6 -5l9 10zM185 357q-10 1 -18.5 -2t-16.5 -9l12 -11q27 4 30 21zM293 247q1 2 0.5 12t-1.5 29v23t1 19l-47 32h-5q-10 -1 -17 -7
t-13 -19q-6 -16 -12 -25t-12 -13q2 -17 3.5 -34t3.5 -34q4 -21 9 -36.5t17 -26.5l-16 -10q2 -5 10 -7.5t20 -3.5q4 4 11.5 7.5t17.5 5.5q12 3 19.5 5t9.5 3h-3q-10 0 -13 6q9 12 13.5 30t3.5 43v1zM129 377q-1 6 -5 6t-16 -11q2 -4 7 -4q-2 0 14 9zM120 320q4 -20 22 -20
q4 0 8 4zM314 111q0 2 -5 9q-6 -3 -6 -8q0 -7 6 -8l4 5zM122 285h-8v-8h8v8zM264 133h-9v-8h9v8zM87 288l-4 -11l10 11h-6zM141 220h-6q-8 0 -10 -6q3 -3 4.5 -4t2.5 -1h3q6 7 6 9v2zM225 120h-4q-13 0 -13 -10v-1q4 -3 6 -4t3 -1q8 0 8 10v6zM241 62h-7l7 -5v5zM104 167
q-4 5 -8 5q-6 0 -11 -4.5t-7 -5.5q-1 -1 15 -1q8 0 11 6z"/>
            <glyph glyph-name="seven" unicode="7" horiz-adv-x="465"
                   d="M446 761q1 -11 -1.5 -22.5t-7.5 -22.5q-6 -14 -9 -23t-4 -13l-8 -55q-8 -20 -15.5 -51.5t-15.5 -73.5q-4 -2 -6 -7t-3 -10t-2.5 -10t-4.5 -7l3 2l-47 -417v-4q1 -9 -4.5 -17.5t-14 -15.5t-19.5 -10.5t-21 -3.5q-4 0 -11.5 1t-16 2.5t-16.5 3t-13 1.5q-12 0 -20 -6
q-22 1 -35 10.5t-15 27.5q4 7 6 18.5t3 28.5q5 35 13 50l17 155q3 13 7.5 31t11.5 44q10 48 14.5 75t6.5 36q8 30 16.5 55t19.5 48q-4 4 -4 9q0 3 2.5 9.5t2.5 9.5q0 7 -5 11q-10 19 -26 22q3 -1 -32 -1q-4 0 -9 1t-10.5 2.5t-10.5 2t-8 0.5q-8 1 -18.5 -0.5t-26.5 -5.5
q-14 -3 -25.5 -4.5t-18.5 -0.5q-23 -1 -35 13t-11 44q0 6 1 15.5t2 20t2.5 20t1.5 15.5v7q0 4 -1 7l28 23q14 0 54.5 -1.5t113.5 -3.5q53 -1 95 -2t74 0q6 0 15.5 1.5t14.5 1.5q10 0 20 -8q6 -13 6 -28zM361 699h-7v-8h7v8zM265 713q-6 6 -15 6q-11 0 -18 -6l6 -6h15
q9 0 12 6zM287 630v-5l6 5h-6zM354 423q-9 6 -10 6q-8 0 -8 -9q0 -6 6 -8zM320 346q1 1 -13 1q-7 0 -9 -6q3 -6 13 -6h3q6 7 6 9v2zM269 382h-9v-8h9v8zM282 308h-2l-9 5l-5 -5q2 -6 11 -6h5v6zM276 215h-5l5 -6v6zM243 155q-3 5 -8 5t-10.5 -5t-8.5 -6h16q8 0 11 6z"/>
            <glyph glyph-name="eight" unicode="8" horiz-adv-x="487"
                   d="M461 234q-1 -50 -13 -91.5t-40 -71.5q-28 -35 -65 -53t-89 -16q-38 -2 -66.5 1t-44.5 11q-8 1 -16 6.5t-20 14.5q-38 34 -56 78t-21 103v15t1 14q-5 2 -5 9v12q10 5 10 15q0 7 -5 10q1 29 19 59.5t52 69.5q-32 34 -45 78t-14 99q0 14 1.5 35.5t6.5 50.5q6 26 19.5 46.5
t33.5 33.5q31 18 96 39l132 -13q8 0 24 -9q20 -9 36.5 -30.5t28.5 -54.5q13 -28 19 -54.5t5 -55.5q0 -38 -14.5 -76t-45.5 -74q9 -14 17.5 -28t16.5 -28q10 -18 15.5 -33t8.5 -27l11 -9q3 -20 4 -39t2 -36zM298 771h-8v-8h8v8zM349 643q0 2 -6 9l-5 -5q6 -6 9 -6h1zM306 668
q-3 5 -7 5q-7 0 -14 -10h21v5zM388 581h-8v-8h8v8zM338 615q-4 6 -8 6q-6 0 -8 -6q3 -5 11 -5h5v5zM219 734h-8v-8h8v8zM332 573l-5 -6l5 -5l6 5zM232 678q1 1 -13 1q-7 0 -8 -6q1 -3 6 -3q13 0 15 8zM351 523h-8v-8h8v8zM132 705q-3 6 -11 6t-11 -6l6 -5h6q7 0 10 5z
M311 552q-19 3 -22 20q1 -3 1 6v26q0 9 -5 18.5t-13 17t-17.5 12.5t-18.5 5q-22 0 -34 -29q-12 -24 -11 -47q-1 -5 0 -16t3 -28q1 -14 1.5 -24.5t-0.5 -18.5q28 0 29 -9q3 -10 4.5 -15.5t3.5 -7.5q3 0 8 -3t7 -3q6 0 6 8q0 -1 -10 14l4 -1q11 -1 23 14q12 16 21 18
q-6 4 -6 12v15q3 10 9.5 14t16.5 2zM184 620h-5l5 -5v5zM158 626v-6l5 6h-5zM369 398h-5l5 -5v5zM393 359h-8v-8h8v8zM301 425q-6 5 -15 5q-13 0 -17 -10l5 -6h6q13 -1 21 11zM163 520h-5l5 -5v5zM177 496h-8v-8h8v8zM296 369q0 2 -6 8l-5 -10h10zM258 414l-15 -16h4
q3 0 17 11zM92 565h-8v-8h8v8zM237 425q-7 5 -15 5q-14 0 -27 -10l5 -6h7q6 0 30 11zM332 272h-5l5 -6v6zM174 425l-5 -5l5 -6l5 6zM420 169h-8v-8h8v8zM148 432q0 2 -6 9l-5 -6l9 -5h1zM324 243h-7v-8h7v8zM179 383l-5 -6l5 -5l5 5zM158 393h-5l5 -5v5zM340 200h-8v-8h8v8z
M200 356q-2 1 -7 1q-4 0 -11.5 -2.5t-18.5 -8.5l11 -11q4 2 8.5 3.5t8.5 4t6.5 6t2.5 7.5zM137 383l-5 -11h2q2 0 8 5zM290 166q-7 4 -6 10q0 3 2 7.5t4.5 10.5t4.5 12t2 10v10.5t-1 14.5v27q0 3 -1 8.5t-2 12l-2 13t-1 9.5q0 1 1.5 3.5t4 5t4 4.5t1.5 3q0 5 -6 8l-10 -11
q-24 28 -46 28q-14 0 -24.5 -9t-18.5 -26q-6 -14 -9 -28.5t-5 -31.5q2 -56 13 -84.5t31 -26.5q7 -1 16.5 1.5t23.5 8.5q28 11 40 10h-16zM158 309q-8 11 -16 11h-1t-4 -1l16 -16zM322 118l-5 -5l5 -5l5 5zM277 132h-8v-8h8v8zM153 219h-6q-7 0 -10 -6q4 -3 5.5 -4t2.5 -1h2
q6 7 6 9v2zM237 118q1 1 -12 1q-7 0 -9 -6q4 -5 12 -5h4q6 6 6 8zM253 66h-5l5 -6v6zM219 95h-8v-8h8v8zM174 129l-5 5l5 -10v5zM240 42h-8v-8h8v8zM116 166q-5 5 -9 5q-12 0 -18 -10q-1 -1 16 -1q8 0 11 6z"/>
            <glyph glyph-name="nine" unicode="9" horiz-adv-x="490"
                   d="M461 507q-4 9 -5 -74t-3 -252q0 -25 -10 -49t-29 -50q-20 -23 -40 -41t-43 -30q-3 1 -15.5 -1t-34.5 -6q-16 -3 -28.5 -3.5t-23.5 -0.5q-37 0 -64 17q-6 -2 -12 -3q-7 0 -16 3.5t-19 10.5l-24 15t-9 6q-26 30 -38 61.5t-12 65.5q0 7 0.5 13.5t0.5 13.5q11 8 26 13t34 4
q5 0 21.5 -2t47.5 -4q5 -3 13.5 -14t18.5 -29q17 -30 40 -30q15 0 26.5 9t21.5 28q6 12 10 28t4 32q0 23 -7 45l-4 5l16 17q-29 19 -38 20q-11 0 -15 -13q-24 -11 -45 -15.5t-40 -3.5q-22 -1 -39.5 4t-30.5 13q-11 6 -20.5 17t-18.5 27q-8 16 -13.5 30t-7.5 25
q-6 64 -7 97.5t-2 37.5q0 -2 1 10t5 42q4 32 8 56.5t12 43.5q11 28 26 46.5t39 28.5q23 15 57 22t76 7q20 0 36.5 -2t29.5 -7q2 0 17 -7.5t44 -20.5l59 -80q-5 -3 -5 -7t4.5 -8.5t5.5 -3.5l10.5 -114t5.5 -38zM365 691h-9v-8h9v8zM271 704q-5 6 -15 6t-16 -6l5 -5
q-1 -1 16 -1q8 0 10 6zM375 579h-7v-8h7v8zM320 613l-6 6zM417 515h-7v-8h7v8zM341 560l-6 -11l6 6v5zM394 491h-5l5 -6v6zM384 464l-9 6h-2l5 -11zM420 422q-3 6 -10 6t-11 -6l6 -6h7q5 0 8 6zM335 501l-4 -10l2 -1l2 1.5l6 4.5zM179 643h-9v-8h9v8zM312 493h-8v-8h8v8z
M292 523q1 4 1.5 8t0.5 8t-1 12l-2 16t-2 15.5t-1 11.5q0 16 11 30l-7 5l-9 -10l-16 16q-5 16 -14 16q-3 0 -8.5 -2l-11 -4t-12 -4t-10.5 -3q-11 -16 -18.5 -43t-5.5 -68l-1 -42q13 -22 28 -33t34 -9h2q6 4 13.5 9.5t13.5 11t10 11.5t4 13t-3 13q3 4 6.5 8t9.5 3zM384 406
l-6 -11l6 5v6zM363 432q-3 1 -5 1h-3q-22 0 -24 -17q3 -5 11 -5h14q7 2 7 9v12zM170 587h-5l5 -6v6zM320 420q0 7 -8 7t-8 -9v-2l8 -5h2l4.5 6t1.5 3zM288 436q0 7 -10 7h-7l12 -16zM179 536h-9v-8h9v8zM314 379l-5 -5l5 -6l6 6zM176 496h-6l6 -5v5zM123 560q-8 6 -22 6h-18
q-6 0 -3 -1l11 -10q-2 -1 16 -1q11 0 16 6zM335 352q-2 1 -3 1h-3q-8 0 -30 -11l10 -11q4 2 8.5 3.5t8.5 4t6.5 6t2.5 7.5zM392 275h-8v-8h8v8zM261 400l-5 -5l5 -5l6 5zM292 395q-6 -13 -23 -20q-15 -5 -21.5 -8t-7.5 -4q4 -3 10 -3q10 0 24 12q11 8 17 12.5t8 5.5z
M240 422h-3q-2 0 -4 -2t-4 -3.5t-3.5 -3.5l-1.5 -2l5 -5l1.5 1.5l3.5 3.5l4 4t2 4v3zM173 472h-8v-8h8v8zM335 304l-4 -5l4 -5l6 5zM191 438h-10l16 -6zM120 509h-8v-8h8v8zM352 272l-5 -5l5 -5l4 5zM221 387h-9v-8h9v8zM144 450q0 1 -5 9l-6 -11h11v2zM363 230l-9 5
q-8 0 -8 -8q0 -6 6 -8zM170 406q-7 5 -8 5h-2l5 -11zM176 374q-3 6 -11 6q-9 0 -10 -6l5 -6h7q6 0 9 6zM197 320h-6l6 -5v5zM373 144q-6 5 -9 8t-6 3t-6 -5l11 -11h1zM312 131h-8v-8h8v8zM152 174h-8v-8h8v8zM173 147h-8v-8h8v8zM176 107h-2q-1 0 -9 -5l5 -6q6 8 6 9v2z
M155 65v-6l5 6h-5z"/>
            <glyph glyph-name="colon" unicode=":" horiz-adv-x="239"
                   d="M202 416q6 -9 6 -19q0 -9 -6.5 -25.5t-6.5 -23.5q0 -5 1 -9l-135 -10q-23 20 -23 61q0 7 0.5 21.5t0.5 22.5q0 24 -6 42q-3 53 22 70q47 2 141 -5q12 -22 12 -50q0 -12 -3 -37t-3 -38zM208 78q-4 -8 -4 -22v-10v-9q0 -28 -24 -36q-38 -6 -67 -6q-38 0 -64 12
q-14 19 -15 45q-1 24 -1 48q2 30 3 61q3 38 19 59l141 -6q-1 -5 6 -11l-11 -11q17 -3 17 -13q0 -4 -4 -14.5t-4 -17.5q0 -5 2 -9q-2 -5 -2 -10q0 -6 4 -16t4 -15q0 -8 -6 -14zM196 356h-5l-16 -11zM199 187v8h-8v-8h8zM99 182q-5 3 -16 -11q1 0 4 5l6 -5q7 6 6 11zM142 78
h-11l-5 -5zM156 18v8h-9v-8h9z"/>
            <glyph glyph-name="semicolon" unicode=";" horiz-adv-x="228"
                   d="M207 455q-6 -16 -6 -35q0 -8 1 -23t1 -22q0 -22 -7 -40q-23 -4 -47 -5q-16 -1 -45 0h-50q-27 9 -18 36q8 31 -4 40q7 7 7 15l-6 22q-3 14 5 23q-6 12 -6 30t6 30q20 26 65 20q53 -8 71 2q24 -4 29 -29q0 -23 1 -45q0 -12 3 -19zM207 145l-11 -158q-11 -9 -22 -37
q-10 -25 -27 -34q-3 -21 -21 -48q-28 -44 -28 -45q-7 -4 -18 -5q-8 -1 -21 -1q-15 1 -21 1q-8 15 -8 30q0 20 13 41q12 9 22 34.5t22 35.5q1 16 -9 27q-3 3 -24 17h-5q-1 1 -1 3q0 3 5 7q6 5 7 7q-7 6 -11 5l-6 -5l-11 135q11 7 11 18q0 4 -2 13.5t-2 13.5q0 11 15 15
l136 -5q9 -9 11 -32q1 -25 6 -33zM196 499q-16 -3 -44 -17q15 6 44 17zM122 183v8h-8v-8h8zM114 134l-11 -11z"/>
            <glyph glyph-name="less" unicode="&#x3c;" horiz-adv-x="704"
                   d="M624 638q19 -6 25 -17.5t5.5 -26t-4 -30.5t-3.5 -31q-54 -27 -111 -50t-114.5 -46t-114 -48t-110.5 -56q0 -11 6.5 -16.5t15.5 -10t18.5 -8t15.5 -9.5q88 -26 168.5 -63.5t164.5 -75.5q10 -2 21.5 -4t21.5 -6t16.5 -12t6.5 -23q0 -10 -0.5 -22t-2.5 -23.5t-6.5 -21.5
t-12.5 -16q-151 63 -302.5 125t-302.5 125q-17 21 -18 48t7 52q8 16 20 24t25 12t25.5 7.5t23.5 11.5q133 46 260 103.5t256 107.5z"/>
            <glyph glyph-name="equal" unicode="=" horiz-adv-x="757"
                   d="M61 400q0 10 -3 20.5t-5.5 21t-2.5 20.5t6 21l38 16l594 -5q15 -6 17 -16t-1 -21.5t-6 -23.5t1 -22l-16 -17zM666 155q-71 2 -146 5.5t-151 6t-151 1.5t-146 -7q-17 6 -20 16t-0.5 21t5.5 21.5t-1 19.5l16 22l594 5q8 -4 18.5 -6.5t14.5 -15.5q-2 -15 -0.5 -29t0.5 -26
t-7.5 -21t-25.5 -13z"/>
            <glyph glyph-name="greater" unicode="&#x3e;" horiz-adv-x="711"
                   d="M503 350q-109 42 -216.5 84t-216.5 88q-17 29 -19 57t19 54q69 -9 128 -50q38 -13 77 -28.5t73 -32.5l322 -128q14 -11 18.5 -23t4 -26.5t-3.5 -30t-3 -31.5q-54 -29 -109 -53t-118 -41q-42 -26 -87 -46.5t-91 -37.5q-27 -6 -52.5 -18t-51 -24.5t-52 -22.5t-55.5 -12
q-15 10 -17 22t1 24.5t6 24.5t-1 23q97 54 201.5 94t209.5 78q8 13 19 19t20 14q0 4 -2 7.5t-3.5 6t-2 5t1.5 4.5z"/>
            <glyph glyph-name="question" unicode="?" horiz-adv-x="426"
                   d="M406 596q1 -28 0 -46.5t-2 -27.5q-4 -11 -10 -25.5t-15 -33.5t-21.5 -43t-29.5 -53q-1 -2 -4 -13.5t-10 -32.5q-4 -13 -11 -21.5t-18 -15.5q-8 2 -20 0q-5 1 -13 0.5t-17 -1t-17.5 -1.5t-14.5 -1q-25 0 -36.5 8t-10.5 21q-2 25 10 57.5t38 74.5q24 44 35 78t12 58
q1 14 -1.5 26t-7.5 22q-13 27 -36 28h-5t-4 -1q-1 -1 -11 -15.5t-31 -47.5q-24 -37 -57 -37q-27 0 -45.5 4t-31.5 13q-3 12 -5.5 23t-2.5 22q1 38 16.5 71.5t45.5 65.5q25 24 58.5 37.5t74.5 13.5q49 -2 87 -14.5t64 -39.5q45 -55 48 -153h-1zM316 54q-1 -44 -46 -56h-37
t-36 1q-43 4 -55 37q4 19 5 47v13t-0.5 16.5t-0.5 15.5v13q0 21 5.5 38t17.5 29q8 -1 17.5 -2t21.5 0q37 2 40 3q26 0 41.5 -9.5t23.5 -26.5q-9 -14 -8 -35q-1 -7 0.5 -17.5t4 -24.5t4 -24.5t1.5 -17.5h1zM353 622h-6v-6h6v6zM331 511h-6v-6h6v6zM261 170h-10v-9h10v9z
M227 94h-9v-10h9v10z"/>
            <glyph glyph-name="at" unicode="@" horiz-adv-x="1064"
                   d="M796 766q30 -15 59.5 -30.5t56.5 -35.5q37 -29 63 -66t41.5 -80t20.5 -88.5t1 -90.5q-5 -50 -23 -97.5t-48 -87.5t-70.5 -70.5t-89.5 -46.5q-5 -2 -10.5 -1t-10.5 1t-9.5 -2t-7.5 -9q-49 -5 -91.5 5.5t-73.5 49.5q-23 -7 -42 -21.5t-41 -22.5q-21 -8 -46 -11.5t-50.5 -1
t-49 11t-41.5 23.5q-27 24 -41 56t-18 67.5t0.5 72t14.5 68.5l17 22q-4 6 -2 12t6 12t8 12.5t4 13.5q37 52 91 86.5t118 34.5q32 -1 62.5 -11t47.5 -39q13 -2 23.5 4.5t20 14t20 13t24.5 1.5q30 4 50 -16q-1 -9 -1 -19t-10 -15l5 -5q-8 -21 -12 -44t-8.5 -45.5t-11 -44.5
t-17.5 -42q8 -7 6 -13.5t-6.5 -12.5t-7.5 -12t2 -12q-2 -4 -2 -9.5t-1 -10.5t-4 -8.5t-9 -3.5q3 -8 4 -17.5t3 -18.5t6.5 -16.5t13.5 -13.5q28 -8 50.5 -0.5t41.5 22.5t35.5 34.5t32.5 36.5q1 10 5.5 19.5t9.5 18.5t9 18.5t3 20.5q13 23 15.5 45.5t0 46t-7.5 47t-8 48.5
q-25 56 -64.5 94.5t-88.5 62.5t-105.5 35t-115.5 11q-32 -9 -64.5 -16.5t-64 -17.5t-61.5 -24t-57 -35l-82 -77q-14 -36 -34.5 -69t-37.5 -68q2 -19 -2 -42t-15 -41q8 -29 6 -53.5t0 -50.5q8 -5 9.5 -12t1.5 -14.5v-15t5 -13.5q19 -63 58.5 -109t91 -76.5t111 -46
t119.5 -16.5q45 -1 88 6.5t84.5 20.5t80.5 31.5t77 40.5q15 -11 27 -20.5t17 -28.5q-13 -21 -31.5 -36t-39.5 -26t-44 -20t-45 -17q-30 -12 -62 -21.5t-65.5 -15t-68 -4t-67.5 12.5q-7 -4 -15 -3t-16 3t-15.5 3t-14.5 -3q-6 12 -16 15.5t-21.5 3.5t-23.5 -0.5t-22 3.5
q-53 21 -106.5 57t-97 81.5t-72 100t-32.5 113.5q-5 70 4 138.5t33.5 130t64.5 115t97 94.5q79 58 173.5 84t199.5 21q50 -2 102 -6.5t96 -26.5zM615 425q-14 23 -36.5 30.5t-46.5 7.5q-27 0 -45 -12.5t-32 -31.5t-25.5 -41t-23.5 -41l5 -5q-7 -15 -9.5 -33.5t-2 -37.5
t2.5 -38t4 -35q17 -23 39 -33.5t49 -4.5q42 9 63.5 35.5t33.5 61t19.5 71.5t20.5 69q-6 3 -8.5 7.5t-3 10t-1 10.5t-3.5 10zM744 128v8h-8v-8h8z"/>
            <glyph glyph-name="A" unicode="A" horiz-adv-x="539"
                   d="M518 22q-14 -23 -57 -21h-19q-9 10 -20 10q-4 0 -10.5 -2t-12.5 -4t-12 -3.5t-10 -1.5q-24 0 -37 46q-4 16 -8 31t-9 32q-22 6 -45 7q-29 -1 -45.5 -8t-24.5 -23q-4 -15 -7.5 -28t-8.5 -27q-8 -30 -51 -30q-5 0 -12.5 0.5t-16 1t-16.5 1t-13 0.5q-3 0 -10.5 -1t-10.5 -1
q-14 -1 -24.5 8t-18.5 24q2 6 4.5 11.5t5.5 15.5l44 223q1 8 1.5 18.5t0.5 23.5q9 35 19 82.5t20 113.5l35 197q4 22 6.5 36t6.5 20q6 13 18 19t28 6q5 0 13.5 -1t18 -2t17.5 -2t13 -1q17 0 31 6q-1 0 8.5 0.5t29.5 0.5q22 0 33 -13q2 -2 5.5 -11t10.5 -25q0 -5 1 -14.5
t2.5 -20t3 -20.5t1.5 -16q0 -12 -3 -22q16 -17 21 -54q2 -15 3.5 -29.5t5.5 -28.5l46 -274q17 -20 17 -45v-4l-6 -5l9 -11q1 -16 5 -36.5t11 -47.5q6 -30 9.5 -52t4.5 -37zM252 740h-11l11 -6v6zM280 676q0 2 -6 9l-6 -5q7 -6 10 -6h1zM242 696h-2q-7 0 -10 -5l6 -6l11 11
h-5zM344 566h-2q-2 0 -8 -6l5 -5q6 7 6 9zM306 587l-2 1q-2 0 -8 -6l5 -5q6 6 6 9zM274 636q2 1 -27 1q-14 0 -22 -6l11 -11q3 5 25 5q11 0 13 11zM214 658q-3 6 -10 6l-6 -1v-2q-2 -9 12 -9l4 1v5zM279 593q-10 11 -15 11t-6 -6l10 -11h2q1 0 9 6zM268 549l11 -16l6 6z
M347 476h-8v-8h8v8zM220 604q-3 6 -11 6t-11 -6l5 -6h7q7 0 10 6zM323 495h-6l6 -5v5zM252 566q-2 -3 -6.5 -4t-10 -2.5t-10 -4t-5.5 -6.5q5 -5 8 -5q2 0 5 3.5t5.5 7.5t5 7.5t4.5 3.5h4zM195 574h-8v-8h8v8zM421 332l-6 -5l6 -6l5 6zM214 524l-5 9q-6 -1 -6 -8q0 -6 6 -8
l5 5v2zM339 392q-2 5 -7 5q-9 0 -9 -9v-2h6q7 0 10 6zM344 365l-1 -1q-3 0 -9 6l-6 -5q3 -6 12 -6h4v6zM350 332l-6 -5l6 -6l5 6zM319 275q0 2 -1.5 4.5t-2.5 2.5l-9 137l11 11l-12 -1q-6 17 -9 34.5t0 36.5q-9 14 -22 12l-6 -1q-20 -15 -16 -38q-16 -15 -16 -66
q1 -46 -27 -53l-1 -2q0 -3 3 -5t7 -3.5t7.5 -2.5t4.5 -3q-3 -5 -4.5 -10t-1.5 -12q0 -4 1 -10l2 -12t2 -12.5t1 -10.5q0 -19 -21 -26l5 -5q5 6 14 8t22 3h40q4 -1 6 -11v5q1 1 4 4.5t10 9.5q9 8 9 16zM388 272q-3 0 -8 2l-10 4t-9.5 3.5t-7.5 1.5q-4 0 -7.5 -1.5t-6.5 -3.5
q3 -1 8 -2.5t9.5 -3.5t9.5 -3.5t8 -1.5q7 0 14 5zM130 481h-8v-8h8v8zM377 223q-3 10 -15 14.5t-24 8.5q4 -10 16 -14.5t23 -8.5zM203 386l-6 1q-7 0 -10 -6q7 -6 9 -6l2 1q6 6 6 8zM405 140q0 8 -9 8q-7 0 -8 -6l11 -11q6 8 6 9zM366 191q-8 12 -25 12q-8 0 -15 -1.5
t-14 -5.5l5 -5l7 3.5t7 1.5q3 0 8 -1.5t10 -3.5t9.5 -3.5l7.5 -2.5v6zM181 348l-5 -5l11 -11l5 6zM274 223v-5l5 5h-5zM214 289h-6q-14 2 -21 -11q1 -6 9 -6h13q5 3 5 11v6zM179 297h-8v-8h8v8zM317 131v-5l6 5h-6zM286 174q-6 -1 -11.5 2.5t-13.5 10.5q-15 15 -25 15
q-6 -3 -6 -8q0 -6 6 -9q4 4 11 4q8 0 19 -12q10 -12 15 -12q4 0 9 10zM176 242q0 1 -5 9l-6 -6q8 -6 9 -6l2 1v2zM225 175q-4 5 -12 5h-15l16 -16zM230 158l-5 -11l5 6v5zM190 188h-9v-8h9v8zM220 126h-6q-8 0 -11 -6q8 -6 9 -6l2 1l6 8v3zM160 137q-4 5 -11 5h-6l11 -11z
M117 171q0 1 -6 9l-6 -5q7 -6 10 -6h1z"/>
            <glyph glyph-name="B" unicode="B" horiz-adv-x="528"
                   d="M500 220q0 -43 -5.5 -78t-17.5 -59q-11 -24 -38 -42t-72 -30q-1 2 -3 2.5t-4 0.5q-5 0 -10 -1.5t-10 -3.5l-176 1q-3 -2 -19.5 -2.5t-44.5 -1.5h-7q-6 -6 -13 -6q-4 0 -9 1.5t-10 4t-9.5 4t-7.5 1.5q-9 8 -9 19q0 4 2 12.5t2 12.5q0 5 -0.5 7.5t3.5 -1.5l-4 668
q-5 8 -5 17q0 4 1.5 10t3.5 12t3.5 11.5t2.5 9.5l21 12l214 -6l6 -6q5 3 9.5 3.5t10.5 0.5q-3 0 10 -2t41 -7q37 -7 63.5 -24.5t40.5 -43.5q13 -20 17 -51t5 -73q1 -52 -12.5 -92t-42.5 -67q-2 -5 -3 -9q0 -5 4.5 -9t10 -8t10.5 -6.5t7 -2.5q20 -34 31 -78.5t13 -98.5v-1z
M345 745h-11l11 -5v5zM375 693h-8v-8h8v8zM315 726h-8v-8h8v8zM340 701l-3 1q-1 0 -8 -6l5 -6q6 7 6 10v1zM351 641h-16q-6 0 -12 -5q3 -6 10 -6h12q6 7 6 9v2zM225 751q-3 6 -11 6t-11 -6l5 -6h7q7 0 10 6zM373 592q-3 6 -9 6q-5 0 -8 -6l6 -6h2q2 0 9 6zM384 460
q-3 6 -9 6q-5 0 -8 -6l6 -5h2zM324 555q-4 41 -17 69t-33 39q4 6 9 6q3 0 6 -2t6.5 -4t6.5 -4t6 -2h1t3 1l1 2q0 2 -6 9q-2 0 -7.5 1t-11 2.5l-11 3t-9.5 1.5q-12 0 -20 -9q-19 -6 -29 -32q-11 -32 -22 -39q19 -2 17 -33q1 -2 1 -4v-3q-1 -24 -24 -31q27 0 39 -38l-27 -11
l-1 -3q0 -2 6 -8q2 -1 6 -1q3 0 7 1.5t8 4t7.5 4.5t4.5 2h6q29 -1 51 23q5 7 13 20.5t18 32.5zM348 469h-8v-9h8v9zM164 652q-1 6 -11 6q-8 0 -10 -6l5 -5h7q8 0 9 5zM373 438q-3 4 -7.5 5.5t-9.5 1.5t-9.5 -1.5t-6.5 -5.5l5 -5h16q7 0 12 5zM118 682h-8v-8h8v8zM307 466h-3
q-1 0 -8 -6l5 -5q6 7 6 9v2zM293 463h-8v-8h8v8zM460 280h-16l16 -6v6zM359 375h-8v-8h8v8zM176 551q0 9 -14 9q-10 0 -14 -7q7 -5 11 -8t6 -3h1t4 1q6 6 6 8zM312 395q-1 -1 -6 -2t-14 -2q-13 -1 -13 -11v-2q7 -7 11 -7q3 0 6 3.5t5.5 8t5.5 8.5t5 4zM329 356h-5h-4
q-14 0 -13 -9v-2q3 -5 12 -5h4q6 3 6 10v6zM132 537q-2 5 -7 5q-10 0 -10 -9v-1h7q6 0 10 5zM175 488q-7 6 -9 6l-2 -1l6 -11zM378 280q-2 5 -8 5q-7 0 -8 -5q1 -6 11 -6h5v6zM197 455h-5l5 -6v6zM252 398q0 8 -7 8q-10 0 -10 -10l1 -1q8 -6 9 -6h2q5 8 5 9zM225 411
q-3 6 -11 6h-6l17 -17v11zM236 367l-17 11l17 -16v5zM99 493h-6l6 -5v5zM148 438q-7 7 -19 7t-19 -7l5 -5h18q10 0 15 5zM170 406q-3 5 -8 5q-6 0 -9 -5l6 -6h2q2 0 9 6zM203 362q-3 5 -8 5q-6 0 -9 -5l6 -6h2q1 0 9 6zM378 175h-2q-2 0 -9 6l-5 -6q1 -5 11 -5h5v5zM186 334
q-1 6 -7 6q-4 0 -15 -11h13q8 0 9 5zM345 189q1 3 -2 4.5t-7 3l-8 3t-5 4.5q12 14 12 36q-1 19 -1 29v11l6 -6l5 6l-5 5l-6 -5q-7 12 -14.5 22.5t-13.5 21.5q-10 12 -21 19t-22 8l6 5q-7 6 -9 6h-2l5 -17q-3 0 -7 -1.5t-8.5 -4t-8.5 -4t-7 -1.5q-8 0 -13 11l-5 -5
q11 -14 11 -18l1 -4q-6 -6 -9 -22.5t-3 -43.5q-1 -23 -10 -34t-29 -10l6 -5q13 15 23 15t15 -10q0 -10 -11 -18q-7 -5 -11 -9t-5 -6q16 -2 30 -21q17 -24 25 -28h4q24 -1 45 23l33 43l16 -6v3zM137 356l-11 -11l6 -5h7q6 0 9 5zM318 121h-6q-8 0 -11 -6q8 -6 9 -6l2 1
q6 8 6 9v2zM140 293h-8v-8h8v8zM148 247h-6q-4 0 -6.5 -1.5t-3.5 -4.5l8 -6l3 1l5 9v2zM175 148q-2 6 -8 6t-8 -6l5 -5l3 -1zM126 192l-5 -6l5 -5l6 5zM181 88l-6 5l6 -11v6zM140 69h-8v-9h8v9z"/>
            <glyph glyph-name="C" unicode="C" horiz-adv-x="519"
                   d="M493 293q-3 -38 -6.5 -71.5t-11.5 -64.5q-14 -43 -30 -73t-37 -45q-12 -11 -21 -16t-15 -7q-11 -3 -29.5 -7.5t-41.5 -9.5q-1 1 -35 3.5t-100 7.5q-22 13 -37.5 22t-23.5 15q-17 12 -27.5 25t-16.5 28q-1 4 -2.5 11t-3.5 15q-4 15 -8 29t-6 26q-6 154 -8 229t-5 74
q0 15 16 19q6 5 6 11q0 7 -15 5q-1 39 1.5 67t6.5 48q12 64 49 99q5 4 13.5 10.5t22.5 15.5q9 5 17 11t17 11.5t18 9t18 3.5q6 0 11 -1t11 -4q9 5 20 7.5t24 2.5q15 0 47 -6q15 -1 26.5 -2t19.5 -2v-4q0 1 3 -1.5t9 -9.5q14 0 26 -8.5t22 -25.5q14 -20 23.5 -31t14.5 -15
q17 -54 26 -93.5t9 -65.5q0 -17 -3 -33t-8 -30q-8 0 -20.5 -0.5t-29.5 -3.5q-16 -2 -28.5 -3.5t-21.5 -0.5q-27 -1 -45 8t-25 26q6 9 6 20q0 3 -1 8.5l-2 11t-2 11.5t-1 9q0 11 6 19l-2.5 7.5t-3.5 9.5t-3.5 9.5t-1.5 8.5q0 7 5 13q-6 0 -14.5 3.5t-20.5 9.5
q-10 6 -18.5 9.5t-15.5 5.5q-16 -24 -24 -43.5t-9 -36.5q0 -5 0.5 -9t1.5 -8q-5 -11 -6 -24q0 -4 1 -11t2 -14.5l2 -15t1 -11.5q0 -14 -6 -24q6 -3 6 -7q0 -2 -3 -6.5t-2 -8.5q-1 -9 0 -22t2 -32q1 -18 1.5 -32t0.5 -23l1 -55q0 -11 -1.5 -30.5t-4.5 -47.5q10 -8 22.5 -20.5
t30.5 -27.5q3 6 10.5 11.5t20.5 9.5q26 9 26 20q0 4 -2 9.5t-7 12.5q9 16 9 40q0 4 -0.5 11t-1.5 14.5t-1.5 14.5t-0.5 12q0 32 20 51l139 1q21 -18 22 -56zM429 633h-8v-8h8v8zM378 662l16 -16l5 6zM283 752l21 -21l5 5zM368 662q-3 6 -8 6q-6 0 -8 -6l5 -5h2q1 0 9 5z
M394 604l-5 -5l5 -6l5 6zM164 713h-8v-8h8v8zM209 662h-6q-4 1 -6.5 -0.5t-3.5 -4.5q6 -6 8 -6l2 1q6 6 6 8v2zM156 657v-5l5 5h-5zM127 660h-8v-8h8v8zM182 604h-16l11 -11q6 8 6 9zM111 607h-8v-8h8v8zM193 487h-6l6 -5v5zM413 268h-8v-8h8v8zM389 286h-3q-1 0 -2.5 -1.5
t-5.5 -3.5l5 -6q6 7 6 9v2zM434 209h-8v-8h8v8zM119 514q-3 5 -7 5q-7 0 -15 -10h22v5zM121 469h-8v-8h8v8zM405 180q-3 6 -11 6l-5 -1l10 -10zM127 426h-8v-7h8v7zM405 132h-6l6 -5v5zM164 368h-8v-8h8v8zM346 143q-3 6 -11 6q-16 0 -15 -1q3 -1 8 -5.5t10 -4.5t8 5z
M164 289h-8v-8h8v8zM238 156h-8v-8h8v8zM278 95q-4 6 -11 6h-5l-1 -3q0 -8 13 -8h4v5zM151 198q0 2 -6 9l-5 -11h10zM198 132h-5l5 -5v5zM233 77h-8v-8h8v8zM55 244h-11l11 -6v6zM121 146h-8v-8h8v8z"/>
            <glyph glyph-name="D" unicode="D" horiz-adv-x="532"
                   d="M505 378q-5 -10 -6 -25.5t0 -36.5q2 -42 -5 -63q2 -6 3.5 -13t1.5 -14q0 -13 -4 -27t-13 -29v-32q-10 -1 -16 -15q-2 -11 -4 -16.5t-4 -8.5q-27 -42 -64.5 -64.5t-85.5 -21.5q-15 -11 -34 -11q-4 0 -10.5 0.5t-13.5 1t-14 1.5t-10 1q-15 0 -22 -4l-12 12q-8 -7 -21 -10
t-30 -4q-36 1 -52 1q-15 0 -11 1q-5 3 -28 14q-15 7 -16 24q6 2 6 7q0 2 -3 7t-3 8v13q0 9 1 19q1 23 4 28q1 28 0.5 58t-0.5 64q0 10 0.5 26.5t-0.5 38.5v63v89q0 4 1 6.5t0 3.5l-6 297q2 6 7 12t12.5 10.5t15.5 6.5t15 1l244 -8q22 -1 43.5 -10t42.5 -29q22 -17 35 -36.5
t16 -39.5v-6q0 -3 3.5 -7t7.5 -7.5t7.5 -7.5t3.5 -10q0 -5 1 -13l2 -16t2.5 -14.5t1.5 -8.5q-2 -1 1 -53t9 -153h1zM252 751h-5l5 -6v6zM390 603h-7l7 -6v6zM346 647q-4 6 -12 6q-7 0 -11 -6l6 -6h6q7 0 11 6zM247 718q-13 0 -17 5l-5 -5q3 -6 9 -6h13v6zM291 669h-2
q-2 0 -10 -6l7 -5l5 9v2zM412 542q-2 -2 -7 -3t-10.5 -2.5t-10 -4t-6.5 -6.5l5 -5l29 22v-1zM243 669h-4q-7 0 -9 -6l5 -5l12 11h-4zM351 554l-2 -1q-2 0 -9 6l-6 -11q8 -6 9 -6l3 1q6 7 6 9zM405 477q-7 6 -9 6q-7 0 -7 -9q0 -5 6 -8zM213 647q-8 13 -21 13l-5 -2
q3 -7 9 -10t12 -2zM501 351h-7v8h7v-8zM146 677h-8v-8h8v8zM192 603q-3 6 -8 6q-6 0 -9 -6l7 -6h2q1 0 8 6zM482 285l-5 1q-9 0 -12 -6q8 -6 10 -6h2q5 7 5 9v2zM160 592l-7 -6l12 -10l5 5zM346 406h-4l-8 -6l5 -5q7 8 7 9v2zM204 521q-6 6 -17 6q-13 0 -12 -11v-1h16
q8 0 13 6zM153 559q-7 6 -8 6h-2l5 -11zM104 592v-6l5 6h-5zM361 340l-2 1q-8 0 -8 -10v-2h5q6 7 6 9zM162 513h-9v-9h9v9zM323 247q-11 12 -11 29q0 4 1 10l2 12t1.5 11.5t0.5 8.5l-5 6v2v2q0 4 11 18l-11 11q1 2 1.5 5t0.5 7q0 3 -0.5 7.5t-1 10t-0.5 10v7.5q0 23 17 29
q-16 2 -16 10q0 4 2.5 11t2.5 11q0 8 -6 12q6 7 6 15q0 6 -3 15.5t-3 14.5q0 9 5 15q-3 7 -3 21q2 26 3 19q0 14 -5.5 27t-13.5 23.5t-19 16.5t-24 6q-11 0 -20 -5t-15 -15q-3 -19 -5 -28.5l-2 -9.5q0 -13 7 -22q-7 -15 -6 -33q0 -6 1 -15.5t2 -19.5t2 -19.5t2 -14.5v-7
t-1 -6q-7 -10 -7 -27q0 -5 1 -13t2.5 -17.5t2.5 -18t1 -14.5q0 -8 -2 -15.5t-5 -14.5q1 -3 2 -10t3 -17q2 -8 3 -14t1 -11q0 -32 -24 -35q8 -3 12.5 -14t4.5 -27q1 -20 5 -32.5t10 -20t12.5 -10t10.5 -2.5q15 0 33 15l26 24q-4 8 -4 17q0 10 8 25q6 10 9 16l4 8h-6zM197 466
h-3q-1 0 -2.5 -1.5t-4.5 -3.5l5 -6q5 8 5 9v2zM131 521q-3 5 -6 5q-4 0 -11 -5t-10 -6l5 -5q2 -1 3 -1h2q5 0 17 12zM206 425h-9v-8h9v8zM383 214q-1 -2 -5 -3t-9 -1.5t-8.5 -2t-4.5 -4.5l5 -5q4 3 9.5 6.5t12.5 9.5zM390 168q0 8 -9 8q-6 0 -8 -6l10 -11q7 7 7 9zM100 444
q-6 -1 -13 -3.5t-16 -7.5q4 -5 12 -5h5l2 1.5l6 4.5q4 4 4 9v1zM162 365h-9v-8h9v8zM346 149v-6l5 6h-5zM58 409h-9v-9h9v9zM126 324l-5 -11l3 -1l7 6zM189 261h-7v-8h7v8zM286 121h-7l7 -5v5zM320 69h-8v-8h8v8zM182 203q-3 6 -10 6q-5 0 -7 -6l5 -5l2 -1q1 0 10 6z
M148 235q0 12 -18 12q-8 0 -14 -5q1 -1 3.5 -4t5.5 -6t6.5 -5.5t6.5 -2.5h1t4 1q5 7 5 10zM252 121q-2 6 -10 6h-7l12 -11zM208 154q-6 6 -8 6l-3 -1l7 -10zM143 192q-4 6 -12 6q-7 0 -10 -6l5 -5h7q8 0 10 5zM197 123q0 1 -5 9l-10 -11l5 -5l2 -1q1 0 8 6v2zM257 61
q-3 6 -10 6q-12 0 -12 -10v-2h15q6 0 7 6zM165 134q0 3 -2.5 5t-5.5 3.5t-5.5 3t-3.5 3.5l-5 -11l22 -6v2zM124 173h-8v-8h8v8zM143 105q-8 6 -10 6l-2 -1l7 -11z"/>
            <glyph glyph-name="E" unicode="E" horiz-adv-x="495"
                   d="M461 60q-3 -30 -10 -40q-11 -20 -33 -20q-9 0 -21.5 1t-30.5 2q-36 3 -54 3l-53 -1q-9 -1 -22 0t-30 2q-18 2 -31 3t-21 2q-6 0 -15 -1.5t-18.5 -3.5t-18.5 -3.5t-15 -0.5q-19 0 -35 9q-20 11 -20 28q0 4 3.5 11t3.5 11q0 2 -1.5 3.5t-4.5 -0.5q3 174 5.5 259.5l2.5 85.5
q3 1 2.5 24t-2.5 67t-4.5 110.5t-3.5 155.5l39 34l274 -7q3 0 9 1t12.5 2l13 2t10.5 1q27 0 38 -6q22 -14 24 -67q-1 -38 -14 -81l-26 -15l-144 4q-2 0 -5.5 1.5t-5.5 1.5q-13 0 -25 -19q-5 -10 -10 -15t-9 -7q3 -4 3 -12.5t-0.5 -17t0 -17t3.5 -13.5l-5.5 -2t-15.5 -6
q-12 -4 -18 -14q5 -12 21 -12q12 0 23 6q-1 -1 -1 -2v-2q0 -3 2.5 -7t7.5 -10l156 -1q11 -8 16.5 -17t5.5 -17t-6 -15q4 -25 5.5 -38.5t1.5 -17.5q1 -16 -4 -28t-12 -21l-161 -10q-3 -3 -7 -3t-11 3.5t-11 3.5q-7 0 -9 -15l11 -11q1 6 10 6h6q-4 -9 -6 -23q1 -6 1 -13v-12
v-7q-2 1 -3 1h-2q-5 0 -17 -12q1 -3 5 -5.5l8 -5t7 -5t3 -5.5v-2q0 -2 -1 -4l-17 -17q13 -7 22 -16.5t17 -20.5q9 -4 21 -5.5t26 -1.5q7 -1 19.5 0.5t29.5 4t30.5 3.5t21.5 0q7 0 14 -0.5t13 -1.5q4 6 9 6q3 0 6.5 -1.5t6.5 -4t6 -4.5t5 -2q11 -13 10 -32q0 -4 -0.5 -9.5
t-0.5 -11.5t-0.5 -11.5t-0.5 -9.5q0 -12 3 -19h-1zM338 726h-8v-8h8v8zM292 663h-6l6 -6v6zM212 704h-8v-8h8v8zM234 682h-8v-8h8v8zM204 657q-1 6 -8 6t-8 -6l5 -5l3 -1zM193 597l-5 -11h2q1 0 9 6zM155 613h-5l10 -5zM169 589h-9v-8h9v8zM81 665h-8v-8h8v8zM292 422l-6 -6
l6 -5l5 5zM166 520l-6 -5l6 -6l5 6zM259 416h-5l5 -5v5zM139 528q0 2 -6 9l-5 -6q7 -6 9 -6l2 1v2zM171 477l-5 -6l5 -5l6 5zM150 487l-3 1q-2 0 -8 -6l5 -5q6 6 6 9v1zM193 449q-2 1 -7 1q-8 0 -31 -12l11 -11q4 2 8.5 4t8.5 4.5t7 6t3 7.5zM248 362l-5 -6l5 -5l6 5z
M128 477l-11 -17l16 11zM199 389q-8 6 -9 6l-2 -1l11 -11v6zM210 362l-6 -11l2 -1q2 0 9 6zM155 394q-16 14 -33 12l-5 -1q2 -1 5.5 -3t8 -4.5t8.5 -5t7 -2.5q5 0 9 4zM125 375h-8v-8h8v8zM89 378l-5 -11l11 11h-6zM133 312q-6 -1 -6 -8t6 -8h7q6 0 10 5zM295 134h-9v-8h9v8
zM237 148l-5 -11h1q3 0 7.5 -3t6.5 -3q4 0 7 6zM171 208q1 7 -16 11v-1q0 -10 12 -10h4zM204 164h-5l5 -5v5zM136 216h-8v-8h8v8zM106 250q0 8 -10 8q-12 0 -18 -12q4 -5 10 -5h12q6 8 6 9zM232 104q-3 6 -11 6h-6l11 -11zM161 100q0 3 -6 10l-5 -6q6 -6 9 -6l1 1zM147 90
h-8v-8h8v8zM193 38q-7 6 -9 6h-2l6 -11zM87 112h-9v-8h9v8z"/>
            <glyph glyph-name="F" unicode="F" horiz-adv-x="470"
                   d="M460 674q-4 -7 -8.5 -13.5t-9.5 -12t-11.5 -9t-14.5 -3.5q-3 0 -11 1t-17.5 2t-18.5 1.5t-15 0.5h-24q-6 0 -15 1t-17.5 2t-15.5 2t-9 0q-16 1 -33 -9t-32 -29l-1 -31q0 -40 11 -64t34 -36q7 0 18 1t26 3q16 2 26.5 3t18.5 1q27 0 42 -9t22 -26l-1 -47q0 -11 -1 -21
t-4 -20q5 -5 5 -9q0 -2 -1.5 -5.5t-3.5 -7t-3.5 -6.5t-1.5 -5q-18 -10 -44 -10q-6 0 -16.5 0.5t-21.5 2t-21.5 3t-16.5 1.5q-14 -1 -23.5 -3t-17 -6.5t-13.5 -12t-12 -19.5q5 -10 5 -22q0 -8 -1.5 -14.5t-6.5 -14.5l13 -162q-2 -12 -4 -24.5t-4 -25.5q-4 -11 -16 -16.5
t-30 -5.5h-50q-12 2 -25 3.5t-26 2.5q-30 5 -30 33q0 5 1 14t4 20t4.5 19.5t5.5 14.5l-15 661q15 32 32 32q3 0 8.5 -3t8.5 -3q2 0 6 6q139 -3 204.5 -5.5t56.5 -0.5q6 0 14 1t16.5 2l17 2t14.5 1q11 0 20 -3t17 -8q1 -5 6 -13.5t5 -14.5t-5 -10q5 -15 6 -36v-41zM224 751
v-6l5 6h-5zM218 718l-3 -1q-1 0 -2.5 1.5l-4.5 4.5l10 -11v6zM263 674h-7l7 -5v5zM212 674l-4 -5l4 -6l6 6zM190 652q-4 4 -11 7t-15 6l-5 -2q13 -14 25 -14q5 0 6 3zM164 607q0 7 -8 7q-10 0 -10 -9l1 -2q8 -6 9 -6h3q2 4 3.5 6t1.5 4zM295 439q-4 5 -11 5h-16q1 -1 3 -2.5
t4.5 -3.5t5.5 -3.5t6 -1.5q4 0 8 6zM130 592l-5 -6l12 -11l5 6zM125 559q-7 6 -8 6l-3 -1l6 -10zM174 521q-6 5 -14 5q-14 0 -18 -11q2 -2 4 -3.5t4 -1.5q3 0 6.5 1.5t7 3.5t6 4t4.5 2zM224 439v-6l5 6h-5zM169 463q0 1 -1 2.5t-4 5.5q-6 -1 -6 -8q0 -6 6 -8l5 5v3zM125 504
l-5 -11l10 11h-5zM104 521q-3 3 -7 3q-10 0 -21 -9l6 -5q1 -1 4 -1q4 0 18 12zM208 395v-6l4 6h-4zM181 422q-9 6 -10 6q-7 0 -7 -9q0 -5 5 -8zM224 362l-16 -11l4 -6q1 1 3 2.5t4 3.5l4 4t2 4zM142 422l-5 -5l5 -6l5 6zM159 389l-7 -5l7 -6l5 6zM205 332h-9v-8h9v8zM65 444
h-3q-14 0 -14 -10v-1q1 -1 6 -1q3 0 16 12h-5zM130 362l-5 -6l5 -5l7 5zM128 326h-8v-8h8v8zM98 324l-6 -11l3 -1q1 0 9 6zM120 236q-2 0 -4.5 2t-5.5 4t-5.5 3.5t-3.5 1.5q-4 0 -9 -6l12 -11h6q8 0 10 6zM130 143q-1 6 -7 6q-7 0 -9 -6l6 -6h3z"/>
            <glyph glyph-name="G" unicode="G" horiz-adv-x="522"
                   d="M492 60q0 -10 -3 -18.5t-8.5 -15.5t-13.5 -11.5t-16 -4.5q-10 0 -22.5 3.5t-28.5 9.5q-16 7 -28.5 11.5t-20.5 3.5q-13 0 -24.5 -7t-18.5 -21q-20 -5 -39 -7.5t-37 -1.5q-68 -1 -109.5 26.5t-60.5 89.5q-12 25 -19.5 79.5t-8.5 136.5q1 48 0 84t-2 59.5t-1.5 35.5t0.5 12
q0 17 11 21q-1 8 -1.5 15t-1.5 18q1 55 16 96t42.5 68.5t67.5 42t91 16.5q30 -1 55 -5.5t47 -17.5l4 -2q20 2 41 -14t47 -48q7 -16 13 -38t13 -51q8 -7 8 -20q0 -4 -2 -13t-2 -15q0 -5 1.5 -8.5t3.5 -7.5l-25 -21l-139 5q-6 8 -8.5 16t-1.5 18l1 8l9 11q-11 3 -26 23
q-13 21 -26 21q-3 0 -5.5 -0.5t-5.5 -1.5l-15 16q-14 -7 -11 -27q-15 -15 -21 -34.5t-5 -42.5v-12q5 -4 5 -11q0 -3 -2.5 -10t-2.5 -11q0 -5 4 -10l-4 -6q5 -5 5 -9q0 -3 -2.5 -9t-2.5 -10t4 -9q-9 -7 -9 -15q0 -3 1.5 -7.5t3.5 -9.5t4 -9.5t2 -7.5q0 -7 -6 -14q5 -4 5 -9
q0 -4 -2.5 -10t-2.5 -9q0 -4 5 -10q-2 -8 -3 -34.5t-2 -72.5v-19h-6q-4 0 -6.5 -1t-4.5 -1q22 -40 49.5 -61t56.5 -27l12 11l-22 15q16 9 24 26t8 38v8t-1 8h3q4 0 10 -2t9 -2q6 0 11 9q-9 13 -28 10l-42 48l12 11l-12 10l-5 -5q-5 6 -7.5 12t-2.5 14q0 5 1 15.5t1 15.5
t-0.5 9t-1.5 8l6 5q-6 3 -6 7q0 3 3 7.5t3 7.5l23 15l150 -5q5 6 15 6q11 0 18 -6l12 -37q-4 -98 -6 -143.5t-1 -44.5q-3 -2 11 -150v1zM377 712h-7v-8h7v8zM328 651h-7l12 -5zM276 669h-6v-7h6v7zM253 688l-5 -5l5 -6l5 6zM225 717h-9v-8h9v8zM201 609h-7l7 -6v6zM116 646
l-6 -6l6 -5l5 5zM335 426h-7v-8h7v8zM121 619l-5 -10l21 10h-16zM185 526l-5 9l-7 -6q9 -5 10 -5h2v2zM449 249h-3q-1 0 -8 -5l5 -6q7 8 7 9zM107 585h-7v-8h7v8zM198 490h-9v-8h9v8zM396 270l-5 -10h5v10zM370 291l-5 -5l5 -5l5 5zM140 521h-9v-8h9v8zM292 368h-7v-8h7v8z
M173 466h-2q-1 0 -7 -5h9v5zM433 196l-5 -5l5 -5l5 5zM358 254l7 6q-4 5 -9 5q-6 0 -7 -5l21 -22l5 6zM194 397q-1 3 -4.5 5.5t-8 4t-8 3t-5.5 3.5l21 -21zM370 201q-5 6 -14 6q-8 0 -12 -6l10 -10l1 -1q2 0 4.5 1.5t4.5 4t3.5 4t2.5 1.5zM171 379h-7v-8h7v8zM74 466
q-9 5 -10 5h-2l6 -10zM377 141h-7v-8h7v8zM143 381q-2 1 -3 1h-2q-4 0 -17 -11h16q6 6 6 9v1zM337 164q-5 6 -8 6h-1l5 -11zM189 312h-2q-1 0 -7 6l-7 -11q4 -2 6.5 -3.5t3.5 -1.5h2q5 8 5 9zM328 134q0 3 -7 9l-9 -10l4 -6h3q1 0 9 6v1zM116 344h-6l6 -5v5zM375 74h-5l5 -5
v5zM74 371q-4 6 -12 6t-9 -6l5 -6h6q6 0 10 6zM152 260q-9 6 -24 6q-13 0 -13 -11v-2q0 -1 1 -4q4 -6 16 -6h18t2 1v16zM274 117q-3 5 -9 5h-7l12 -11zM173 212l-5 -5l5 -6l7 6zM206 113q0 1 -5 9l-7 -5q8 -6 10 -6h2v2zM76 241h-8v-8h8v8zM237 53q-7 6 -8 6h-2l4 -11z
M185 101l-5 -5l5 -6l4 6zM74 201l-6 -5l6 -5l5 5zM158 127q-17 -3 -42 -16q4 6 24 6q16 0 18 10z"/>
            <glyph glyph-name="H" unicode="H" horiz-adv-x="529"
                   d="M495 50q-6 -8 -11 -38q-8 -3 -27 -5t-46 -1q-4 0 -10.5 -1t-13.5 -2t-13.5 -2t-11.5 -1q-7 0 -30 13q-5 12 -8.5 33t-3.5 51q-1 48 -0.5 74.5t1.5 30.5q0 3 1 8.5t3 13.5q1 7 1.5 13t0.5 10q0 11 -1.5 23.5t-4.5 28.5q-11 16 -26 24.5t-33 7.5q-10 1 -19 -3.5t-16 -11
t-12.5 -15.5t-6.5 -18l4 -16q-1 1 -3 1h-1q-3 0 -6.5 -2.5t-7 -5.5t-5.5 -6t-3 -4q1 0 3.5 -3t5.5 -6t6.5 -5.5t6.5 -2.5h1q2 0 3 1q-1 -9 0 -33q2 -19 -4 -32q2 -8 3.5 -15.5t2.5 -14.5q-1 -13 -6 -30q2 -9 3.5 -21t1.5 -25t-1.5 -25t-3.5 -21q-8 -9 -16.5 -13t-20.5 -3
q-5 0 -13 0.5t-16.5 2t-17 2.5t-13.5 1q-17 0 -28 -6h-3q-20 0 -31 13q-1 3 -4.5 10t-10.5 20q6 4 6 8q0 3 -3 8.5t-3 8.5t5 8l-3 3q3 87 6 129t3 40q-2 17 -1.5 43t-3.5 60q0 30 -1 54.5t0 41.5q-1 40 1 69t4 54q-2 11 -3.5 25t-0.5 30q-1 14 0.5 34t3.5 46q-10 12 -11 28
q0 3 1 9l2 12t2 11.5t0 9.5q8 12 22 18t36 6q2 0 10 -0.5t23 -1.5q11 -1 19.5 -1t15.5 2l32 -6l14 -21l2 -136q-6 -5 -13.5 -10t-8.5 -12l6 -5q1 2 4 3.5t7 1.5h5q-5 -8 -5 -15q0 -3 0.5 -7t2 -8t2.5 -8t1 -7q0 -8 -6 -14q5 -9 11 -18t12.5 -16t15 -11.5t20.5 -4.5
q4 0 10.5 1t14.5 2t15 2t11 1q7 0 13.5 -1.5t11.5 -3.5l17 16q-6 11 -16 11q-3 0 -7 -1.5t-9 -4t-9.5 -4t-6.5 -1.5q4 6 7.5 14t6.5 20q2 9 3.5 18t4.5 18q-6 8 -9 16.5t-3 17.5q0 13 7 25q-9 68 -9 78q0 21 5 37.5t13 26.5q17 5 34 6h38q4 -3 7.5 -4t8.5 -2q8 -1 18 0
q7 1 11.5 1.5t6.5 0.5q6 0 12 -2t11 -6t8 -9.5t3 -11.5q-2 -116 -4 -200.5t0 -130.5q0 -7 -1.5 -17t-3.5 -25q-1 -14 -1.5 -22.5t0.5 -6.5zM397 609l-5 -6l5 -5l5 5zM381 583q0 1 -6 9l-4 -5q5 -6 8 -6h1zM371 560q-8 6 -11 6l-1 -1l5 -11zM418 522q-4 6 -14 6
q-13 0 -17 -12q5 -5 9 -5q5 0 12 5t10 6zM409 468l-7 -6l7 -5l5 5zM380 506q-2 2 -5 2q-12 0 -21 -13l5 -6zM202 647q-9 5 -10 5h-2l6 -11zM419 416q0 1 -5 8q-6 -2 -6 -8t6 -8l4 5zM378 443h-7v-8h7v8zM392 413q-2 6 -9 6q-6 0 -8 -6l5 -5l3 -1q1 0 9 6zM311 468
q-5 6 -15 6q-8 0 -12 -6l5 -6h12q8 0 10 6zM186 581q-2 6 -9 6q-6 0 -8 -6l5 -5h2q1 0 10 5zM99 663h-2q-2 0 -10 -6l6 -5q6 8 6 9v2zM314 446q-3 1 -6 1h-6q-25 0 -25 -14q0 -1 7 -9q2 -1 4 -1h4q15 0 23 6t12 17h-13zM239 500l-5 -11h2q2 0 10 6zM380 359q-1 6 -7 6
q-5 0 -9 -6l7 -5l2 -1zM71 663h-10l10 -6v6zM213 517h-2q-6 0 -9 -6l6 -5l10 10zM277 489q-3 2 -6 2q-9 0 -26 -19q-17 -18 -33 -15q3 -6 13 -6l4 1q21 7 33.5 17t14.5 20zM155 568h-8v-8h8v8zM333 386l-2.5 2.5t-4 3.5t-4.5 3.5t-4 1.5h-3l12 -16zM181 527q-4 6 -12 6h-5
l10 -11zM349 359q-5 5 -14 5q-15 0 -20 -10q-1 -1 18 -1q11 0 16 6zM427 259h-9v-9h9v9zM371 321q-2 -1 -7 -1q-2 0 -5 1t-6 2.5t-6 2.5t-5 1h-1t-4 -1q-4 -7 -4 -11q0 -2 3 -2t9.5 1.5t8.5 1.5q7 0 10 -6q7 7 7 10v1zM125 549h-11l11 -5v5zM296 378h-7v-8h7v8zM283 397
q-26 17 -34 16q-8 0 -15 -5l5 -6q3 0 7 -2t8.5 -3.5t9 -3.5t7.5 -2q6 0 13 6h-1zM196 473h-3q-1 0 -2.5 -1.5t-4.5 -3.5l4 -6q6 7 6 9v2zM159 506q-4 6 -12 6q-7 0 -10 -6l6 -6h5q7 0 11 6zM397 256l-5 -6l5 -5l5 5zM448 204h-8v-8h8v8zM164 468q-6 5 -11 10.5t-10 5.5
q-6 -8 -8.5 -12.5t-2.5 -3.5q0 -5 5 -6h15q9 0 12 6zM181 442q0 1 -7 9l-5 -5q8 -6 10 -6h2v2zM250 364q-29 20 -36 20q-8 0 -18 -9q2 -9 10 -9q3 0 11.5 4.5t13.5 4.5q10 0 15 -16zM208 408q-3 1 -9.5 2.5t-16.5 4.5q-9 2 -15 3.5t-12 1.5h-4q-1 0 -4 -1q10 -8 21 -12.5
t25 -4.5h9zM364 234q-4 11 -17 11q-10 0 -14 -5q1 0 3.5 -2t6 -4t7 -3.5t5.5 -1.5q4 0 9 5zM354 202h-12l7 -11q5 7 5 9v2zM218 343q-7 6 -20 6q-12 0 -12 -12q4 -5 8 -5q3 0 6.5 1.5t6.5 3.5t6 3.5zM159 370q-6 11 -16 11q-13 0 -18 -11q11 -7 18 -7q4 0 16 7zM371 147h-7
l7 -5v5zM196 299q-3 6 -10 6h-5l15 -11v5zM356 123h-7v-8h7v8zM80 400h-9v-8h9v8zM159 307q0 1 -7 9l-5 -11h12v2zM137 337q-3 2 -5.5 3.5t-5.5 1.5q2 0 -5 -2.5t-22 -7.5h19q7 0 11 1t8 4zM125 294h-4l4 -6v6zM131 261h-6l6 -5v5zM152 229h-9l4 -11q6 8 6 9zM164 191
q-2 6 -11 5h-6l12 -11zM56 283h-7l7 -5v5zM202 109h-6l6 -5v5zM99 198q0 1 -6 9l-6 -5q8 -6 10 -6h2v2zM147 153q-1 5 -6 5q-11 0 -11 -9l1 -2h7q7 0 9 6z"/>
            <glyph glyph-name="I" unicode="I" horiz-adv-x="253"
                   d="M220 51q2 -52 -63 -51q-9 0 -23 1.5t-33 4.5q-39 7 -59 5q-5 4 -7.5 8.5t-2.5 10.5q0 3 1 7l2 8t2 8.5t1 6.5q0 8 -7 15q7 87 11 131t10 36q-5 6 -7.5 41t-4.5 100t-4 160.5t-4 223.5q10 21 31 32q-4 1 16 1h63q21 -1 37.5 -4t30.5 -7q5 -10 8 -20t4 -23
q-1 -8 -2.5 -18.5t-4.5 -25.5q-5 -29 -5 -44q0 -11 1 -26.5t3 -35.5q2 -21 1.5 -37t0.5 -26q0 -10 -0.5 -25t-2.5 -36q-1 -21 -2.5 -35.5t-5.5 -23.5q3 -101 6 -172.5t3 -123.5q0 -6 1 -15t2 -18.5t2.5 -18t1.5 -14.5h-1zM150 522q-1 3 -6 3q-8 0 -20 -8l5 -6q1 -1 2 -1h2
q5 0 17 12zM118 446q-5 -1 -11.5 -3.5t-15.5 -7.5q2 -6 12 -5h4l1.5 1.5t5.5 4.5q4 4 4 9v1zM74 403h-11l11 -6v6zM146 321h-7l7 -5v5zM161 234q-10 11 -15 11q-3 0 -7 -6l11 -10l2 -1q2 0 9 6zM72 318h-9v-8h9v8zM175 155h-8v-8h8v8z"/>
            <glyph glyph-name="J" unicode="J" horiz-adv-x="489"
                   d="M458 734q0 -12 -3 -22.5t-11 -23.5q5 -99 6.5 -176.5t1.5 -131.5q0 -53 -0.5 -83t2.5 -36q0 -22 -3 -38.5t-10 -29.5q6 -7 7 -19q0 2 -11 -45q-6 -22 -19.5 -42.5t-37.5 -40.5q-21 -17 -42 -26.5t-46 -8.5q-16 0 -21 -10q2 -1 -9.5 -1h-38.5q-10 0 -19 2.5t-19 8.5
q-8 5 -34 9q-15 3 -24 4.5t-12 2.5q-15 5 -28 14t-24 25q-8 15 -17 29.5t-19 28.5l-18 161l5 5q-6 7 -7 20q1 40 75 40q9 0 19.5 -0.5t23.5 -1.5q17 -2 27.5 -3t15.5 -3q19 -9 18 -40v-8t-1 -17q-2 -16 0 -25q-6 -7 -6 -18q0 -3 2 -9l4.5 -13.5t4 -15t0.5 -13.5
q5 -5 10 -10.5t10.5 -10.5t11.5 -8t11 -3q9 0 16.5 6t13.5 16q12 25 24 31q-12 8 -12 26q0 7 1.5 14t5.5 14l3 -1q-1 0 2 3t10 8v3q0 -2 -10 14q-6 -6 -7 -6h-4l-1 39q0 11 1.5 26.5t2.5 36.5q1 20 1.5 35t1.5 24q0 9 -1 20.5t-2 27.5q-2 16 -3 27.5t-1 20.5q0 5 1 17.5
t2 31.5q2 17 3 28t2 15l-12 133q-1 8 3.5 14.5t12 11.5t16 8.5t15.5 3.5q4 0 10 -1t10 -1h12t16.5 1t16.5 2t13 1q17 0 29 -4t19.5 -11.5t10.5 -20t3 -30.5v-1zM389 692l-6 -11h6v11zM313 654h-4l4 -5v5zM346 595h-12l12 -5v5zM311 555h-8v-8h8v8zM334 515l-4 -6l4 -5l7 5z
M351 376l-5 5l5 -11v6zM341 354q-3 3 -6 4.5t-8 1.5q-9 0 -14 -6l5 -5q-1 -1 14 -1q5 0 9 6zM420 199h-10l10 -6v6zM343 260h-9v-8h9v8zM351 199q-2 6 -10 6t-11 -6q1 -6 8 -6h13v6zM313 199q-3 5 -7 5q-7 0 -9 -5l6 -6h2q2 0 8 6zM292 177l-5 1q-9 0 -12 -6q8 -6 10 -6l2 1
q5 7 5 8v2zM354 105h-8v-8h8v8zM313 113q-6 6 -8 6h-2l6 -11zM287 97q-3 6 -11 6l-5 -1l11 -10zM290 57h-8v-8h8v8zM118 212h-9v-8h9v8zM152 129l7 -5l21 21zM223 65h-6l6 -5v5zM125 167h-11q-8 0 -10 -6q4 -5 13 -5h4l5 8zM185 102l-4 1h-3q-7 0 -10 -6l12 -11q6 3 6 11z
M100 113l-6 -5l6 -6l4 6z"/>
            <glyph glyph-name="K" unicode="K" horiz-adv-x="559"
                   d="M531 32q0 -10 -3 -19q-10 -9 -23 -9q-3 0 -7 0.5t-8.5 1l-9 1t-7.5 0.5q-10 0 -20 -5q-5 2 -10 3l-10 2q-8 1 -20 0q-8 -1 -14 -1q-4 0 -7 -1q-37 1 -49 24q-3 8 -7.5 24t-11.5 40q-7 25 -12.5 42.5t-10.5 28.5q-6 8 -10 16t-9 17q-12 20 -12 36q0 4 0.5 9t3.5 9
q-1 1 -8 5l-21 12q-16 10 -31 10l-16 -16q16 -9 15 -26q0 -3 -0.5 -8t-1.5 -11t-2 -11.5t-1 -8.5q0 -10 6 -16q-6 -10 -6 -18q0 -4 1 -9.5t2.5 -11.5t3 -11.5t1.5 -8.5t-0.5 -6t-1.5 -6h-2q2 0 -14 -11q16 -6 17 -31q-1 -25 -0.5 -36t-0.5 -9l-17 -16q-5 0 -15.5 -1
t-26.5 -3q-12 -2 -22.5 -2.5t-18.5 -1.5q-25 0 -43 6.5t-30 17.5q-2 9 -3 18t-1 19q0 7 1.5 18.5t3.5 26.5q3 33 8 49q-2 89 -3 156.5t-2 112.5t-2 66.5t-2 17.5q-1 5 -0.5 14.5t2.5 23.5q1 14 2 22t0 6q-3 81 -7.5 122t-2.5 45q0 40 22 53q5 0 16 0.5t28 2.5q12 3 22.5 3.5
t18.5 0.5q47 1 72 -23q1 -4 1.5 -7.5t0.5 -7.5t-1 -10.5t-3 -14t-3 -14.5t-1 -11q0 -12 6 -22h-2q2 0 -14 -11l8 -8t8 -3q2 -4 2 -6q0 -5 -7 -9q-9 -4 -11 -6l11 -11l-11 -11q10 -4 18 -25q4 -11 8.5 -16.5t11.5 -7.5v-5h-5q-9 -2 -11 5q-6 -3 -6 -12v-4q7 -10 27 -22
q13 7 12 21l-1 6l-5 6q1 -1 2 -1h2q4 0 17 12q-1 2 -1.5 4.5t-0.5 4.5q0 5 3 12t6.5 15t6.5 15.5t3 13.5l6 -1q14 -1 21 11l-12 10q5 7 10 20t10 33q6 20 11 33.5t10 19.5q16 26 47 25h8q3 -1 5 -1t3 -1q5 0 12 1t15 1.5t15.5 0.5h11.5q21 0 36 -5.5t23 -18.5
q-9 -25 -32 -78l-67 -130q-22 -48 -37 -84.5t-17 -59.5l62 -145q1 -3 3.5 -5.5t4.5 -8.5t4 -13t5 -14.5t6.5 -13.5t8.5 -10q-1 -3 -1 -4v-4q0 -16 16 -30q3 -12 11 -29t22 -41q13 -22 18.5 -40.5t6.5 -32.5zM426 652h-6l6 -5v5zM388 571l-6 5l6 -11v6zM361 582q-4 5 -9 5
q-4 0 -8 -5l6 -6h1q3 0 10 6zM295 587h-5l5 -5v5zM307 540q0 2 -6 9l-11 -11q3 2 11 -5l5 5zM347 487h-8v-8h8v8zM160 654q0 1 -1.5 3t-3.5 6l-6 -6q4 -2 5.5 -3.5t2.5 -1.5h3v2zM301 516q-3 6 -11 6h-5q-6 -3 -6 -8q0 -9 8 -9q2 0 4 1.5t4 4t3.5 4t2.5 1.5zM268 538
q-6 6 -8 6h-2l5 -11zM182 614v-5l5 5h-5zM203 576q0 1 -1.5 2.5l-3.5 3.5t-4.5 3.5t-3.5 1.5q-9 0 -9 -8q0 -7 6 -8h5q10 -2 11 5zM155 619q-11 11 -15 11t-7 -5l12 -7.5l4 -2.5q3 0 6 4zM263 500q-2 6 -7 6q-10 0 -10 -9l1 -2h4q8 0 12 5zM323 446q-6 2 -11 3t-10 1
q-25 0 -28 -20q5 -3 11 -3q3 0 7.5 3t9.5 6.5t9.5 6.5t8.5 3h3zM149 582h-2q-1 0 -9 -6l6 -5l6 8zM268 462q-25 4 -41.5 11.5t-23.5 21.5l-5 -16q11 -4 17 -6.5l6 -2.5q12 -8 15 -19h10q8 0 14 3t8 8zM317 392q2 1 -4 1h-18q-10 0 -10 -12q0 -6 8 -6h10t4.5 0.5t2 1.5t2.5 4
q5 5 5 8v3zM187 527q-3 -3 -6.5 -3.5t-7.5 -0.5q-28 0 -29 -1q4 -11 22 -11h10q0 1 2 2.5t4 3.5t3.5 4t1.5 4v2zM117 565l-17 6l17 -11v5zM187 489q-1 6 -8 6t-8 -6l5 -5h2q1 0 9 5zM404 262q-8 6 -9 6q-8 0 -8 -9q0 -7 6 -8zM263 392q-7 9 -27 22q6 -3 6 -9q0 -5 -6 -8
q12 -8 20 -8q3 0 7 3zM279 370l-11 -11l6 -5l11 11zM174 470h-9v-8h9v8zM333 311q-1 5 -8 5q-5 0 -8 -5l6 -6h1q3 0 9 6zM220 446q-6 12 -12 12q-2 0 -6 -3t-8 -7t-8 -7t-7 -3q-4 0 -8 3l-2.5 -2.5l-3.5 -3.5t-3.5 -4.5t-1.5 -4.5v-2l16 4l16 4q20 5 28 14zM307 319
q0 9 -12 9q-8 0 -10 -7l16 -10q6 6 6 8zM366 247q0 3 -5 9l-6 -5q7 -6 8 -6l3 1v1zM141 476h-8v-8h8v8zM90 522l-6 -6l6 -5l5 5zM312 283l-6 6l6 -11v5zM220 381l-4.5 4.5t-3.5 1.5q-13 0 -14 -17q2 -1 3 -1h1q5 0 18 12zM193 403q-6 6 -16 6q-12 0 -12 -10q0 -7 9 -7h13
q6 7 6 8v3zM388 197h-13q-7 0 -9 -6q4 -5 9 -5h7q6 8 6 9v2zM236 350q0 3 -6 9q3 1 -4 1h-23q-15 0 -16 -11q10 -7 24 -7q15 0 25 7v1zM252 319q0 8 -7 8q-5 0 -15 -11q3 -5 10 -5h7q5 6 5 8zM398 170h-1q-3 0 -9 -6l5 -5l6 8zM285 278q-3 6 -8 6q-6 0 -9 -6l6 -5l1 -1
q2 0 10 6zM301 256l-6 -5l6 -5l5 5zM179 378h-8v-8h8v8zM144 408h-6l6 -5v5zM111 430q-4 5 -9 5q-12 0 -18 -11h16q8 0 11 6zM182 327v-6l5 6h-5zM165 349q-1 5 -8 5q-5 0 -8 -5l6 -6h1q3 0 9 6zM215 287q0 8 -12 8q-11 0 -11 -10q0 -7 10 -7h7q6 8 6 9zM396 102h-8v-8h8v8z
M100 376v-6l6 6h-6zM165 321q-4 -2 -8.5 -4t-8.5 -4t-6.5 -5.5t-3.5 -7.5q2 9 15 10q14 2 12 8v3zM111 332l-1 1q-3 0 -10 -6l6 -6q6 8 6 9zM187 273q-17 6 -26 6q-10 0 -23 -6v-5q0 -9 6 -12q6 14 20 14q20 1 23 3zM171 209q0 3 -6 9l-5 -5q7 -6 8 -6l3 1v1zM133 235h-5
l5 -6v6zM179 183h-8v-8h8v8zM152 199h-8v-8h8v8zM141 118h-8v-8h8v8z"/>
            <glyph glyph-name="L" unicode="L" horiz-adv-x="474"
                   d="M466 45q0 -22 -14 -32.5t-40 -10.5q-7 0 -17 1t-24 4q-13 3 -24 4.5t-19 -0.5l-228 -9q-3 5 -8 5q-3 0 -9 -3.5t-9 -3.5t-12.5 8.5t-28.5 24.5q4 77 6.5 134.5t0.5 88.5q1 16 2 28.5t5 21.5q-2 48 -3 92.5t-1.5 85.5t-0.5 79t-2 73q0 10 -0.5 24.5t-2.5 35.5
q-1 20 -1.5 35t0.5 24q-2 27 32 44q5 1 10 1h11q9 -1 22.5 -1t31.5 -2q19 -2 32.5 -2.5t22.5 -0.5q17 0 22 -19q1 -2 1 -31q0 -13 6 -22q-5 -35 -7.5 -60t-2.5 -40q1 -11 1.5 -21.5t1.5 -19.5l-8 -11l8 -295q-5 -6 -5 -12q0 -5 3 -13t3 -12q0 -8 -6 -12q6 -7 6 -19t-6 -20
q15 -17 30 -25.5t30 -6.5l137 11q7 0 15.5 -3t16.5 -7.5t14 -10.5t8 -12q-6 -12 -6 -29q0 -5 0.5 -13t1.5 -16.5t2.5 -16.5t1.5 -13zM302 155v8h9v-8h-9zM169 523h-9v-8h9v8zM144 499h-5l5 -6v6zM166 428h-6l6 -6v6zM141 420h-8v-9h8v9zM111 428q-2 3 -7 3q-4 0 -9 -2
t-11 -7l5 -5q2 -1 3 -1h2q5 0 17 12zM185 338h-8v-9h8v9zM141 278h-8v-9h8v9zM78 351q3 1 -1 1h-14q-9 0 -12 -6l6 -6h4q2 0 6.5 3t10.5 8zM286 100l-5 -5l5 -6l6 6zM188 160h-6l6 -5v5zM106 237l-6 -11l2 -1q2 0 9 6zM169 168h-9v-8h9v8zM215 106q0 5 -7 5q-10 0 -10 -9
l1 -2h16v6zM128 144q-2 0 -4.5 1.5t-5.5 3.5t-5.5 4t-4.5 2q-4 0 -8 -6l11 -11h5q9 0 12 6zM133 56h-5l5 -5v5z"/>
            <glyph glyph-name="M" unicode="M" horiz-adv-x="679"
                   d="M645 753q-1 -12 -2.5 -32.5t-4.5 -48.5q-3 -27 -5 -47t-1 -34q0 -17 1.5 -31.5t3.5 -28.5q-9 -5 -9 -12q0 -5 3 -9t14 -8l-2 -414q-2 -4 -3 -7.5t-2 -8.5t0 -15q1 -6 1 -10t1 -6q0 -30 -28 -36q-2 -1 -14.5 -2t-33.5 0q-6 0 -10.5 -0.5t-8.5 -1.5q-8 5 -35 5
q-16 0 -26 17q3 14 5 29.5t2 30.5q-1 10 -1.5 25t-3.5 34q-1 20 -2 34.5t0 24.5q-1 17 0.5 32t5.5 30h3q1 0 2.5 -1.5t5.5 -3.5l11 11q-1 8 -8 12.5t-20 3.5l22 22h-3q-17 -1 -18.5 22.5t-18.5 21.5h-3q-5 -3 -10.5 -10.5t-11.5 -15t-12 -14.5t-10 -10q6 -5 8 -5h3l5 5
q-2 -8 -4 -15.5t-4 -15.5q-3 -10 -6 -16.5t-8 -12.5q3 -7 4 -15q0 -5 -1.5 -13t-3.5 -16.5t-3.5 -16t-1.5 -12.5q0 -4 1 -11t1 -11q0 -13 -4.5 -25t-13.5 -22q3 -6 4 -18q-1 -15 -4.5 -27.5t-12.5 -25.5q-17 -28 -45 -28q-4 0 -8 3l-8 6t-7 6t-6 3h-2t-2 -2
q-8 31 -14.5 61.5t-11.5 62.5q-7 37 -11 67.5t-8 55.5h2q-1 0 14 11q-7 5 -11 8t-3 3h-2l-6 -7q0 25 -11 45.5t-32 37.5q2 1 -27 1q-17 0 -17 -14q0 1 2.5 -2.5t8.5 -11.5h27q-7 -33 -5 -44h-3q-2 0 -8 6q-11 -15 -11 -14v-3l11 -10l3 4l2 -119q6 -12 6 -33v-16h-3
q1 0 -2 -2.5t-12 -8.5q18 -5 18 -28q0 -2 -0.5 -7l-1.5 -15q-1 -7 -0.5 -12t1.5 -9l-17 -17q-5 1 -9.5 1.5t-9.5 0.5q-6 0 -16 -1.5t-20.5 -3t-20 -2t-16.5 -0.5q-24 0 -36 7.5t-12 21.5q0 5 2 13t2 12q0 9 -6 17q6 2 6 6q0 3 -3 8t-6 7l9 170l3 9q0 70 -1.5 114.5
t-2.5 66.5q1 15 2 25.5t7 16.5l-14 271q6 17 20.5 25.5t35.5 8.5h12t17 -1h30q6 -1 15.5 -1.5t22.5 -2.5q23 -3 40 -2q10 -8 17 -21.5t10 -34.5q5 -16 8 -32.5t7 -31.5h-2q2 0 -14 11l-5 -6q33 -17 36 -64q2 -30 6.5 -49.5t11.5 -28.5q-1 2 -1 -26q0 -12 12 -17h3
q-2 -1 -7 -1q-11 0 -12 6q-6 -1 -6 -8t6 -8q2 -6 7 -9.5t12 -5.5q20 -5 24 -7l17 16l-11 10q1 5 5.5 8.5t10 6.5t10.5 6.5t7 7.5q-12 9 -12 19q0 4 2.5 9.5t4.5 12t4.5 13t2.5 10.5q0 3 -0.5 6t-1.5 6h5q7 -1 14.5 3t7.5 11q0 1 -6 8h-11q7 19 6 27q1 -1 2 -1h2q4 0 18 12
q-5 8 -8 17.5t-3 19.5q0 20 10 48q4 11 8.5 23t8.5 23q10 9 24 13t34 4q2 0 11 -0.5t26 -1.5q11 -1 20 -0.5t15 2.5q13 -3 26 -5t25 -3q27 -10 28 -37zM627 695q-6 6 -13 6q-3 0 -10.5 -6t-20.5 -17q4 12 18 12q21 0 26 5zM550 695q-8 -2 -22 -11q8 2 22 11zM468 684
q5 -6 8 -6t5.5 3t5.5 5.5t5 5.5t3 3zM507 625q0 2 -6 10q-6 -3 -6 -8q0 -6 6 -9l5 6zM566 564q-5 5 -9 8t-6 3q-5 0 -6 -6q12 -12 17 -12h2t2 1v6zM586 539h-9v-8h9v8zM534 558l-11 -11l5 -5q6 1 6 9v3v4zM555 493q-5 -3 -5 -9q0 -8 8 -8q1 0 8 6zM479 564l-6 -6l6 -5l5 5z
M441 588q0 9 -11 9q-8 0 -11 -6l16 -11q6 7 6 8zM506 504q-3 -1 -6 1.5t-6.5 6t-6.5 6t-5 2.5q-4 0 -9 -5q3 0 6.5 -2.5t7 -6t6.5 -6t5 -2.5q3 0 8 6zM416 583h-8v-8h8v8zM507 474q0 8 -8 8q-3 0 -15 -11q3 -6 10 -6h7q6 8 6 9zM468 496q0 8 -7 8q-10 0 -10 -10l1 -1
q7 -6 8 -6h3zM629 331h-8v-8h8v8zM528 449q-4 4 -9 4q-2 0 -5.5 -2.5t-8 -5.5t-8.5 -5.5t-7 -1.5l5 -5q2 2 6.5 3t10 2.5t10 4t6.5 6.5zM435 547q2 1 -4 1h-23q-19 0 -27 -6l16 -11q4 5 22 6q15 2 16 10zM561 389q-3 6 -8 6q-7 0 -8 -6l5 -6h2q2 0 9 6zM441 504
q-14 11 -18 11q-10 0 -10 -9q0 -5 6 -8h12q7 0 10 6zM463 443l-6 -5l6 -5l5 5zM534 356v-5l5 5h-5zM446 449q-2 1 -4.5 2.5t-5 3.5t-5.5 3.5t-4 1.5q-5 0 -8 -6l11 -11h4q9 0 12 6zM206 684q-14 0 -17 5l-5 -5q2 -6 9 -6h13v6zM495 416q-2 1 -4 1h-3q-4 0 -12.5 -1.5
t-12.5 -1.5q-7 0 -12.5 3t-9.5 10l-2 -5q0 -5 4 -8t9 -6.5t9.5 -7t6.5 -6.5q2 -1 4 -1h2q3 0 5.5 3t5 7l5 8t5.5 5zM512 378q-2 3 -5.5 4.5t-8.5 1.5q-10 0 -14 -6l6 -6h12q6 0 10 6zM547 337h-8v-8h8v8zM586 288h-9v-9h9v9zM408 482q-4 -11 -15 -11q-21 0 -23 -11l11 -11h3
q5 -1 9 2t8 8q10 16 12 17zM189 657l-5 -6l5 -5l6 5zM539 307l-5 -6l5 -5l6 5zM424 422q-18 -5 -22 -22l6 -6q4 4 7.5 11zM238 580v-5l6 5h-6zM283 538q0 1 -6 9l-11 -11l5 -5h2q1 0 3 1.5t6 3.5zM189 629h-5l5 -5v5zM577 241l-5 -5l5 -6l6 6zM375 436q0 8 -11 8
q-8 0 -11 -6q1 0 2.5 -1.5t3.5 -4t4.5 -4t4.5 -1.5h2zM135 658q0 3 -6 10l-5 -6q4 -3 5.5 -4.5t2.5 -1.5l3 1v1zM249 536q-7 6 -8 6h-3l6 -11zM277 512q0 8 -7 8q-10 0 -10 -9v-2q8 -6 9 -6l2 1q6 6 6 8zM457 356q-4 20 -17 20q-5 0 -14 -2t-13 -2q-10 0 -16 6l11 -22
l-21 -11q15 -4 24.5 -5.5t13.5 -1.5q24 1 32 18zM156 613l6 -6l5 6h-11zM229 558q0 8 -7 8q-1 0 -6.5 -2t-15.5 -6l17 -16l2 -1q2 0 9 6q1 4 1 6v5zM331 438l-11 -11l6 -5h5q7 -2 11 5zM269 490h-9v-8h9v8zM179 576q0 2 -6 10l-11 -11l5 -6h2q1 0 9 6zM354 403q0 8 -8 8
q-5 0 -15 -11q3 -6 10 -6h7q6 7 6 9zM113 635l-6 -11q17 -10 16 -10q4 0 6 4zM506 241l-5 -5l5 -6l6 6zM244 498q0 6 -7 6q-10 0 -10 -10l1 -1h16v5zM310 443q-9 17 -21 17q-10 0 -24 -11l-10 -8t-11 -8l5 -6h5q9 0 12 6q3 0 7 2t8.5 3.5t8.5 3.5t7 2q7 0 13 -6v5zM370 367
q-1 7 -8 7q-3 0 -7 -2l-9 -4.5l-9 -4.5t-6 -2l11 -10q1 3 5.5 5t8.5 4t8 3.5t6 3.5zM539 187q-2 0 -6.5 1.5t-8.5 4t-8.5 4t-7.5 1.5q-7 0 -13 -6q10 -4 18 -6t14 -2q8 0 12 3zM124 580h-2l-9 -5l5 -6q6 8 6 9v2zM419 279l-17 6l17 -11v5zM244 471q-3 -1 -6 -1.5t-6 -0.5
q-12 0 -30 9q-17 10 -22 9h-2q3 -3 8 -6.5t14 -7.5q15 -8 17 -19h10q8 0 14 2.5t8 8.5zM531 151h-8v-8h8v8zM304 383q-5 12 -17 12q-14 0 -27 -12l11 -11q3 -1 4 -1h2q3 0 7 2l8 4t7.5 3.5t4.5 2.5zM167 525q-14 -3 -20.5 -4l-6.5 -1q-10 0 -16 5l-6 -5q5 -11 19 -11h19l2 2
t4.5 4t4 4t1.5 4zM85 564l-5 5l5 -11v6zM375 301q-2 1 -4 1h-5q-4 0 -9 -1t-11 -3q-8 -4 -12.5 -5.5l-7.5 -2.5l5 -5l9 1q13 -1 21.5 3t13.5 12zM397 263q-3 6 -12 6h-15q-6 -3 -6 -9q0 -8 12 -8q14 0 21 11zM228 411q-12 -6 -12 -13q0 -14 22 -14q8 0 11 5zM266 359
q0 8 -7 8q-10 0 -10 -9v-2q7 -6 9 -6l2 1q6 6 6 8zM200 443q-5 12 -14 12q-12 0 -24 -17l-6 5q-3 1 -4 1v0q-4 0 -17 -11l3 -1.5l1 -0.5q3 0 7 1.5t8.5 3t8.5 2.5t6 1q3 0 4 -1h15q8 0 12 5zM266 324q11 -26 33 -27q10 0 16 10zM402 198l-5 -6l5 -5l6 5zM72 523h-8v-8h8v8z
M348 241q-8 14 -17.5 22t-20.5 11l21 -16l-5 -6q13 -12 17 -12q3 0 5 1zM293 276q0 4 -5 9t-6 5l-5 -11q1 -3 3.5 -4t6.5 -1h3h3v2zM189 383l-11 -11l6 -5l11 11zM173 397q0 14 -16 14q-12 0 -17 -11q7 -13 22 -12l5 1q6 7 6 8zM370 198q-2 3 -4 4t-4 1q-4 0 -10 -5t-10 -6
l6 -5l3 -1h1q4 0 18 12zM334 211h-8v-8h8v8zM373 165q-7 0 -9 -6l6 -5q8 1 12.5 4t3.5 7h-13zM277 258l-6 -6l6 -5l5 5zM75 433h-11l11 -6v6zM135 351l-6 -11l6 5v6zM167 269q-1 5 -8 5t-8 -5l5 -6h2q3 0 9 6zM88 337h-8v-8h8v8zM113 269l-1 -2q0 -5 7 -5q8 0 10 7h-16z
M148 222h-8v-8h8v8zM126 200h-8v-8h8v8zM148 178h-8v-8h8v8z"/>
            <glyph glyph-name="N" unicode="N" horiz-adv-x="540"
                   d="M505 55q-1 -9 -2.5 -18.5t-4.5 -17t-9 -13t-15 -5.5q-9 3 -17 4.5t-18 0.5q-5 0 -13.5 -1t-17.5 -2t-17.5 -1.5t-13.5 -0.5q-20 0 -42 11q-15 23 -21 45t-6 48q-2 4 -9.5 27t-22.5 68q-11 48 -19.5 77t-12.5 36q5 -1 12 -1q36 0 47 23q-2 2 -5 3.5t-8 1.5h-19
q-3 -9 -10 -9q-2 0 -5 1t-6 2.5l-6 3t-5 1.5q-7 0 -11 -10l-7 5q-16 -6 -21 -32q-3 -25 -16 -33q10 -8 10 -18q0 -5 -2.5 -14.5t-2.5 -15.5q0 -5 2.5 -9.5t8.5 -9.5q0 8 0 -16q0 -23 1 -81q-2 -28 -2.5 -50.5t-4.5 -41.5q-9 -7 -23 -10t-32 -4q-39 1 -56.5 1t-14.5 1
q-32 12 -32 48q0 13 6 23l-9 7q2 55 3.5 97.5t2 74t1 52t1.5 31.5q0 16 6 22q-4 32 -5 67t1 76l-1 126l4 7l-10 135q14 32 37 31q7 0 12 -3q-1 -1 13 -1h45q14 0 25.5 1t21.5 4q16 -11 29.5 -29.5t21.5 -44.5q5 -23 11.5 -45t13.5 -44q7 -19 12.5 -35t9.5 -31q-13 12 -17 12
h-2q-1 0 -3 -1l-12 -11q4 -6 10.5 -10.5t16.5 -9.5q15 -8 22 -29q3 -9 12 -13t23 -4h16l10.5 10.5t5.5 11.5q-4 6 -12 6h-4l-6 -7q3 16 4 32.5t1 35.5q1 24 -3 72q-2 23 -3.5 41.5t-1.5 30.5q0 13 1 23.5t2 17.5q1 5 4 8.5t8 5.5l10 4l10 4q14 -6 34 -6q3 0 10 0.5t14.5 1
t14 1t10.5 0.5q21 0 31 -10.5t12 -30.5q-6 -2 -6 -6q0 -1 1 -3t1.5 -4.5t-0.5 -5t-4 -4.5q-1 -110 -1.5 -191.5t-0.5 -133.5v-78t1 -24q-3 -2 -0.5 -64.5t9.5 -186.5h-1zM366 628h-8v-9h8v9zM424 559q-3 6 -10 6q-9 0 -12 -6l12 -11zM375 581q0 8 -5 11q-6 -9 -8.5 -13
t-2.5 -3q0 -6 6 -6q4 0 10 6v5zM213 704h-7v-8h7v8zM462 444l6 -5l6 5h-12zM250 647l-6 5zM431 464q0 8 -13 8q-7 0 -11 -6q1 0 2.5 -2t4 -4t4.5 -3.5t4 -1.5h2q7 8 7 9zM392 482l-6 4.5t-3 1.5h-3l5 -11zM474 395l-6 -11h1q2 0 4.5 1.5t5.5 3.5zM361 502h-7v-9h7v9z
M210 641l-7 6h-4l7 -11zM238 597v-5l6 5h-6zM112 718q-4 6 -13 6q-10 0 -15 -6l6 -6h13q6 0 9 6zM320 499l-6 -6l6 -5l5 5zM210 608q-2 7 -11 7q-8 0 -11 -7l6 -5h4q9 0 12 5zM380 461q-6 -16 -27 -20q-12 -3 -18.5 -6t-9.5 -7q3 -1 5 -1h4q7 0 14.5 2t17.5 6l30 15z
M228 586q-5 6 -9 6t-13 -16q2 -6 8 -6h8q6 3 6 11v5zM172 630q-4 3 -5 4.5t-2 1.5h-3l5 -11zM342 466l-10 -11h4q6 7 6 8v3zM238 545q0 1 -6 9l-4 -6l7 -6l3 1v2zM140 641v-5l6 5h-6zM314 472q-1 5 -7 5q-7 0 -9 -5l5 -6h3q2 0 8 6zM260 526l-10 -11l10 -11l11 11zM322 458
h-8v-8h8v8zM385 389l-10 -11h4q10 0 13 6zM370 406q-5 6 -16 6q-12 0 -12 -10q0 -7 9 -7h13q3 4 4.5 5.5t1.5 2.5v3zM194 570q-1 1 -2 1t-3 1q-12 0 -12 -11q0 -5 7 -7l1.5 1.5l4.5 4.5q4 4 4 8v2zM414 346q-2 18 -27 18t-24 -16l1 -2q9 -7 25 -7q7 0 13 1.5t12 5.5z
M429 313q-1 6 -8 6q-6 0 -7 -6l4 -6h2q2 0 9 6zM216 537q-4 6 -10 6q-3 0 -7 -1.5t-8 -3.5t-7.5 -4t-6.5 -2q-1 -1 18 -1q15 0 21 6zM355 381h-7v-8h7v8zM162 559h-6l6 -5v5zM254 493q-13 12 -17 12q-10 0 -10 -9q0 -7 5 -8q-3 -3 -7 -4t-9 -1q-8 0 -13.5 -1.5t-8.5 -4.5
q3 0 7 -2t8.5 -4t9 -3.5t7.5 -1.5q6 0 12 6l-10 10zM266 462q0 2 -6 10l-28 -22l6 -6q2 3 6 5.5t8 4.5t8 3.5t6 3.5v1zM320 411q-5 5 -8 5t-6.5 -4t-6.5 -8.5l-6 -9t-5 -5.5l4 -5zM216 515q-3 1 -4 1h-2q-3 0 -8 -0.5t-11 -3.5q-8 -4 -12.5 -5.5t-6.5 -2.5l5 -5q1 0 6.5 0.5
t15.5 3.5q13 1 17 12zM440 253h-2q-9 0 -9 -9v-2h7q5 6 5 8zM358 324v-6l6 6h-6zM343 350v3t-1 4q-6 6 -9 6q-1 0 -3 -3.5t-4.5 -7.5t-5.5 -8t-6 -4l6 -5q1 1 5 2.5l8 3t7 4t3 5.5zM292 433q-9 10 -21 10q-6 0 -14 -3.5t-18 -10.5q-14 -11 -21 -17t-8 -6q3 -6 13 -6h5
q8 12 30 19q13 4 22 7.5t12 6.5zM156 521q-7 7 -13 7q-10 0 -19 -13q2 6 7 6q3 0 8.5 -3t7.5 -3q5 0 9 6zM386 282q0 2 -6 9l-10 -11l5 -6h1q3 0 9 6zM310 359q0 8 -8 8q-10 0 -10 -9v-1q8 -6 9 -6h2q7 7 7 8zM407 258l-1.5 1.5t-4.5 5.5q-4 4 -6 4q-10 0 -10 -8q0 -7 7 -8
l4 -1q10 0 11 6zM162 493q-2 6 -9 6q-6 0 -7 -6l4 -5h2q1 0 3.5 1.5t6.5 3.5zM282 376q0 8 -11 8q-9 0 -17 -11q2 -6 10 -6q13 0 12 1q6 6 6 8zM348 313q-9 5 -15 5q-23 0 -30 -22q3 3 9.5 5.5t13 4.5t13 3.5t9.5 3.5zM169 469h-7v-8h7v8zM65 573h-7v-8h7v8zM216 439
q-2 1 -4 1h-4q-7 0 -14 -1.5t-16 -3.5q-11 -3 -18.5 -4.5t-9.5 -1.5q3 -1 9.5 -3t12.5 -3.5l12 -3t10 -1.5q14 0 22 10v11zM364 269q-7 5 -14.5 7.5t-16.5 2.5q-17 0 -30 -10q8 -11 17 -11q4 0 9.5 1.5t12 4t12.5 4t10 1.5zM223 380l-7 9l-6 -5q8 -6 9 -6h3zM397 194
q0 2 -5 9l-7 -5q8 -6 10 -6h1zM244 346q-2 5 -9 5q-6 0 -7 -5l4 -6h2q2 0 10 6zM134 444q-3 6 -9 6q-4 0 -7 -6l6 -5l1 -1q2 0 9 6zM354 214q-4 6 -10 6q-5 0 -8 -6l6 -5l1 -1q3 0 11 6zM288 280q-3 0 -6.5 2t-6.5 5t-5.5 5t-3.5 2q-4 0 -6 -3l21 -17zM407 159l-6 1
q-6 0 -9 -6l7 -6l3 1q6 6 6 8zM172 384q-3 6 -8 6h-3l-5 -1l11 -11zM140 406l-12 -11l6 -6l12 11zM310 236q-3 6 -9 6q-9 0 -9 -12v-2v-3zM355 184h-7v-8h7v8zM190 374q0 3 -0.5 5t-1.5 5q-1 -13 -19 -20q-19 -8 -23 -18l10 -11l12 6t11 7.5t8 10.5t3 15zM320 198h-2
q-1 0 -8 -6l4 -5q6 7 6 8v3zM118 389l-12 -11h5q10 0 13 6zM188 302q-6 6 -7 6l-4 -1l11 -11v6zM385 99l-5 -5l5 -6l7 6zM112 324q5 -21 23 -21q7 0 11 4zM134 214q-3 6 -9 6q-4 0 -7 -6l6 -5l1 -1q2 0 9 6zM84 165h-16l16 -6v6z"/>
            <glyph glyph-name="O" unicode="O" horiz-adv-x="517"
                   d="M487 260q-9 -5 -9 -11q0 -4 3 -12t3 -12q0 -1 -0.5 -3.5t0.5 -5.5q-9 -54 -24 -93.5t-33 -62.5q-28 -33 -65.5 -46.5t-92.5 -12.5q-47 -1 -84 9.5t-62 26.5q-16 12 -31 31t-26 42q-12 24 -19 46.5t-10 41.5q-5 110 -5.5 164t-3.5 57q1 0 2.5 45t8.5 140q3 33 11.5 55
t25.5 40q8 28 25.5 47.5t49.5 31.5q49 23 113 23q57 0 101.5 -17t74.5 -55q-1 -2 -1.5 -3.5t-0.5 -4.5t3 -8t7 -9.5l8 -9t5 -7.5q4 -13 7.5 -30t6.5 -40q4 -53 7.5 -102t5.5 -95zM393 647q0 2 -6 8l-5 -5l8 -6l2 1zM350 671q-1 6 -6 6q-2 0 -4.5 -2t-4.5 -4l-3.5 -3.5
t-2.5 -1.5h21v5zM432 584h-8v-8h8v8zM382 618q-2 6 -8 6t-8 -6q4 -5 9 -5h7v5zM263 737h-8v-8h8v8zM377 576l-6 -5l6 -5l5 5zM313 634l-5 5l5 -10v5zM276 682q-2 4 -5 4l-4 -2.5l-12 -7.5q1 -4 6 -4zM395 526h-8v-8h8v8zM232 679h-8v-8h8v8zM350 560q-4 -1 -8 3l-8 8l-5 -5
q12 -12 17 -12h2t2 1v5zM440 441l-5 9l-6 -6q4 -3 5.5 -4t2.5 -1h3v2zM176 703q-5 6 -13 6t-13 -6q3 -6 10 -6q17 0 16 1v5zM208 625q0 2 -5 9l-6 -5l8 -6l3 1v1zM414 402h-6l6 -5v5zM181 618v-5l6 5h-6zM456 349q-3 6 -11 6h-16q3 -8 19 -8q6 0 8 2zM342 384h-8v-8h8v8z
M453 273h-8v-8h8v8zM134 555q-4 3 -5.5 4.5t-2.5 1.5l-3 -1l6 -10zM150 539q-9 -1 -21 -13v-3q1 2 4.5 3.5t7.5 3t6.5 3t2.5 4.5v2zM340 428q-2 3 -4 4.5t-4 1.5q-3 0 -7.5 -2t-7.5 -2q-9 0 -9 11l5 9q-5 8 -4 17q0 4 1.5 10.5t3 13.5t3.5 13t2 9l5 -5l5 5l-5 5l-5 -5
q-11 11 -11 25q0 4 1 9.5t2 12t2 12.5t1 9q0 10 -5.5 20.5t-14 19t-18.5 14t-21 5.5q-24 -1 -35 -31q-5 -5 -12 -49v-1q0 -4 2.5 -11.5t2.5 -11.5q0 -9 -10 -13q10 -8 10 -21q0 -5 -2 -15t-2 -16q0 -10 4 -16q-6 -3 -6 -7q0 -2 3.5 -6t3.5 -7q0 -4 -6 -7q6 -11 5 -31
q-2 -23 0 -32q-6 -5 -6 -12q0 -5 3 -13.5t3 -12.5q0 -10 -10 -15q-7 6 -11 9t-6 3h-2t-3 -1v-5q8 -6 12 -8l4 -2q5 0 6 4l10 -10v-6q0 -6 -5 -10q5 -6 5 -21v-21q-6 -8 -6 -14q0 -3 2.5 -8t6 -11t6 -11.5t2.5 -9.5l1 -4q9 -19 23 -28.5t34 -9.5h5q3 0 5 1q-5 8 -5 14
q1 4 4.5 10.5t8.5 14t9 16.5t5 18q-2 38 -2 59t-4 31q6 4 6 10q0 4 -2.5 10t-2.5 9q0 6 4 8l-5 6v4q0 10 5 11l-5 6q-1 3 -1 6v7q1 21 7 30.5t19 9.5h3t4 -1zM377 275h-6l6 -5v5zM195 447h-8v-8h8v8zM369 246h-8v-7h8v7zM118 488q0 1 -5 9q-6 -1 -6 -8q0 -5 6 -8l5 6v1z
M385 204h-8v-8h8v8zM176 381v-5l5 5h-5zM324 170l-5 -11l31 11h-26zM366 123l-5 -6l5 -5l5 5zM179 294h-8v-8h8v8zM86 381q-6 6 -8 6l-2 -1l5 -10zM321 136h-8v-8h8v8zM116 331h-8v-8h8v8zM150 297h-2q-9 0 -9 -9v-2h6q5 8 5 9v2zM197 223q-2 -1 -10 5l-6 -11q8 -5 9 -5h2
q6 7 6 9zM287 117q-4 6 -13 6q-8 0 -13 -6l5 -5h12q8 0 9 5zM129 254h-6l6 -5v5zM86 286q-2 6 -10 6t-11 -6l6 -5h4q9 0 11 5zM298 70h-11l11 -6v6zM224 133q-3 -2 -11 5l11 -10v5zM258 99h-8v-8h8v8zM68 257h-8v-8h8v8zM189 136h-8v-8h8v8zM160 170q-4 6 -15 6t-11 -10
q0 -7 8 -7h13q6 8 6 9z"/>
            <glyph glyph-name="P" unicode="P" horiz-adv-x="501"
                   d="M491 563q-3 -4 -5 -28t-8 -70q-3 -24 -13 -45t-31 -43q-16 -19 -36.5 -33t-44.5 -21q-9 -2 -25 -3.5t-42 -1.5q-48 0 -64 -29q-4 -5 -6 -9.5t-5 -8.5l16 -232q1 -17 -34 -39q-12 7 -39 6q-5 0 -14.5 -0.5t-19.5 -1t-19.5 -1.5t-16.5 -1q-26 1 -37.5 13.5t-7.5 38.5l2 280
q1 -1 6 -1q8 0 26 18v3q0 2 -6 8l-26 -6l-1 71q0 19 2 35.5t3 30.5q-4 2 -4 9v13l4 10l-10 238q0 8 7.5 17t22.5 18l244 -3q7 -8 19 -8q5 0 14 1t14 1q14 0 26 -13q14 -12 22 -9q38 -28 56.5 -66t18.5 -93q4 -9 7 -20.5t3 -25.5zM424 582q0 2 -6 10q-5 -3 -5 -8q0 -6 5 -9
l5 6zM281 718l-6 5zM375 664q-17 7 -26 12t-8 4q-20 9 -38 10q-4 -6 -9 -6q-3 0 -10 3.5t-10 3.5q-4 0 -8 -6l21 -11q9 6 22 6q10 0 30 -9q11 -4 18.5 -6.5t13.5 -1.5h4v1zM377 551h-7v-9h7v9zM333 589h-8v-8h8v8zM363 521l-5 -11l1 -1q2 0 4.5 1.5t6.5 4.5zM188 685
q-2 6 -11 6q-12 0 -10 -9v-3h11q9 0 10 6zM358 438h5l17 17zM325 466q-5 1 -11.5 3.5t-16.5 8.5q20 31 20 78q-1 28 -4.5 48.5t-10.5 30.5q-9 13 -34 17q-33 6 -46 16l-7 -10h12q5 -4 5 -11v-6q-4 -11 -12 -11q-2 0 -6 1.5t-7.5 4t-7 4t-6.5 1.5q2 -8 10 -15l9 -9l3 -3
q1 -3 1 -5v-2q0 -8 -11 -32q10 -10 10 -26q0 -3 -0.5 -7.5t-1 -10t-1 -10t-0.5 -8.5q0 -12 4.5 -22.5t12.5 -18.5t18.5 -12.5t23.5 -4.5q-6 -7 -6 -9l1 -2h4q8 0 11 5l-15 11q5 13 15 14q3 0 7 -3.5t9 -7t9.5 -6.5t6.5 -3q8 0 12 12zM377 397h-7v-8h7v8zM193 559
q-1 1 -4 2.5t-7.5 4t-8.5 4.5t-6 2t-6 -2q13 -14 26 -14q5 0 6 3zM118 581q-4 6 -10 6q-4 0 -7 -6l5 -6h1q2 0 11 6zM208 479h-9v-8h9v8zM167 515q-3 6 -9 6t-9 -6l6 -5l2 -1q2 0 10 6zM237 439q-8 0 -10 -6l5 -6l12 11zM254 403q0 8 -6 8q-11 0 -11 -9v-2q8 -6 10 -6l2 1
q5 6 5 8zM133 504l-5 -5l12 -11l5 5zM297 351q-4 6 -14 6q-19 0 -17 -1q-7 -2 -7 -8q0 -7 7 -8h11q15 0 20 11zM212 419h-7v-8h7v8zM183 433q-9 6 -20 6q-14 0 -18 -12l4 -5q4 -1 6 -1h1q4 0 7 1t6 4q6 3 9.5 4.5t4.5 2.5zM128 471q-3 6 -9 6h-3h-5l12 -11zM196 403h-8v-8h8
v8zM227 351h-5v-11l6 8zM172 374q0 2 -5 10q-6 -3 -6 -9q0 -5 6 -8l4 6zM128 416l-5 -11l10 11h-5zM101 433q-2 3 -8 3q-8 0 -20 -9l6 -5q2 -1 3 -1h1q4 0 18 12zM183 329l-6 4.5t-3 1.5q-7 0 -7 -9q0 -7 4 -8zM210 268h-5l5 -5v5zM147 332h-7v-9h7v9zM133 274l-5 -6l5 -5
l7 5zM95 230h-6l6 -5v5zM118 148q-4 1 -10 6t-10 5t-9 -6q2 0 5 -2t5.5 -3.5t5 -3.5t4.5 -2q3 0 4.5 1.5z"/>
            <glyph glyph-name="Q" unicode="Q" horiz-adv-x="505"
                   d="M476 257q-4 -28 -8.5 -54t-8.5 -53q-6 -29 -17 -52t-28 -42q-9 -7 -16.5 -13.5t-16.5 -14.5q-22 -18 -22 -29q0 -4 1.5 -8t5.5 -8q6 -18 48 -29q18 -6 28 -12t9 -13q0 -9 -8 -12.5t-26 -4.5q-9 0 -24.5 1.5t-38.5 5.5q-21 4 -33.5 5.5t-16.5 1.5q-41 0 -75 36
q-37 39 -79 51q-8 14 -26 11q-36 30 -55 55.5t-24 49.5q-11 71 -16 114.5t-5 54.5q0 15 5 26q-5 11 -5 27q0 15 5 26q-4 3 -3 32q-1 44 3 52v38.5t1 28.5q1 47 7 85t18.5 67.5t32 51t46.5 36.5q6 1 19.5 5.5t36.5 9.5q21 6 34.5 9t18.5 3q11 0 26 -2t33 -7q23 -6 37.5 -10
t21.5 -3q35 -19 56.5 -46t37.5 -62q11 -28 16.5 -64.5t4.5 -80.5q0 -16 -1 -37.5t-3 -51.5q-1 -31 -1.5 -52.5t-0.5 -35.5q-1 -25 0.5 -47.5t5.5 -39.5v1zM384 675h-8v-8h8v8zM279 764h-8v-8h8v8zM334 642q0 1 -5 9l-5 -5q6 -6 9 -6h1v2zM292 667q-3 5 -9 5q-10 0 -17 -11
h15q9 0 11 6zM329 609q-1 4 -5.5 6t-9.5 3.5l-10 3t-7 3.5l27 -22zM366 567h-6l6 -6v6zM205 727h-8v-8h8v8zM208 677q-7 2 -11 -5l5 -5l11 10h-5zM418 456h-5l5 -5v5zM474 382h-8v8h8v-8zM337 517h-8v-8h8v8zM213 625q-4 2 -5.5 3.5t-2.5 1.5h-3l6 -11zM382 437q0 2 -6 8
l-5 -10h11v2zM118 698q-3 6 -10 6q-8 0 -11 -6l6 -5h2h3q7 0 10 5zM179 627h-8v-8h8v8zM145 625v-6l5 6h-5zM355 398h-5l5 -5v5zM403 340q-7 6 -19 6t-18 -6l5 -5q-1 -1 18 -1q10 0 14 6zM413 314l-5 -6l5 -5l5 5zM187 498l-6 -5l6 -5l5 5zM384 290h-8v-8h8v8zM150 514h-5
l5 -5v5zM397 256q-3 2 -5 3.5t-3 1.5h-2l5 -11zM318 567l-10 -11q-10 7 -13 27t-8 26l-21 21q-10 8 -20 8q-12 0 -26 -21q-7 -11 -12.5 -16.5t-10.5 -7.5l5 -5q1 2 1 -3v-18q0 -11 -6 -16l-5 5q-5 -7 -5 -9v-1l1 -1q3 0 10 6q3 -3 3.5 -8.5t1.5 -12.5t2 -12.5t3 -8.5
q-3 -7 -3 -16q0 -4 0.5 -9t1.5 -11t2 -11.5t1 -9.5q-1 -27 -23 -33l15 -10q-1 -3 -0.5 -6t2.5 -6q3 -4 3.5 -7t0.5 -5q0 -3 -1.5 -4.5t-4.5 -3.5q3 -8 4.5 -16t1.5 -16q0 -13 -6 -31l6 -6v-5q0 -9 -6 -10q6 -6 6 -12q0 -2 -0.5 -5.5t-2 -6.5t-2.5 -6.5t-1 -5.5q0 -7 6 -12
q-7 -9 -6 -23q-1 -13 5 -26.5t17 -29.5l-27 -10q5 -10 16 -11q4 0 9.5 1.5t11.5 4t12 4t9 1.5q5 5 10 5q4 0 10 -2t9 -2t5 1t3 3l-11 10q9 7 11 30q0 11 4 18.5t12 9.5v6q0 9 -5 10l15 21q-6 0 -10.5 5.5t-10.5 10.5l11 11l1 3q0 6 -12 18l11 10v2q0 -1 -11 14l11 11
q-5 4 -8 8t-3 9q0 3 2 7.5t4 10t3.5 10t1.5 7.5q0 8 -11 16q-1 2 -1 4v5q0 4 2 9t4 11t4 11t2 8q-6 3 -6 6t3 6.5t3 6.5q0 4 -5 7q6 7 6 16q0 3 -1 7.5t-2.5 9.5t-2.5 9.5t-1 6.5q0 12 11 19l5 -5l6 5zM73 559h-8v-8h8v8zM76 524l-2 1q-1 0 -9 -6h11v5zM134 435h-5l5 -5v5z
M345 210q0 1 -6 9l-5 -5l8 -6h3v2zM397 161h-1q-2 0 -9 -5l5 -6q6 7 6 8zM354 185h-9v-8h9v8zM187 351q-5 5 -10 5q-7 0 -12.5 -5t-9.5 -16q3 -1 5 -1h1q8 0 26 17zM318 198l-5 -5l5 -6l6 6zM118 377v-5l6 5h-6zM382 103l-6 -5l6 -6l5 6zM324 156q-9 5 -21 15l15 -21z
M145 303q-14 11 -16 11h-5l15 -16zM318 108q-4 6 -13 6q-8 0 -13 -6l11 -10l2 -1q2 0 5 3t5.5 5t2.5 3zM363 48h-8v-8h8v8zM94 295h-7v-8h7v8zM260 119q-1 5 -8 5q-2 0 -4 -1t-3 -4l5 -5l1 -1q3 0 9 6zM329 40q-4 2 -5.5 3.5t-2.5 1.5h-3l6 -11zM276 82l-5 -5l10 -11l6 5z
M139 219h-5q-7 0 -10 -5l7 -6h3q6 7 6 8zM229 108q-5 6 -13 6q-9 0 -14 -6l6 -5h12q8 0 9 5zM277 42q0 2 -6 8l-11 -10l6 -6h1q4 0 9 6zM334 -17q-3 5 -10 5q-12 0 -11 -8v-2q-1 -1 12 -1q8 0 9 6zM229 66l-5 -10q15 -6 17 -6q7 0 9 6zM160 124q2 7 -5 11l-5 -6l10 -10v5z
M197 87l-5 -10l2 -1q2 0 8 6zM103 166q-4 5 -10 5q-3 0 -22 -10h17q6 0 9 1.5t6 3.5zM224 24q-7 6 -9 6l-2 -1l5 -10zM224 161v8h7v-8h-7z"/>
            <glyph glyph-name="R" unicode="R" horiz-adv-x="546"
                   d="M518 42q0 -16 -7 -29q-12 -11 -29 -12q-4 1 -11 2t-14.5 2t-14.5 2t-11 1q-13 0 -24 -6l-6 5q-5 -5 -12 -5q-3 0 -7.5 1.5t-8.5 3.5l-8 4t-7 3q-28 28 -30 129q1 7 1 18.5t1 25.5q1 16 1 25.5t-1 14.5q1 39 -15 65.5t-51 38.5q-9 -5 -18 -5q-5 0 -14.5 1.5t-14.5 1.5
q-9 0 -13 -3q22 -8 23 -28q0 -4 -1.5 -9.5t-3 -11.5t-2.5 -12.5t-1 -10.5q0 -14 7 -22q-11 -7 -11 -16q0 -3 2 -7.5t4.5 -9.5t4.5 -9.5t2 -7.5q0 -8 -7 -15q2 -16 4 -33t2 -36l-1 -74q-13 -25 -44 -24q-6 0 -14.5 1.5t-18 3t-18 3t-12.5 1.5q-3 0 -8.5 -1.5t-10.5 -3l-10 -3
t-8 -0.5q-9 -1 -16.5 3.5t-13.5 11.5t-9 16.5t-4 19.5q0 13 6 27l-13 8l18 453q-6 3 -6 12q0 17 1 15l3 1q1 0 7 -6q12 14 12 13q0 9 -7 9q-3 0 -8 -2.5t-10 -1.5l-1 191q10 14 30.5 21.5t48.5 7.5q9 0 22.5 -1t30.5 -3.5t30.5 -3t22.5 -0.5q6 0 17 0.5t26 1.5q14 2 25 3
t18 0q58 0 95.5 -13t59.5 -46q10 -16 20.5 -54.5t18.5 -99.5q1 -7 1.5 -14t-0.5 -13q3 -39 -23 -105q-5 -11 -23 -27q-20 -16 -19 -30q-1 -5 5.5 -16.5t18.5 -30.5q13 -18 20 -33.5t7 -28.5q0 -12 -4 -21q5 -7 7.5 -17t4.5 -21q1 -17 0 -44q-1 -21 -1 -31v-11q0 -9 2 -21.5
t7 -28.5q4 -16 6.5 -28.5t2.5 -20.5zM390 688h-5l5 -11v11zM432 636h-9v-8h9v8zM314 699h-6l6 -5v5zM272 696h-8v-8h8v8zM391 563q0 2 -2 5t-4 5t-4 3.5l-2 1.5l-5 -5q1 0 2 -2t3 -4.5t4.5 -4t4.5 -1.5l2 1zM220 721q-6 6 -16 6q-11 0 -17 -6l6 -5q-3 -1 1 -1h14q9 0 12 6z
M368 523l-5 -5l5 -6l6 6zM346 507h-2q-1 0 -3 -1.5t-6 -3.5q1 19 0.5 45t-4.5 58q-2 12 -8 22t-14 17t-18.5 11.5t-21.5 3.5q-38 0 -54 -31q2 -10 3.5 -24t2.5 -33q-1 -28 -0.5 -44.5t0.5 -20.5q7 -42 34 -44q5 0 12.5 2.5t15.5 5t15.5 4.5t11.5 2q12 0 20 -8l6 6l-17 11
q-1 2 -1 3v1q0 5 12 18l16 -17h3q2 0 8 6zM390 430q-5 6 -14 6q-15 0 -19 -11q4 -6 10 -6q2 0 5 1.5t6.5 3.5t6.5 4t5 2zM206 597h-8v-8h8v8zM149 628v-6l5 6h-5zM379 381l-5 -6l5 -5l6 5zM352 414q-2 3 -4.5 4t-5.5 1q-16 0 -17 -16q2 -1 4 -1h1q3 0 6 1.5t6.5 4t6 4.5
t3.5 2zM171 564q0 1 -6 9l-11 -11l6 -6h2q2 0 9 6v2zM124 608h-8v-8h8v8zM319 430q-2 6 -9 6h-13q-5 -2 -16 -4.5t-28 -6.5l6 -6q4 3 12 3q4 0 13.5 -1.5t13.5 -1.5q14 0 21 11zM193 540q-5 5 -12 5q-16 0 -21 -16q2 3 6.5 4t10 1.5t10 1.5t6.5 4zM390 331l-1 1q-3 0 -10 -6
l6 -6q6 8 6 9zM344 356h-8v-8h8v8zM357 326q-6 6 -9 6l-2 -1l11 -11v6zM237 439q0 8 -11 8l-6 -1v-3q0 -13 9 -13h2q6 7 6 9zM209 463q1 8 -5 11q-6 -3 -6 -11t6 -11l5 5v6zM275 381q-2 5 -9 5h-3h-4l11 -11zM154 496q-2 6 -8 6q-7 0 -8 -6l5 -6h2q1 0 9 6zM285 359h-4
q-24 0 -33 -11l11 -11q6 2 14 8t19 14h-7zM352 271q-1 6 -8 6t-8 -6l5 -6h2q1 0 9 6zM209 408l-5 -5l5 -6l6 6zM248 394q0 1 -6 10q-11 -14 -25.5 -22t-34.5 -12q2 -1 4.5 -1.5t5.5 -0.5q5 0 12 2.5t16 6.5q22 14 28 15v2zM181 425q-9 0 -10 -6l5 -5l11 11h-6zM143 441h-11
l11 -5v5zM94 457q-3 6 -8 6q-6 0 -9 -6l6 -5h2zM121 414q-2 5 -9 5h-3h-4l11 -11zM143 359v-6l6 6h-6zM127 381q-5 6 -14 6t-14 -6l6 -6h13q7 0 9 6zM212 290h-8v-8h8v8zM176 293q-5 -3 -5 -8q0 -6 5 -9l17 17h-17zM154 320q-2 3 -5.5 4.5t-8 2.5t-8.5 2t-5 2l22 -16z
M171 260l-17 -11l6 -6q0 2 7 7q4 4 4 7v3zM121 282q-5 6 -16 6t-17 -6l6 -6h16q8 0 11 6zM198 161q-5 6 -16 6q-13 0 -11 -10v-2q3 -5 8 -5q1 0 4 1.5t5.5 3.5l5 4t4.5 2zM124 224h-8v-8h8v8zM94 249h-6l6 -6v6zM97 175h-9v-9h9v9zM116 139h-6l6 -5v5zM121 106h-5l5 -5v5z
"/>
            <glyph glyph-name="S" unicode="S" horiz-adv-x="523"
                   d="M499 201q-2 -26 -8 -50.5t-20 -47.5q-16 -26 -34 -43.5t-40 -22.5q-3 -4 -10.5 -9t-16.5 -12q-22 -15 -94 -17q-20 1 -42 3.5t-44 9.5q-26 5 -46 13t-36 19q-12 9 -27 27.5t-29 43.5q-13 28 -20.5 49t-7.5 38q1 50 22 59q4 -1 7.5 -1h7.5t12.5 0.5t17.5 1t17 1t13 0.5
q45 0 65 -22q1 -29 14.5 -50.5t42.5 -41.5q8 -6 15 -6q5 0 14 3.5t15 3.5q7 0 15 -6q12 9 10 26h5q6 0 16 11q-10 8 -10 18q0 3 1 7t2 8.5t1.5 9t0.5 6.5q1 18 -29.5 46t-87.5 70q1 4 1.5 7t0.5 5q0 19 -32 24q-38 27 -63 52.5t-39 44.5q-21 30 -31.5 62t-7.5 68
q-1 48 14 84.5t52 64.5q31 23 69.5 31.5t90.5 7.5q82 1 136.5 -30t69.5 -96q4 -15 10 -30.5t6 -29.5q-1 -46 -62 -46q-10 0 -21.5 1t-25.5 5q-12 2 -23 5l-22 6l-11 41l5 -5l11 12q-22 14 -42.5 22.5t-42.5 14.5q-8 -3 -17 -11.5t-15 -16.5q-5 1 -11 4t-14 10q-17 14 -24 14
q-8 0 -15 -12q1 -1 8.5 -5t20.5 -11q22 -11 22 -21q0 -2 -0.5 -5t-2.5 -6q1 -13 9.5 -27t24.5 -28q19 -19 30 -32t16 -19l-5 -6l10 -10q1 5 9 5h12l112 -96q4 -1 13 -10q6 -6 17 -31q4 -10 9.5 -17t12.5 -11q10 -25 15 -49.5t3 -51.5q4 -10 4 -24zM283 748h-8v-8h8v8z
M121 661q1 -6 11 -6t14 6h-25zM214 530h-8v-8h8v8zM299 429h-8v-8h8v8zM250 471h-7v-8h7v8zM366 352l-6 5l6 -11v6zM414 288l-6 5zM201 495h-6l6 -5v5zM153 543l-7 -10l7 5v5zM354 330q-4 6 -12 6q-10 0 -14 -6l5 -5h13q7 0 8 5zM107 567h-8v-8h8v8zM217 437l-16 -16l21 16
h-5zM446 181q-15 0 -16 5l-6 -5q3 -6 9 -6q14 0 13 1v5zM358 237h-8v-8h8v8zM366 181q-3 6 -12 6q-7 0 -10 -6q3 -6 9 -6q14 0 13 1v5zM368 83h-8v-8h8v8zM323 96l-5 -5l5 -6l5 6zM302 75q-4 5 -10 5h-2h-4l10 -11zM145 157h-8v-8h8v8zM177 115h-9v-8h9v8zM195 80l-6 -5
l6 -6l6 6z"/>
            <glyph glyph-name="T" unicode="T" horiz-adv-x="510"
                   d="M492 731q-1 4 -2 -13.5t-4 -59.5q-13 -21 -36 -21q-4 0 -11 1t-14.5 2t-14.5 2t-12 0q-22 1 -36.5 -15t-21.5 -50q6 -3 6 -11l-1 -6l-10 -11q5 -7 7.5 -17.5t3.5 -23.5q0 -9 -1.5 -21t-4.5 -25q3 -9 4.5 -20t1.5 -23q0 -3 -1 -9.5l-2 -13t-1.5 -13t0.5 -9.5l9 -329
q-6 -6 -9 -12t-5 -11.5t-3.5 -9.5t-4.5 -5q-4 -3 -13 -3.5t-23 0.5q-6 -1 -14.5 -1.5t-17.5 -1.5t-17 -1h-13q-44 1 -65 21l-1 112q1 23 1.5 41.5t0.5 34.5q3 24 4 33t4 2q-1 65 -3 114t-3.5 83t-2.5 53.5t0 24.5q0 21 6 30q-6 13 -6 30q0 19 6 29q-16 25 -50 31
q-3 -1 -18 0t-44 2l-13 2q-14 6 -22 19t-7 35q1 7 1 17t2 22q2 14 3 23.5t1 15.5q0 13 15 17q22 6 23 7l326 -6q3 0 9.5 1t13.5 2t14 2.5t11 1.5q28 -1 44 -11q5 -14 7.5 -28t3.5 -30zM411 674q-6 6 -11 6q-7 0 -15 -9q-6 -6 -8.5 -9t-3.5 -4q3 11 16 11q17 0 22 5zM318 663
l6 -5q10 8 21 27zM275 712l-5 -5l5 -6l5 6zM302 674q-7 7 -14 7q-3 0 -7.5 -2t-9 -5t-8.5 -5t-7 -2q-7 0 -14 7q4 -16 15 -16q3 0 8.5 2.5t11.5 5.5t11.5 6t9.5 3h2t2 -1zM286 642h-6l6 -6v6zM291 614h-5l11 -5zM226 649q0 1 -1.5 3t-3.5 6l-6 -6q8 -5 9 -5h2v2zM204 631
q-5 11 -17 11q-9 0 -15 -6q2 0 5 -1.5t6.5 -4t6.5 -4t5 -1.5q4 0 9 6zM226 571q-1 6 -8 6t-8 -6l5 -5l2 -1q1 0 9 6zM194 587q-7 6 -9 6q-8 0 -8 -8q0 -6 6 -8zM291 452q-4 3 -5.5 4t-2.5 1h-3l6 -11zM188 528l-5 -11l1 -1q3 0 10 6zM218 492h-8v-8h8v8zM229 357h-8v-8h8v8z
M204 332l-5 -5l5 -5l6 5zM313 175q-15 0 -16 5l-6 -5q1 -6 9 -6q14 0 13 1v5zM226 171q0 1 -1.5 3.5t-3.5 5.5l-6 -5q7 -6 9 -6l2 1v1z"/>
            <glyph glyph-name="U" unicode="U" horiz-adv-x="530"
                   d="M497 727q0 -5 -0.5 -14.5t-1 -19.5t-0.5 -19t3 -14l-2 -365q-3 -9 -3 -18q0 -6 1.5 -16t1.5 -15q0 -10 -5 -21l6 -4l-18 -98q0 -1 -1.5 -4.5t-5.5 -11.5q-19 -33 -38.5 -51t-39.5 -25q-22 -18 -64 -25q-18 -1 -35 -2.5t-34 -3.5q-7 1 -21.5 3t-38.5 5q-19 3 -33.5 6
t-26.5 7q-31 14 -50 38t-32 61q-5 22 -9 55t-3 83q-5 151 -6 230.5t0 90.5q0 22 5 31q-4 9 -5.5 24.5t-0.5 38.5q2 21 -1.5 36t-9.5 25q5 13 8.5 25t7.5 25q5 8 21 11t41 4q23 0 52 -6q5 5 11 5q2 0 5.5 -1t7.5 -2t7.5 -1.5t5.5 -0.5q16 -14 16 -30v-4q0 -2 -1 -4l-4 -5
q2 -10 4 -20.5t1 -21.5q1 -7 0 -18.5t-3 -25.5q-1 -14 -1.5 -25t-0.5 -18q-1 -13 0.5 -23.5t3.5 -18.5q-2 -7 -3 -13.5t-1 -14.5q0 -5 0.5 -13t1.5 -16t2 -15.5t1 -12.5q0 -16 -5 -28q5 -8 5 -16q0 -2 -0.5 -5.5t-1.5 -7.5t-1.5 -8t-0.5 -7q0 -8 3 -15q-1 -10 0 -32
q2 -19 -4 -32q5 -8 5 -16q0 -3 -1 -7.5l-2 -9t-1.5 -9t-0.5 -7.5q0 -6 4 -15q-4 -7 -4 -14q0 -4 2.5 -13t2.5 -14q0 -7 -5 -13q10 -31 15 -37q10 -20 28 -27q0 1 1 1q2 0 4 1q4 0 9.5 -3t11.5 -6.5t11 -6t7 -2.5q10 0 15 16q-3 6 -17 5q2 2 6.5 3.5t10 2.5t10 3.5t6.5 6.5
q-4 3 -6 6.5t-2 8.5q0 3 1.5 8t3 10.5t3 10.5t1.5 8q0 11 -7 18q6 8 6 20q0 3 -1 8.5t-2.5 11t-2.5 11t-1 8.5q0 20 28 21q-17 3 -20 19q-5 28 -6 28q-2 -2 -1 41q-1 13 1 23.5t4 17.5q-2 6 -3.5 15t-2.5 22q1 22 0.5 31.5t0.5 6.5q6 6 6 14q0 3 -1 7t-2.5 8t-2.5 8.5
t-1 6.5q0 6 7 15q-7 3 -7 11q0 17 1 16l11 10l-11 11l5 139q16 8 36 13t44 5q22 -1 43.5 -3.5t43.5 -7.5q2 -16 3.5 -31.5t2.5 -30.5zM395 664q-3 6 -8 6q-7 0 -10 -6l7 -5h1q1 0 3.5 1.5t6.5 3.5zM467 560h-9v-8h9v8zM347 570q0 2 -6 9l-6 -6q7 -5 9 -5h2zM405 461l-6 -6
l6 -5l6 5zM169 659l21 -21l6 5zM352 354q0 8 -6 10l-5 -10q7 -6 8 -6h3v6zM399 295h-2q-1 0 -8 -6l6 -5q2 4 3 5.5t1 2.5v3zM140 549h-9v-8h9v8zM186 498h-6l6 -5v5zM413 271h-8v-8h8v8zM97 571h-9v-8h9v8zM423 238h-7v-8h7v8zM180 423h6l16 16zM437 182h-2q-18 0 -19 6
l-5 -6q3 -6 10 -6q16 0 16 1v5zM147 450h-10l10 -5v5zM344 238h-9v-8h9v8zM202 375q-8 6 -10 6q-7 0 -7 -9q0 -5 5 -8zM105 430q0 3 -5 9l-5 -5q6 -6 8 -6l1 1zM356 182q-2 6 -10 6q-4 0 -7 -1.5t-4 -4.5l6 -5h5q7 0 10 5zM78 391h-5l5 -5v5zM126 332q-4 6 -14 6h-17
q2 -1 8.5 -6t13.5 -5q5 0 9 5zM199 249h-9v-8h9v8zM143 305l-2 1q-2 0 -10 -6l6 -5q6 6 6 8v2zM354 83h-8v-8h8v8zM319 91q-7 6 -8 6l-2 -1l4 -10zM159 241h-2q-10 0 -10 -9v-2h5q7 7 7 9v2zM245 146q0 3 -6 9l-6 -5q8 -6 9 -6l3 1v1zM116 252l-6 -6l6 -5l5 5zM292 75
q-2 6 -8 6h-3l-5 -1l11 -10zM183 126h-8v-8h8v8zM128 158h-7v-8h7v8zM167 121h-8v-8h8v8zM180 80l-5 -5l5 -5l6 5z"/>
            <glyph glyph-name="V" unicode="V" horiz-adv-x="519"
                   d="M497 766q-7 -32 -14 -71t-15.5 -85t-18.5 -99t-23 -114q-9 -13 -14.5 -30t-8.5 -39q1 -26 -2 -43.5t-8 -27.5q-2 -3 -5.5 -4.5t-7 -2t-6 -2t-2.5 -4.5q0 -9 15 -9q-1 -1 -2.5 -9t-4.5 -23q-3 -20 -20 -17l-11 -10l11 -11q6 6 7 5l6 1l-23 -136q-2 -9 -9 -15.5t-20 -13.5
q-10 -4 -20 -5t-22 -1q-15 -1 -48 3q-16 3 -28.5 3.5t-21.5 1.5l-14 12l-44 221q4 4 4 7q0 2 -1.5 4t-4 4.5t-4.5 5t-2 4.5l-20 137l-3 6l-4 8q-5 14 -7.5 28.5t-2.5 30.5v14q-2 6 -5 10.5t-8 8.5l-41 219l-5 30q0 15 4 29q28 12 64 11q15 1 31.5 0t36.5 -5l26 -27v-9
q0 -18 11 -24q-1 -3 -1.5 -5.5t-0.5 -5.5q0 -4 1.5 -9.5t3 -11.5t2.5 -11t1 -9q0 -11 -6 -18l11 -11l16 -141q3 -4 4.5 -10.5t0.5 -16.5q0 -19 6 -27h-2l-14 -11l3.5 -3.5t6 -5.5t6.5 -5.5t5 -2.5q4 0 6 1q0 -3 1.5 -6t4 -5.5t5.5 -5t5 -5.5q3 -1 5 -1h6q10 0 25 9
q12 7 17.5 10.5t6.5 3.5q-4 12 -18 12q-11 0 -21 -7q10 21 16 50.5t9 65.5q1 43 5 71.5t10 45.5q2 19 4 37.5t6 37.5q4 22 13.5 35.5t23.5 19.5q5 -1 10 -1.5t11 -0.5q4 0 12 0.5t17 1.5t17 1.5t13 1.5q41 -1 56 -30zM409 636q-2 -1 -4.5 0.5t-6.5 4.5l-5 -5q3 -6 9 -6h7v6z
M406 595h-8v-8h8v8zM398 522v-5l5 5h-5zM376 549q-2 6 -9 6h-3h-4l12 -11zM344 560q-3 6 -9 6q-4 0 -8 -6l6 -5l1 -1q3 0 10 6zM372 500l-7 -5l7 -5l4 5zM357 465h-8v-8h8v8zM379 427h-7v-8h7v8zM327 463h-10l10 -6v6zM338 414l-5 -6l5 -5l6 5zM185 568h-9v-8h9v8zM135 617
h-8v-8h8v8zM200 476h-8v-8h8v8zM306 371q-5 5 -12 5h-15q-7 -3 -7 -11q0 -12 12 -12q3 0 6.5 2.5t6.5 5.5t5.5 6t3.5 4zM368 287h-8v-8h8v8zM203 430q-3 6 -11 6q-12 0 -11 -9v-2h22v5zM247 381q-3 6 -9 6t-8 -6q4 -5 9 -5h8v5zM269 349l-7 -11h2q1 0 9 5zM317 289
q-7 6 -9 6q-8 0 -8 -8q0 -7 6 -8zM162 427h-8v-8h8v8zM346 243h-8v-8h8v8zM290 300q-2 6 -9 6q-5 0 -8 -6q1 0 2.5 -2t3.5 -4t4.5 -3.5t3.5 -1.5h3v11zM203 365h-6q-8 2 -10 -5q6 -6 8 -6h2q6 7 6 9v2zM295 262q-7 6 -9 6h-2l11 -11v5zM171 385q0 8 -9 8q-5 0 -8 -6l12 -11
q5 7 5 9zM224 327q-6 12 -26 12q-19 0 -22 -12q11 -6 24 -6q14 0 24 6zM241 298q0 8 -7 8q-10 0 -10 -9v-2q8 -6 9 -6h2q6 7 6 9zM273 257q-1 6 -8 6q-6 0 -8 -6l5 -6h2q2 0 9 6zM284 241l-5 -11l1 -1q3 0 10 6zM257 235q-2 3 -3.5 4.5t-3.5 1.5q-15 0 -15 -18v-4q1 2 5 3
t7.5 2.5t6.5 3t3 4.5v3zM197 268h-10l5 -11q6 8 6 9zM219 241l-1.5 2t-3.5 4t-4 3.5t-4 1.5q-9 0 -9 -9q0 -5 6 -8h5q8 0 11 6zM216 189h-8v-8h8v8zM254 108h-7v-8h7v8zM219 143h-11l6 -11l5 9v2zM276 75h-7v-8h7v8z"/>
            <glyph glyph-name="W" unicode="W" horiz-adv-x="803"
                   d="M778 762q0 -11 -6 -35l-3.5 -21t-1.5 -16q-4 -8 -6.5 -20t-4.5 -29l-4 -26t-2 -26q-3 -6 -5.5 -12t-6.5 -13l-41 -253q-5 -7 -6 -15.5t3 -20.5l-34 -180q-3 -5 -4.5 -16t-0.5 -30q-1 -51 -80 -49q-1 -1 -21.5 1t-56.5 6l-14 16l-46 288q-2 20 -11.5 32t-26.5 21
q-15 -12 -27 -40t-17 -73q-5 6 -8 6l-3 -1q-11 -14 -11 -13l1 -3q20 -2 20 -13q0 -4 -1 -10t-3 -12t-3.5 -12t-1.5 -10q0 -2 -6 -8l5 -5l-22 -147q-10 -11 -26.5 -17t-38.5 -6q-21 0 -41 1.5t-40 5.5q-13 3 -27 38q1 2 1 4v5q0 6 -1 13t-3 15q-3 11 -5 17.5t-1 10.5l-23 146
l-2.5 10t-4.5 15l-3.5 14t-1.5 11v5t1 5q2 -1 6 -1q8 0 26 17q-4 6 -11 6q-3 0 -11.5 -3t-11.5 -3l-5 5q-2 17 -6 42.5t-10.5 62.5t-15.5 86.5t-21 112.5v5q0 9 -2 19t-6 24q-5 15 -7 25.5t-3 18.5q0 4 0.5 8.5t1.5 8.5q-6 7 -6 19t7 19q11 5 26.5 8t36.5 4q26 0 66 -7
l30 -34q0 -21 2 -47t6.5 -57t10 -68.5t11.5 -80.5q-11 -5 -11 -10q0 -1 3 -4.5t6.5 -8t6 -8.5t1.5 -7q8 -15 8 -25q1 -17 -30 -35q5 -10 32 -11q51 42 49 87q3 -1 7 -1q7 0 25 17l1 3q0 1 -6 8q-1 -5 -9 -5l-9 1l23 228q4 28 10.5 42t15.5 16q14 2 32.5 4.5t42.5 1.5
q13 0 24.5 -1.5t22.5 -5.5q26 -27 21 -107q7 -8 9.5 -20t3.5 -28q0 -7 -0.5 -13.5t-1.5 -14.5q5 -11 8 -19t3 -12v-3t-1 -4l-5 -6q-4 6 -12 6h-15l-11 -11q5 -8 29 -12q21 -3 21 -17q0 -2 -0.5 -4t-1.5 -5q3 -19 -10 -27q5 -5 9.5 -10t9.5 -10q2 -4 2 -27q0 -22 18 -23
q3 -7 8 -7q2 0 5 2l6 4t5.5 4t4.5 2q3 0 7 -5q6 1 6 6q0 3 -2.5 7.5t-1.5 8.5q-1 21 3 43t12 43l-4 7l32 237q8 11 23 16.5t35 5.5q6 0 38 -1q25 -3 38 1q21 -13 22 -37zM634 677h-8v-9h8v9zM710 557h-8v-8h8v8zM648 457l-4 -5l4 -6l5 6zM618 487h-8v-8h8v8zM404 658l27 -22
l6 5zM396 671h-8v-8h8v8zM651 368h-7v-9h7v9zM355 663h-21l21 -5v5zM603 406h-9v-9h9v9zM435 574h-9v-9h9v9zM567 397v-5l5 5h-5zM396 568h-8v-8h8v8zM480 484q-3 6 -8 6q-6 0 -8 -6l5 -5l2 -1q2 0 9 6zM437 518q0 3 -6 10l-11 -11l6 -6h1q2 0 10 6v1zM507 457q-2 1 -7 2.5
l-15 4.5q-6 2 -11.5 3.5t-11.5 1.5h-4t-4 -1l15 -16l4.5 1.5t3.5 0.5q3 0 10 -4t11 -4t9 11zM615 322v-6l7 6h-7zM524 417q0 8 -9 8q-6 0 -8 -6l12 -11q5 8 5 9zM401 530h-7v-8h7v8zM644 289h-7q-7 0 -11 -5q7 -6 9 -6h2l7 8v3zM431 495q-7 6 -8 6q-7 0 -7 -9q0 -5 4 -8z
M596 340q0 2 -2 5.5t-4 7.5t-4 7.5t-3 4.5q-4 -11 -17 -11q-16 0 -21 -5l17 -11l-21 -11q9 -6 23 -6q16 0 24 4.5t8 14.5zM377 544h-16q-7 0 -10 -6q3 -3 21 -10q3 1 4 3.5t1 6.5v6zM497 408q-2 6 -10 6h-3h-4l11 -11zM507 387q-1 5 -7 5q-7 0 -9 -5l6 -6h2q1 0 8 6z
M594 294h-6l6 -5v5zM329 556q0 2 -1.5 4t-4.5 5l-11 -10l5 -6h2q2 0 10 6v1zM394 479q-2 5 -9 5q-6 0 -8 -5l5 -6h2q1 0 10 6zM523 354q2 7 -4 11q0 -5 -4.5 -8.5t-9.5 -6l-9 -4.5t-5 -3q5 -5 9 -5q2 0 5.5 1.5t6.5 3.5l6 4t5 2v5zM458 430q-6 8 -16 8q-9 0 -18.5 -5.5
t-19.5 -18.5q5 -3 12 -3q4 0 9.5 3t11 7t11 7t9.5 2h1zM663 183h-10v-8h10v8zM399 446q-6 6 -20 6h-24l11 -17h12q15 0 21 11zM556 267h-6l17 -11zM344 462q-6 6 -8 6h-2l10 -11v5zM454 370q-4 6 -13 6h-15q-6 -3 -6 -11q0 -12 12 -12q16 0 22 17zM577 224h-5l5 -5v5z
M523 284q-2 1 -3 1h-3q-7 0 -17 -5q-6 -3 -9.5 -4.5t-5.5 -2.5q5 -6 13 -6h14q1 1 3 2.5t4 3.5t3.5 4t1.5 4zM545 246q-1 5 -9 5h-13q-4 -1 -4 -8q0 -9 9 -9q4 0 17 12zM388 377q0 5 -4 8q-7 6 -7 7l-5 -11q3 -5 9 -5h4h3v1zM588 175q-1 6 -7 6q-7 0 -9 -6q4 -5 10 -5h6v5z
M63 692q0 1 -6 9l-5 -5q6 -6 9 -6h1zM351 430q-7 11 -13 11q-2 0 -5.5 -3t-7.5 -6.5t-8 -6.5t-7 -3q-4 0 -9 3q0 -1 -1.5 -2.5l-3.5 -3.5t-3.5 -4t-1.5 -4v-3h10q3 6 7.5 8.5t11.5 2.5q25 0 31 11zM464 286q0 8 -6 8q-11 0 -11 -9v-1q7 -6 10 -6h1zM179 568h-8v-8h8v8z
M556 175q-7 6 -9 6h-2l5 -11zM480 251q-7 6 -8 6l-3 -1l6 -10zM502 229l-1.5 2t-4 4.5t-4.5 4t-4 1.5l-3 -1q-1 -2 -1 -4v-1q0 -12 14 -12h2t2 1v5zM339 370q-10 -4 -10 -11t8 -7q9 0 14 7zM323 387q-4 6 -16 6q-11 0 -11 -10q0 -8 8 -8q14 0 13 1q6 7 6 8v3zM523 181
q-3 5 -6 5q-2 0 -5 -1.5t-6 -3.5t-5 -4t-4 -2l5 -5l3 -1h1q5 0 17 12zM198 484l-5 -5l11 -11l5 5zM534 153l-6 1q-7 0 -9 -6l7 -6l3 1q5 6 5 8v2zM366 327q-7 12 -26 12q-18 0 -23 -12q12 -6 25 -6t24 6zM274 388q0 3 -5 9l-6 -5l8 -6l3 1v1zM560 97h-10v-9h10v9zM193 452
q-3 5 -9 5h-3h-5l11 -11zM252 376v-6l6 6h-6zM296 327q-3 6 -8 6q-6 0 -9 -6l6 -5l1 -1q3 0 10 6zM267 346h-9v-8h9v8zM339 263q0 2 -1 4t-4 6q-5 -3 -5 -8q0 -6 5 -9l5 6v1zM241 359q-6 6 -8 6q-8 0 -8 -11q0 -8 6 -11l2 2l4 4t3.5 4.5t1.5 4.5zM198 403l-16 -16q3 -1 4 -1
h1q3 0 17 11zM297 300l-34 -16l6 -6q1 9 14 10.5t13 7.5zM166 419q-3 1 -4 1h-2q-2 0 -5.5 -1.5t-6.5 -4t-5.5 -4t-4.5 -2.5q3 -5 10 -5h7l2 1.5t4 4t4 4.5t2 4zM248 316q-3 1 -4 1h-2q-3 0 -16 -12q3 -5 9 -5h6q7 3 7 10v6zM317 251q-17 6 -26 6q-11 0 -28 -6v-2q0 -1 6 -9
q12 6 24 8t21 3h3zM250 270h-9v-8h9v8zM214 305q-1 6 -7 6q-7 0 -9 -6l6 -5h2q1 0 8 5zM226 278l-6 -5l6 -6l5 6zM301 193l-5 9l-5 -5l7 -6h3v2zM263 219h-2q-1 0 -9 -6h11v6zM282 183h-8v-8h8v8zM198 256l-5 -5l5 -5l6 5zM160 213h-5l5 -5v5zM171 137h-11l11 -5v5zM577 338
v8h9v-8h-9z"/>
            <glyph glyph-name="X" unicode="X" horiz-adv-x="529"
                   d="M500 19q-25 -19 -69 -19q-3 0 -23 1.5t-55 6.5q-38 29 -40 96q0 11 3 22q-7 5 -14 14.5t-12 24.5q-12 28 -29 37l-21 -20l-44 -148q-25 -35 -92 -33q-12 -1 -28.5 1t-36.5 5q-4 7 -6 14t-3 15q1 9 4 20.5t9 27.5q14 35 18 47q2 5 6.5 12t11.5 16l46 134q2 13 11 39l12 22
t12 23q6 14 9.5 27t4.5 23q-1 12 -4.5 23t-12.5 23q-4 6 -15 31t-31 66q-1 5 -4 11.5t-6.5 16t-8.5 23.5t-12 33q-9 20 -20 47t-26 65q4 25 14 29q3 1 11 1t24 1q4 -1 12 -0.5t17 1t17.5 1.5t13.5 1q22 1 37.5 -7.5t23.5 -25.5q1 -4 5.5 -21t13.5 -50q4 -24 14 -39.5
t23 -26.5l45 44l-6 6q4 16 8.5 32.5t8.5 35.5q7 18 18 31t26 17l129 -3q3 -11 2 -22q1 -11 -3 -25t-11 -30q-9 -20 -14.5 -33.5t-5.5 -18.5q-8 -10 -14.5 -24t-12.5 -34q-7 -21 -13.5 -34.5t-15.5 -23.5q-1 -11 -6 -26.5t-17 -36.5q-11 -20 -16 -35t-6 -25q0 -3 2 -10t6 -18
q1 -6 4 -15l7 -21l12.5 -25t11.5 -26q7 -16 10.5 -28.5t4.5 -21.5q31 -78 52.5 -139t33.5 -103v1zM367 671h-9v-8h9v8zM410 617h-9v-8h9v8zM293 619l-7 6h-3l5 -11zM358 549h-4l4 -6v6zM195 695q-4 6 -12 6q-10 0 -15 -6l7 -5q-2 -1 12 -1q7 0 8 6zM289 584q0 8 -7 8
q-11 0 -11 -9v-2q9 -5 10 -5h2q6 7 6 8zM255 609q-4 2 -5 3.5t-2 1.5h-3l5 -11zM305 560h-2q-2 0 -10 -6l5 -5l7 8v3zM229 616q0 2 -6 9l-5 -6q4 -2 5.5 -3.5t2.5 -1.5h3v2zM343 500l-7 -5l7 -6l5 6zM209 617h-7v-8h7v8zM296 530h-8v-8h8v8zM277 543q-3 6 -8 6t-8 -6l6 -5h1
q1 0 3 1.5t6 3.5zM327 475q0 2 -7 9l-5 -6q7 -5 9 -5h2zM296 503h-8v-8h8v8zM315 451q-3 6 -9 6h-2h-6l12 -11zM348 413h-12l12 -5v5zM277 484q-1 5 -6 5q-10 0 -10 -9v-2h5q8 0 11 6zM229 506h-6l10 -6zM242 481h-9v-8h9v8zM315 397l-5 -11l5 6v5zM293 419q-2 1 -4 1h-1
q-3 0 -7 -1.5t-8 -4t-7.5 -4t-4.5 -2.5q4 -6 11 -6q17 0 16 1q3 1 4 3.5t1 6.5v6zM147 543h-5l5 -5v5zM367 318h-9v-8h9v8zM240 413l-7 -5l7 -5l5 5zM334 313h-8v-8h8v8zM212 421q0 1 -5 9l-5 -6l7 -6l3 1v2zM250 361q0 2 -5 9q-6 -1 -6 -8t6 -8l5 5v2zM223 381h-5l5 -6v6z
M267 337q-3 1 -4 1h-3q-8 0 -31 -11l11 -11q8 4 17 8t10 13zM326 251q-2 5 -9 5q-4 0 -7 -5l5 -6h1q4 0 10 6zM207 361q0 1 -5 9l-12 -11l5 -5l3 -1q1 0 9 6v2zM271 283l-7 6h-3l10 -11v5zM288 256l-3 1q-15 0 -14 -9v-3h12q6 7 6 9zM315 213q-24 0 -32 5q-5 -8 -5 -11t3 -3
t8.5 2t8.5 2q9 0 12 -6q5 7 5 9v2zM195 305q3 -10 8.5 -15t15.5 -5q6 0 10 4zM199 270h-9v-8h9v8zM168 272l-1 1q-2 0 -9 -6h10v5zM207 207q-6 -1 -6 -8q0 -5 6 -8h4q10 0 12 6zM180 148q-5 5 -11 5q-5 0 -12 -5t-10 -6h19q9 0 14 6z"/>
            <glyph glyph-name="Y" unicode="Y"
                   d="M480 769q0 -14 -3 -31t-10 -37q-8 -16 -13.5 -32t-10.5 -32l-62 -185q-1 -4 -2.5 -10.5t-3.5 -14.5q-4 -11 -8.5 -21t-8.5 -22q-10 -26 -10 -46h-4q2 0 -11 -11l16 -9l-1 -282q-9 -19 -26.5 -27.5t-42.5 -8.5q8 0 -14 1.5t-74 5.5q-5 1 -11 4t-10.5 7.5t-7.5 10t-3 11.5
q0 5 3 13.5t3 14.5q0 5 -1 9t0 7l1 254q-5 10 -9.5 22t-8.5 29q-12 48 -11 50q-4 8 -8.5 19.5t-9.5 30.5q-11 21 -21.5 49.5t-22.5 64.5t-25 78.5t-30 90.5q-5 10 10 18l21 9q5 -1 10 -1.5t11 -0.5q5 0 13 0.5t16.5 1t16.5 1t13 0.5q24 -1 39 -9t22 -25l-1 -5q1 -10 4 -26
t7 -39q7 -20 10 -36.5t2 -28.5l38 -49l27 22q7 -5 10.5 -8t2.5 -3h3l11 11q-5 5 -10 10.5t-12 6.5l38 155q21 11 44.5 17t49.5 6q12 -1 28 -2t36 -4q2 -10 2 -24h-1zM367 671h-8v-8h8v8zM305 638q0 2 -6 9l-5 -5l8 -6h3v2zM337 561q-4 0 -6.5 -1.5t-3.5 -4.5l6 -5l10 10z
M188 682h-8v-8h8v8zM294 560l-2 1q-1 0 -9 -6l7 -5q4 7 4 8v2zM272 539q-3 4 -10 7.5l-17 8.5l-5 -11q2 0 5.5 -1.5t6.5 -3.5l6 -4t5 -2q5 0 9 6zM316 501h-2q-18 0 -20 5l-4 -5q12 -12 16 -12h2.5t2.5 1l5 8v3zM362 439h-8v-9h8v9zM78 692q0 1 -6 9l-6 -5q8 -6 9 -6h2z
M181 584q0 1 -6 9q-6 -3 -6 -8q0 -6 6 -8l5 5zM196 560h-5l5 -5v5zM245 495q-1 6 -8 6q-6 0 -8 -6l5 -5h2q1 0 9 5zM167 552h-8v-8h8v8zM327 387h-6l6 -5v5zM224 477q0 8 -8 8q-6 0 -8 -6l10 -11q6 8 6 9zM208 452l-6 4.5t-3 1.5l-3 -1l6 -10zM256 414q-6 6 -15 6
q-7 0 -10.5 -2.5t-6.5 -8.5q5 -6 9 -6q2 0 5.5 1.5t6.5 4t6 4t5 1.5zM215 406h-7v-8h7v8zM251 360h-6v-11q6 7 6 8v3zM187 414q-3 4 -7 4q1 0 -15 -9l4 -6h2q2 0 4.5 1.5t5 4l4 4t2.5 1.5zM259 319h-8v-8h8v8zM191 138h-4l4 -6v6z"/>
            <glyph glyph-name="Z" unicode="Z" horiz-adv-x="492"
                   d="M459 44q-1 -44 -55 -44q-9 0 -21 1.5t-28 4.5q-16 4 -28.5 6t-19.5 1q-5 0 -12.5 -1t-16 -2t-16.5 -2t-12 -2q-14 0 -24.5 1.5t-20.5 3.5l-125 -9q-27 7 -31 9q-14 8 -18 23q2 9 3.5 26.5t2.5 42.5q-1 22 2 38.5t7 28.5q0 25 21 63q13 22 19.5 37t9.5 24q19 20 29.5 43
t13.5 51q10 8 19 24t17 39q8 24 16.5 41t17.5 25q2 7 17 40q9 24 10 41l12 11l-21 30l-138 3q-4 -6 -8 -6q-2 0 -5.5 1.5t-6.5 3.5t-6 3.5t-5 1.5q-18 19 -18 62q-1 9 0.5 25.5t5.5 43.5l22 18l292 -2q5 0 11.5 1t14 2.5t14 2.5t10.5 0q31 1 44 -22l-1.5 -4.5t-0.5 -2.5
q0 -5 3 -13t3 -12q0 -6 -4 -11v-42q0 -14 -1.5 -25t-4.5 -20q1 -2 1 -4v-3q0 -6 -4 -12t-9 -13t-9.5 -13t-4.5 -12t3 -12q0 -3 -11.5 -24.5t-33.5 -59.5q-13 -27 -22.5 -50t-13.5 -40q-10 -16 -25.5 -43.5t-31.5 -66.5q-34 -72 -57 -97q7 -1 13.5 -5.5t13.5 -14.5
q15 -19 29 -18l139 10q23 -10 33 -32q-6 -12 -6 -28q0 -6 0.5 -15t2 -18t2.5 -17.5t1 -13.5zM317 723l-5 -5l5 -6l6 6zM333 674q1 1 -12 1q-7 0 -9 -6q2 -4 6 -4q14 0 15 9zM288 671h-9v-8h9v8zM329 620q-8 6 -9 6l-3 -1l6 -10zM257 685v-5l7 5h-7zM236 696q-6 6 -16 6
q-11 0 -16 -6l5 -6h16q8 0 11 6zM324 584q0 1 -7 9q-5 -3 -5 -8q0 -6 5 -8l6 5zM291 609q-4 3 -5.5 4.5t-2.5 1.5h-4l7 -11zM339 560h-6l6 -5v5zM264 616q0 3 -7 9l-5 -5q8 -6 9 -6l3 1v1zM310 552h-8v-8h8v8zM271 514h-7v-8h7v8zM317 414h-2l-8 -5l5 -6q3 4 4 5.5t1 2.5v3z
M291 333h-13q-7 0 -9 -6q3 -5 9 -5h8q2 4 3.5 5.5t1.5 2.5v3zM230 365l-4 -5l4 -6l6 6zM252 289q2 8 -16 11v-2q-1 -9 13 -9h3zM233 270h-7v-8h7v8zM204 273h-2q-2 0 -4.5 -1.5t-4.5 -3.5l-3.5 -3.5l-2.5 -2.5h12q6 8 6 9zM345 128q1 11 -14 11q-3 0 -6.5 -0.5t-7.5 -1.5
l16 -16h2q1 0 10 6v1zM183 235h-2q-1 0 -10 -5l6 -6q6 7 6 9v2zM139 262q-3 6 -12 6q-7 0 -10 -6l6 -5h3q10 0 13 5zM276 113h-7v-8h7v8zM183 192q-4 5 -11 5h-2h-4l17 -11v6zM146 211h-7v-8h7v8zM220 148q-9 7 -22 7q-15 0 -15 -12q4 -6 17 -6h20v11zM245 108h-9v-8h9v8z
M117 230h-6l6 -6v6zM120 162h-9v-8h9v8zM142 129h-9v-8h9v8zM149 83q-1 6 -7 6q-7 0 -9 -6l6 -5l2 -1q1 0 8 6zM123 45v-5l4 5h-4z"/>
            <glyph glyph-name="bracketleft" unicode="[" horiz-adv-x="315"
                   d="M302 -15q0 -46 -21 -51h-44q-25 -1 -39 0q-21 1 -41 5q5 -2 8.5 2t6.5 8q-5 6 -11 6t-17 -9t-18 -7q-6 1 -14 1q-7 0 -22 -1.5t-22 -1.5q-29 0 -35 28l5 181q-2 17 5 46q-6 19 -6 44t6 44l-5 191l5 36l-10 207q2 17 5 35t21 27q11 2 30 -5l-5 -5q4 -1 10 -1q-4 0 52 11
q44 1 140 0q16 -5 16 -26q0 -8 -6 -31q-19 -11 -56 -11q-42 1 -57 -4q-16 -13 -16 -43v-13v-13q0 -19 -5 -30l5 -128q-1 -6 -1 -16q0 -7 1.5 -25t1.5 -27q0 -39 -28 -46q5 -8 26 0v-140l-10 -10q11 -21 11 -59q0 -29 -6 -65q6 -11 6 -27q0 -15 -6 -25q25 -37 46 -37
q10 0 21 6l38 -2q23 -4 35 -19zM165 208h-8v7h8v-7zM242 735v8h-8v-8h8zM79 295h-10l5 -4zM69 203q-4 2 -14 -11q0 1 4 5l5 -5q6 6 5 11zM110 104h-10l-5 -5zM123 47v8h-8v-8h8zM118 1v8h-8v-8h8z"/>
            <glyph glyph-name="backslash" unicode="\" horiz-adv-x="422"
                   d="M417 -35q1 -4 1 -7q0 -5 -16 -24q-25 1 -49 1q-27 5 -34 30q-9 32 -41 108l5 6q-13 5 -15 29t-16 27q-17 69 -67 180q-56 125 -73 177l16 15q-26 -1 -36 30q-15 42 -21 48v16q4 -2 10 4q-12 0 -21.5 13.5t-9.5 26.5q0 5 10.5 10t10.5 10q0 3 -5 8q-9 -8 -19 -8t-12 13
q-7 23 -26 67l13 5q8 3 8 11q-7 6 -11 5l-10 -11q-6 3 -6 10q0 12 1 11q14 16 39 16q38 0 54 -26l51 -135q21 -54 182 -449zM208 357v8h-8v-8h8zM286 187v8h-8v-8h8zM291 125v8h-8v-8h8zM309 94l-16 -11z"/>
            <glyph glyph-name="bracketright" unicode="]" horiz-adv-x="317"
                   d="M284 699l-5 -321l-16 -10q17 -2 17 -20q0 -9 -7 -32q5 -39 6 -85v-82q-1 -59 0 -86q-5 1 -11 -5q15 -41 15 -69q0 -24 -9.5 -40t-39.5 -16q-6 0 -18.5 1t-18.5 1q-7 0 -11 -1q-10 2 -24 2q-11 0 -36.5 -2t-38.5 -2q-56 0 -72 33q-3 20 15 36q14 0 16 5q7 -6 16 -6l23 5
q14 3 23 -4q5 -2 9 -2q11 0 32 22v197l11 11l-11 10v392l16 16q-2 5 -16 5q-2 12 6 31q-17 31 -73 26h-20q-11 -1 -18 0q-9 1 -19 5q-9 8 -10 22t5 25q12 15 36 15q13 0 26 -5q8 7 20 4l19 -4q7 0 13 5q27 -5 59 -5q33 0 60 5l20 -12q12 -7 11 -19q-6 -10 -6 -23
q0 -14 6 -23zM142 745v8h-8v-8h8zM54 735v8h-8v-8h8zM214 306v7h-8v-7h8zM193 68v8h-7v-8h7zM266 -46v8h-8v-8h8z"/>
            <glyph glyph-name="asciicircum" unicode="^" horiz-adv-x="632"
                   d="M16 494q-8 0 -6.5 9t1.5 13q33 21 61 55.5t54.5 72t53.5 72.5t59 56.5t71 24t89 -25.5q34 -33 58.5 -69t58.5 -69l111 -128q-6 -15 -19 -19.5t-28 -4t-30.5 3.5t-28.5 3q-46 34 -85.5 79.5t-80.5 87.5q-6 4 -15 8.5t-18.5 6.5t-18.5 0.5t-15 -10.5l-155 -161
q-11 -10 -25.5 -13.5t-30.5 -3t-32 4t-29 7.5z"/>
            <glyph glyph-name="underscore" unicode="_" horiz-adv-x="640"
                   d="M582 -14q20 -21 17.5 -43.5t-6.5 -51.5l-17 -11l-511 -5q-12 8 -16.5 19t-5 23t0.5 24t-1 22l22 28z"/>
            <glyph glyph-name="grave" unicode="`" horiz-adv-x="220"
                   d="M94 782l42 -17q5 -21 15.5 -39t22 -35t22.5 -34t17 -38l-5 -16l-40 -5q-42 37 -82.5 79t-68.5 93q18 9 39 8.5t38 3.5z"/>
            <glyph glyph-name="a" unicode="a" horiz-adv-x="489"
                   d="M468 20q-12 -21 -51 -19h-17q-8 9 -18 9q-4 0 -9.5 -1.5t-11.5 -3.5t-11 -3.5t-9 -1.5q-21 0 -33 42q-4 14 -7.5 27.5t-8.5 28.5q-18 5 -40 6q-26 0 -41 -7t-22 -20q-3 -14 -6.5 -25.5t-7.5 -24.5q-8 -27 -47 -27q-4 0 -11 0.5t-14.5 0.5t-14.5 0.5t-11 0.5
q-3 0 -9.5 -0.5t-10.5 -0.5q-23 -1 -38 29q2 5 4.5 10t4.5 14l39 200q1 7 1.5 17t0.5 21q9 32 17.5 74.5t18.5 101.5l31 178l6.5 32.5t5.5 18.5q5 11 16 16.5t25 5.5q5 0 12.5 -1t16 -2t16 -1.5t11.5 -0.5q16 0 28 5q-3 1 34 1q20 0 30 -12q1 -2 4.5 -10t9.5 -22
q0 -5 1 -13.5t2 -18t2.5 -18.5t1.5 -14q0 -6 -0.5 -10.5t-1.5 -9.5q7 -8 11.5 -19.5t6.5 -29.5q2 -13 3.5 -26t4.5 -26l42 -246q15 -18 15 -41v-3l-5 -5l8 -9q1 -15 4.5 -33.5t10.5 -43.5q5 -26 8 -46t4 -33zM229 666h-10l10 -5v5zM254 608q0 2 -5 9l-6 -5q7 -6 9 -6h1z
M220 626h-2q-6 0 -9 -4l5 -5l10 9h-4zM312 509h-2q-2 0 -7 -5l4 -4q5 6 5 7v2zM277 528l-2 1q-1 0 -7 -5l4 -4q6 4 6 7zM249 573q1 0 -25 0q-13 0 -19 -5l9 -10q3 4 23 4q10 0 12 11zM194 592q-2 6 -8 6l-6 -1v-2q-1 -9 11 -9l3 1v5zM253 534q-10 9 -14 9t-5 -5l9 -10h2
q2 0 8 6zM243 494l10 -14l5 5zM314 428h-7v-7h7v7zM200 543q-3 6 -10 6t-10 -6l5 -5h6q6 0 9 5zM292 446h-5l5 -5v5zM229 509q-2 -2 -6.5 -3.5t-9 -2.5t-8.5 -3t-5 -6q3 -4 7 -4q2 0 4.5 3t5 6.5t4.5 6.5t4 3h4zM177 517h-7v-8h7v8zM381 299l-6 -5l6 -5l4 5zM194 472
q0 1 -4 8q-5 -1 -5 -8q0 -5 5 -7l4 5v2zM307 353q-2 4 -6 4q-9 0 -9 -8v-1h6q6 0 9 5zM312 329l-1 -2q-2 0 -8 6l-6 -4q3 -6 11 -6h4v6zM317 299l-5 -5l5 -5l4 5zM289 248q0 2 -1 4t-2 2l-9 123l10 10l-11 -1q-5 15 -7.5 31t-0.5 33q-8 12 -19 11l-6 -1q-17 -14 -14 -34
q-15 -14 -14 -59q1 -42 -25 -49l-1 -1q0 -3 2.5 -5t6.5 -3t7 -2t4 -3q-2 -4 -4 -8.5t-1 -10.5q0 -4 0.5 -9.5t2 -11.5t2 -11t0.5 -9q0 -9 -5 -14.5t-14 -8.5l4 -5q9 9 33 10h36q5 -1 5 -10v5q1 1 3.5 4t9.5 8q8 8 8 15zM351 245q-3 0 -7 1.5t-8.5 3.5t-9 3.5t-6.5 1.5
q-4 0 -7 -1.5t-6 -3.5q3 0 7 -1.5t8.5 -3.5t8.5 -3.5t7 -1.5q6 0 13 5zM119 433h-7v-7h7v7zM341 201q-3 8 -13.5 12t-20.5 8q1 -4 4.5 -7.5t8.5 -5.5t10.5 -3.5t10.5 -3.5zM185 348l-6 1q-6 0 -9 -6q7 -6 8 -6l2 1q6 6 6 7zM366 126q0 7 -8 7q-6 0 -7 -5l10 -10q5 7 5 8z
M331 172q-6 11 -22 11q-7 0 -13.5 -1.5t-12.5 -5.5l4 -4q4 2 6.5 3t6.5 1q3 0 7.5 -1.5t8.5 -3t8.5 -3t6.5 -1.5v5zM165 313l-5 -4l10 -10l5 5zM249 201v-5l4 5h-4zM194 260h-5q-12 2 -19 -10q2 -5 8 -5h12q4 3 4 10v5zM163 267h-7v-7h7v7zM287 118v-5l5 5h-5zM259 156
q-8 0 -22 12q-14 14 -23 14q-5 -3 -5 -8t5 -7q4 3 10 3q8 0 17 -11t14 -11q3 0 8 9zM160 218q0 1 -1 3t-3 5l-6 -5l8 -6l2 1v2zM205 157q-4 5 -12 5h-13l14 -15zM209 143l-4 -11l4 6v5zM173 169h-8v-7h8v7zM200 113h-6q-7 0 -9 -5q6 -5 8 -5l1 1q6 6 6 7v2zM146 124
q-3 4 -10 4h-5l10 -10zM107 154q0 1 -5 8l-5 -5q7 -5 8 -5h1z"/>
            <glyph glyph-name="b" unicode="b" horiz-adv-x="481"
                   d="M454 198q0 -38 -5 -69.5t-17 -54.5q-10 -21 -34 -37t-64 -27q-1 3 -7 3q-4 0 -8.5 -1.5t-9.5 -3.5l-158 1q-3 -2 -17.5 -2.5t-39.5 -1.5h-7q-5 -5 -12 -5q-3 0 -7.5 1.5t-9 3.5t-9 3.5t-6.5 1.5q-8 7 -8 17q0 4 2 11.5t2 11.5t-0.5 6t2.5 -1l-3 601q-2 4 -3.5 7.5
t-1.5 7.5t1.5 9.5t3.5 10.5t3 10.5t2 8.5l19 11l192 -6l6 -5q4 2 8.5 3t9.5 1q-3 0 9 -2t37 -6q33 -7 57 -22.5t37 -38.5q11 -18 14.5 -46.5t4.5 -65.5q1 -95 -49 -143q-2 -5 -3 -9q0 -4 4 -7.5t9 -7t9.5 -6t6.5 -2.5q18 -30 28 -70t12 -89v-1zM314 670h-10l10 -4v4z
M341 624h-7v-7h7v7zM287 653h-7v-7h7v7zM309 631l-2 1q-1 0 -7 -6l4 -5q5 6 5 9v1zM319 577h-14q-6 0 -11 -4q3 -6 9 -6h11q5 6 5 8v2zM206 676q-3 5 -10 5t-10 -5l4 -6h7q6 0 9 6zM339 533q-3 5 -8 5t-7 -5l5 -6h2q2 0 8 6zM349 414q-3 5 -8 5t-7 -5l5 -4h2q1 0 8 4z
M295 500q-3 36 -14.5 61t-30.5 36q4 5 8 5q5 0 11 -5.5t12 -5.5v0q1 0 3 1l1 2q0 1 -5 8q-3 0 -7 1t-9.5 2t-10.5 2.5t-8 1.5q-12 0 -19 -7q-16 -7 -25 -29q-6 -14 -11 -23t-9 -13q17 -1 15 -30q1 -2 1 -6q-1 -22 -21 -28q24 1 34 -34l-24 -10v-2q0 -2 4 -8q2 -1 6 -1
q3 0 6.5 1.5t7 3.5t6.5 4t5 2h5q25 -1 45 21q6 7 13 18.5t16 29.5zM317 422h-8v-8h8v8zM151 586q-1 6 -10 6q-7 0 -9 -6l5 -4h6q7 0 8 4zM339 394q-6 6 -15 6q-5 0 -8.5 -1.5t-6.5 -4.5l5 -4h14q4 0 6.5 1t4.5 3zM110 614h-7v-8h7v8zM280 419h-3q-1 0 -7 -5l4 -4q6 6 6 7v2z
M267 417h-7v-7h7v7zM417 252h-14l14 -5v5zM327 337h-8v-6h8v6zM162 496q0 8 -13 8q-9 0 -12 -6q12 -10 15 -10h1t3 1q6 5 6 7zM284 355q-2 -1 -18 -3q-6 -1 -9 -3t-3 -7v-2q7 -6 11 -6q2 0 4.5 3t5 7t5 7.5t4.5 3.5zM300 320h-5h-3q-14 0 -12 -8v-1q3 -5 11 -5h3q6 3 6 9v5z
M122 483q-2 5 -6 5q-9 0 -9 -8v-1h6q6 0 9 4zM161 439q-7 6 -8 6l-2 -1l5 -10zM344 252q-2 5 -8 5q-5 0 -7 -5q2 -5 10 -5h5v5zM181 410h-5l5 -6v6zM230 358q0 7 -6 7q-9 0 -9 -9l1 -1l8 -5h2q4 6 4 8zM206 370q-3 5 -10 5h-6l16 -15v10zM216 331l-15 9l15 -14v5zM93 444h-6
l6 -5v5zM137 394q-7 6 -17 6q-11 0 -17 -6l4 -4h16q8 0 14 4zM156 365q-2 5 -7 5t-8 -5l5 -5h2q1 0 8 5zM186 326q-2 5 -7 5t-8 -5l5 -6h2q1 0 8 6zM344 157h-2q-2 0 -8 6l-5 -6q2 -4 10 -4h5v4zM171 301q-2 5 -6 5t-14 -10h12q6 0 8 5zM314 170q0 3 -2.5 4.5t-6 2.5t-7 2.5
t-4.5 3.5q11 13 11 33q-1 17 -1 26v10l5 -5l5 5l-5 5l-5 -5q-6 10 -12.5 20t-12.5 20q-8 11 -18.5 17t-20.5 7l6 4q-7 6 -9 6h-2l5 -15q-3 0 -6.5 -1.5t-7 -3.5t-7.5 -3.5t-7 -1.5q-7 0 -11 10l-5 -5q10 -12 10 -16l1 -4q-5 -5 -8 -20t-3 -39q-1 -21 -9 -30.5t-26 -9.5l6 -4
q11 13 20 13q10 0 14 -9q0 -9 -11 -16q-5 -5 -9 -8t-5 -6q15 -1 28 -19q6 -10 12 -16.5t10 -8.5h3q21 0 41 21l30 39l14 -6v3zM127 320l-10 -9l5 -5h7q4 0 8 5zM290 109h-6q-7 0 -10 -5q7 -6 9 -6l1 1q6 7 6 8v2zM129 264h-7v-7h7v7zM137 222h-6q-7 0 -9 -5q6 -6 7 -6l3 1
q2 4 3.5 6t1.5 3v1zM161 133q-2 5 -7 5q-6 0 -8 -5l5 -4l3 -1q1 0 7 5zM117 173l-5 -6l5 -4l5 4zM167 79l-6 4l6 -9v5zM129 62h-7v-8h7v8z"/>
            <glyph glyph-name="c" unicode="c" horiz-adv-x="472"
                   d="M444 266l2 -2q-2 -35 -5 -65t-10 -58q-13 -38 -27.5 -65t-33.5 -41q-10 -10 -18.5 -14.5t-13.5 -5.5q-10 -3 -27 -7t-38 -9q0 2 -121 10q-19 12 -33.5 20t-20.5 13q-29 22 -40 48q-2 9 -6 24q-3 13 -6.5 25.5t-5.5 23.5q-10 274 -12 273q0 12 14 17q6 4 6 10q0 5 -13 4
q-1 35 1 60.5t6 42.5q10 58 44 90l12 9t21 14q14 10 30 20.5t32 10.5q11 0 20 -4q16 9 40 9q7 0 17 -1t24 -4q14 -1 24.5 -2.5t17.5 -1.5v-3q0 3 11 -10q26 -2 43 -31q25 -35 35 -41q15 -49 23 -84.5t8 -59.5q0 -15 -3 -29t-6 -27q-8 0 -19 -1t-27 -3q-29 -5 -45 -3
q-50 -2 -63 30q6 9 6 18q0 6 -3 18.5t-3 17.5q0 10 6 18q-2 4 -6 14.5t-4 16.5q0 7 4 11q-8 1 -31 12q-19 11 -31 13q-28 -40 -30 -71q0 -5 0.5 -8.5t1.5 -7.5q-5 -10 -5 -21q0 -8 2.5 -23.5t2.5 -23.5q0 -13 -5 -21q5 -3 5 -7q0 -2 -2.5 -6t-2.5 -7q0 -9 0.5 -20.5
t1.5 -28.5q1 -16 1.5 -28.5t0.5 -21.5l1 -49q0 -10 -1.5 -27.5t-3.5 -42.5q9 -7 20 -18.5t27 -25.5q6 12 28 19q24 7 24 19q0 6 -8 20q8 14 8 35q0 8 -2 23.5t-2 23.5q0 29 18 46h125q18 -14 20 -49zM389 563v6h-7v-6h7zM362 586l-19 10l14 -14zM281 662l-23 15l19 -19z
M334 596q-2 5 -7 5t-7 -5l4 -5h2q1 0 8 5zM362 539l-5 4l-4 -4l4 -5zM150 635v7h-6v-7h6zM191 594v2h-5q-8 2 -9 -5q5 -5 7 -5h2q5 7 5 8zM148 591h-4v-5zM117 586v8h-7v-8h7zM168 542l-1 1h-15l11 -9zM103 539v7h-7v-7h7zM177 434v4h-6zM375 234v7h-7v-7h7zM353 256v1h-2
l-8 -5l5 -4q5 7 5 8zM394 181v7h-7v-7h7zM110 458v5q-3 4 -6 4q-7 0 -14 -9h20zM112 415v7h-7v-7h7zM368 162q-3 5 -11 5h-4l9 -10zM117 377v6h-7v-6h7zM368 114v5h-6zM150 324v8h-6v-8h6zM314 129q-2 5 -10 5q-14 0 -13 -1q2 -1 6.5 -4.5t9.5 -3.5q6 0 7 4zM150 252v8h-6
v-8h6zM217 133v7h-7v-7h7zM253 81v4q-3 6 -10 6h-4l-1 -3q0 -7 12 -7h3zM139 178q0 3 -6 9l-4 -11h9zM181 114v5h-4zM212 62v7h-6v-7h6zM53 214v6h-11zM112 125v6h-7v-6h7z"/>
            <glyph glyph-name="d" unicode="d" horiz-adv-x="485"
                   d="M458 340q-4 -8 -5.5 -22.5t-0.5 -33.5q2 -19 0.5 -33.5t-4.5 -22.5q2 -6 3 -12t1 -12q0 -24 -15 -51v-28q-9 -2 -14 -14q-2 -10 -3.5 -15.5t-4.5 -7.5q-23 -38 -57 -58t-78 -19q-12 -10 -30 -10q-3 0 -9.5 0.5t-12.5 1l-12 1t-9 0.5q-13 0 -20 -3l-10 10q-9 -6 -20 -8.5
t-27 -3.5q-31 1 -46 1t-11 1l-8 4t-16 9q-14 6 -15 21q5 2 5 7q0 1 -2.5 5.5t-2.5 7.5v12t1 16q1 21 3 26q1 25 0.5 51.5t0.5 57.5v24.5t-1 34.5v57v80q0 3 1 5.5t0 3.5l-5 267q1 6 6 11.5t11.5 9.5t14 6t13.5 0l219 -7q40 -1 78 -35q20 -15 31.5 -32.5t14.5 -36.5v-4
q0 -4 3 -7t7 -6.5t6.5 -7t2.5 -8.5t1 -12t2 -14.5t2.5 -13t1.5 -7.5q-2 -1 0.5 -48t9.5 -138zM230 676h-4l4 -6v6zM354 542h-5l5 -4v4zM314 582q-2 5 -9 5q-8 0 -11 -5l5 -5h6q7 0 9 5zM226 646q-13 0 -15 5l-5 -5q2 -5 8 -5h12v5zM265 602h-2l-8 -5l6 -5l3 6l1 2v2z
M374 488q-2 -2 -6.5 -3.5t-9 -2.5t-9 -3t-5.5 -6l5 -4l25 20v-1zM222 602h-3q-7 0 -8 -5l4 -5l11 10h-4zM319 499l-2 -1q-2 0 -8 5l-4 -10l7 -5l2 1q6 7 6 8zM368 429q-7 6 -8 6q-7 0 -7 -8q0 -5 5 -8zM195 582q-7 12 -18 12l-6 -2q4 -6 9 -8.5t11 -1.5h4zM455 316h-7v7h7
v-7zM134 609h-7v-7h7v7zM177 542q-3 6 -9 6q-4 0 -7 -6l6 -4h1q2 0 9 4zM437 257h-5q-8 0 -10 -5q7 -5 9 -5h1q5 5 5 8v2zM147 533l-5 -6l9 -8l6 4zM314 365h-2q-1 0 -2.5 -1.5t-4.5 -3.5l4 -5q5 7 5 8v2zM187 469q-6 5 -15 5q-12 0 -11 -10v-1h15q7 0 11 6zM142 503
q-6 5 -9 5h-1l5 -9zM98 533v-6l4 6h-4zM329 306l-2 1q-8 0 -8 -9v-2h5q6 7 6 8zM149 462h-7v-8h7v8zM294 222q-9 11 -9 27q0 2 0.5 7.5t1.5 11t1.5 10.5t0.5 8l-4 6q-1 0 -1 1v2q0 4 10 17l-9 9q1 2 1.5 4.5t0.5 6.5q0 3 -0.5 7t-1 9t-1 9t-0.5 6q0 21 15 27q-13 1 -13 8
q0 4 2 10.5t2 9.5q0 7 -5 11q5 7 5 14q0 5 -2.5 13.5t-2.5 13.5q0 4 1 7.5t3 5.5q-2 6 -2 19q0 12 0.5 16.5t1.5 1.5q0 12 -5 23.5t-12.5 21t-17.5 15t-21 5.5q-9 0 -17.5 -4.5t-14.5 -13.5q-2 -17 -4 -25.5l-2 -8.5q0 -12 6 -20q-6 -14 -5 -30q0 -5 1 -14l2 -18t2 -17
t1 -13v-6q0 -3 -1 -5q-6 -10 -6 -25q0 -4 1 -11.5t2.5 -15.5t2.5 -16.5t0 -12.5q0 -16 -6 -28q1 -2 2 -8t3 -16q2 -7 2.5 -12.5t1.5 -10.5q-1 -14 -7 -21.5t-15 -9.5q6 -3 10.5 -12.5t4.5 -23.5q1 -19 4.5 -30t8.5 -17.5t11 -9t10 -2.5q13 0 30 14l24 21q-2 4 -3.5 7.5
t-1.5 7.5q0 9 8 23q10 18 11 21h-5zM181 419h-3q-1 0 -2 -1t-5 -3l6 -5q2 3 3 5l1 2v2zM122 469q-3 4 -6 4q-4 0 -10 -4.5t-8 -5.5l4 -4q1 -1 2 -1h2q5 0 16 11zM188 382h-7v-7h7v7zM349 192q-2 -1 -6 -2t-8 -1.5t-7 -1.5t-4 -4l5 -5q4 3 8.5 6t11.5 8zM354 151q0 7 -7 7
q-6 0 -8 -5l10 -10q5 6 5 8zM93 399q-5 -1 -11.5 -2.5t-14.5 -6.5q4 -5 12 -5h4l1.5 1.5l4.5 4.5q4 3 4 7v1zM149 329h-7v-8h7v8zM314 134v-5l5 5h-5zM55 368h-7v-8h7v8zM117 292l-5 -10l3 -1q1 0 2 1.5t5 3.5zM174 235h-7v-7h7v7zM261 109h-6l6 -5v5zM292 62h-7v-7h7v7z
M167 183q-3 5 -8 5t-8 -5l6 -5l2 -1zM137 211q0 11 -16 11q-8 0 -14 -4q1 -1 3.5 -4t5.5 -5.5t6 -4.5t5 -2h1t4 1q5 6 5 8zM230 109q-2 5 -9 5h-6l11 -10zM191 138q-6 6 -8 6l-2 -1l6 -9zM132 173q-3 5 -10 5t-10 -5l5 -5h7q6 0 8 5zM181 111q0 1 -1 2.5t-3 5.5l-10 -10
l4 -5h3l7 5v2zM235 55q-2 5 -9 5q-11 0 -11 -9v-1h13q6 0 7 5zM151 121q0 2 -2 3.5t-4.5 3l-5 3t-2.5 3.5l-5 -9l19 -6v2zM115 156h-8v-8h8v8zM132 94q-6 6 -8 6l-2 -1l5 -10z"/>
            <glyph glyph-name="e" unicode="e" horiz-adv-x="452"
                   d="M419 54q-3 -27 -10 -36q-10 -18 -29 -18q-8 0 -19.5 0.5t-27.5 1.5q-32 3 -48 3l-48 -1q-8 0 -20 1t-27 1q-16 2 -28 3t-19 2q-5 0 -13 -1.5t-17 -3t-17.5 -3t-12.5 -1.5q-17 0 -32 9q-18 10 -18 25q0 4 3.5 10t3.5 10q0 2 -1.5 3.5t-4.5 -0.5q3 156 5 233t3 77
q2 1 1.5 21.5t-2.5 60.5t-4 99.5t-3 139.5l35 31l247 -7q2 0 7.5 1t11.5 2l12 2t9 1q24 0 34 -5q11 -7 16 -21.5t6 -39.5q-1 -34 -13 -72l-23 -14l-129 3q-3 0 -5.5 1.5t-5.5 1.5q-11 0 -22 -17q-5 -9 -9 -13.5t-8 -5.5q3 -5 3 -12t-0.5 -15.5t0 -15.5t3.5 -12l-5 -1.5
t-14 -5.5q-11 -4 -17 -13q4 -10 19 -10q10 0 21 5q-1 -1 -1 -2v-1q0 -3 2.5 -7t6.5 -9l140 -1q10 -7 15 -15t5 -15q0 -8 -5 -14q4 -22 4.5 -34t1.5 -16q0 -15 -3.5 -25.5t-10.5 -18.5l-145 -9q-3 -3 -7 -3q-3 0 -9.5 3t-10.5 3q-5 0 -8 -13l10 -10q2 5 10 5h5q-2 -4 -3 -9
t-2 -11q1 -6 1 -11v-12v-6q-3 1 -5 1q-4 0 -16 -11q2 -3 5 -5.5t7 -4.5t7 -4t3 -5v-2t-1 -4l-16 -15q11 -6 19.5 -15t15.5 -18q8 -4 19 -5t23 -1q7 -1 18 0t27 4q16 2 27.5 3t18.5 0q7 0 13 -0.5t11 -1.5q4 5 9 5q2 0 5 -1.5t6 -3.5t6 -3.5t5 -1.5q9 -12 9 -29q0 -4 -0.5 -9
t-1 -10.5t-0.5 -10.5v-8q0 -9 2 -17zM308 653h-8v-7h8v7zM266 597h-5l5 -6v6zM194 634h-7v-8h7v8zM214 614h-7v-8h7v8zM187 591q-1 6 -7 6q-7 0 -7 -6l4 -5h3zM177 538l-4 -11h1q1 0 8 6zM143 551h-5l9 -4zM155 530h-8v-7h8v7zM76 599h-7v-8h7v8zM266 380l-5 -5l5 -5l5 5z
M153 468l-6 -5l6 -5l4 5zM236 375h-4l4 -5v5zM129 475q0 2 -6 8l-4 -5q6 -6 8 -6l2 1v2zM157 429l-4 -5l4 -5l6 5zM138 438l-2 1q-2 0 -7 -5l4 -5q5 5 5 8v1zM177 404q-2 1 -6 1q-7 0 -28 -11l10 -10q3 2 7.5 4t8 4t6 5t2.5 7zM227 326l-5 -6l5 -4l5 4zM119 429l-10 -15
l14 10zM182 350q-7 5 -8 5l-1 -1l9 -9v5zM192 326l-5 -10l2 -1q1 0 8 5zM143 354q-15 13 -30 11l-4 -1q1 0 4.5 -2t7.5 -4.5t7.5 -4.5t6.5 -2q4 0 8 3zM116 337h-7v-6h7v6zM83 340l-4 -9l10 9h-6zM123 281q-5 -2 -5 -7q0 -6 5 -8h6q7 0 9 5zM269 121h-8v-8h8v8zM217 133
l-5 -9h1q3 0 7 -3t6 -3q3 0 6 6zM157 187q2 7 -14 10v-1q0 -9 11 -9h3zM187 147h-5l5 -4v4zM125 194h-6v-7h6v7zM99 225q0 7 -9 7q-11 0 -16 -10q3 -5 9 -5h11q5 7 5 8zM212 94q-3 5 -9 5h-6l10 -10zM148 90q0 2 -5 9l-5 -5q6 -6 8 -6l1 1zM136 81h-7v-7h7v7zM177 34
q-7 6 -8 6h-2l6 -10zM82 101h-8v-7h8v7z"/>
            <glyph glyph-name="f" unicode="f" horiz-adv-x="428"
                   d="M417 606q-3 -5 -7 -11t-8.5 -11t-10.5 -8t-14 -3q-2 0 -9 0.5t-15.5 1.5t-16.5 1.5t-14 0.5h-22q-5 0 -13 1l-16 2t-14 1.5t-8 0.5q-14 0 -29 -9t-30 -26l-1 -28q1 -36 11 -57.5t30 -32.5q7 0 16.5 1t23.5 3t24 3t17 1q23 0 36.5 -8.5t20.5 -23.5l-1 -43q0 -9 -1 -18
t-3 -18q4 -5 4 -8q0 -5 -4.5 -11.5t-5.5 -10.5q-15 -9 -39 -8q-6 -1 -15 -0.5t-19 2t-19 2.5t-15 1q-12 0 -21 -2t-15.5 -6t-12 -11t-11.5 -17q5 -8 5 -20q0 -7 -1.5 -13.5t-5.5 -13.5l11 -146q-1 -10 -3 -21.5t-4 -22.5q-3 -10 -14 -15t-27 -5h-45q-11 2 -22.5 3.5
t-22.5 2.5q-28 3 -28 29q0 5 1 13t3 18q3 10 4.5 17.5t5.5 13.5l-14 594q14 29 29 29q3 0 7.5 -3t7.5 -3t6 6q124 -3 183.5 -5.5t51.5 0.5q5 0 12 0.5t15 1.5t15.5 2t12.5 1q19 0 34 -10q0 -2 2 -5.5t3.5 -7l3 -7t1.5 -5.5q0 -5 -5 -9q5 -15 5 -32v-38zM205 676v-6l5 6h-5z
M200 646l-3 -1q-1 0 -2 1.5t-5 4.5l10 -10v5zM240 606h-6l6 -4v4zM195 606l-5 -4l5 -5l5 5zM175 586q-8 7 -24 13l-5 -2q12 -13 22 -13q5 0 7 2zM151 546q0 6 -7 6q-9 0 -9 -8l1 -2q7 -4 8 -4h2q2 3 3.5 5t1.5 3zM270 395q-6 4 -11 4h-14q2 -1 6.5 -5t9.5 -4q4 0 9 5z
M121 533l-5 -6l10 -9l5 5zM116 503q-6 5 -8 5l-2 -1l5 -8zM160 469q-5 4 -13 4q-12 0 -16 -10q4 -4 8 -4q5 0 11.5 4.5t9.5 5.5zM205 395v-5l5 5h-5zM156 417l-5 7q-3 -1 -4 -3t-1 -4q0 -6 5 -7l5 4v3zM116 454l-5 -10l10 10h-5zM97 469q-3 3 -7 3q-7 0 -18 -9l5 -4
q1 -1 4 -1t16 11zM190 355v-5l5 5h-5zM166 380l-8 5q-7 0 -7 -8q0 -5 5 -7zM205 326l-15 -10l5 -5l1.5 1.5t3.5 3t4 3.5t2 4zM131 380l-5 -5l5 -5l5 5zM146 350l-5 -5l5 -5l5 5zM187 299h-7v-7h7v7zM62 399h-3q-12 0 -12 -8v-1q1 -1 5 -1q2 0 5.5 2.5t9.5 7.5h-5zM121 326
l-5 -6l5 -4l5 4zM119 293h-8v-7h8v7zM91 292l-5 -10l3 -1q1 0 8 5zM111 212q-1 0 -3.5 2t-5 3.5l-5 3t-3.5 1.5q-3 0 -8 -5l11 -10h6q7 0 8 5zM121 129q-1 5 -7 5t-8 -5l5 -5h3q1 0 7 5z"/>
            <glyph glyph-name="g" unicode="g" horiz-adv-x="476"
                   d="M445 54q0 -9 -2.5 -17t-7.5 -14t-12 -10t-15 -4t-20 3.5t-26 8.5q-14 6 -25.5 10t-18.5 3q-11 0 -21.5 -6.5t-17.5 -18.5q-18 -5 -34.5 -7t-33.5 -1q-61 -1 -98.5 23.5t-53.5 80.5q-12 22 -18.5 72t-7.5 123q2 86 -1.5 129t-1.5 43q0 14 10 18q-1 7 -1 13.5t-1 16.5
q2 100 52 148.5t143 52.5q27 -1 50 -5.5t42 -15.5l4 -1q17 1 36 -13.5t42 -42.5q6 -15 11.5 -35t12.5 -46q7 -6 7 -18q0 -3 -1.5 -11.5t-1.5 -12.5q0 -9 4 -15l-22 -19l-125 4q-11 14 -10 31l1 7l9 10q-11 3 -23 21q-13 19 -25 19q-5 0 -9 -2l-14 14q-12 -6 -10 -24
q-13 -14 -18.5 -31t-5.5 -38v-11q6 -4 6 -10q0 -3 -3 -9t-3 -10t5 -9l-5 -5q6 -5 6 -8t-3 -8.5t-3 -9.5q0 -3 5 -7q-9 -6 -9 -14q0 -3 2 -7t3.5 -8.5t3.5 -8.5t2 -7q0 -6 -7 -12q6 -4 6 -8t-3 -9t-3 -9q0 -2 5 -8q-1 -7 -2.5 -31t-2.5 -66v-17h-5q-4 0 -6 -0.5t-3 -1.5
q20 -36 44.5 -55t51.5 -23l9 9l-19 13q14 9 21.5 24.5t7.5 33.5v7t-1 8h3q3 0 9 -2t8 -2q5 0 9 8q-7 12 -25 9l-37 43l10 10l-10 9l-4 -4q-10 9 -10 23q0 5 1 14t1 14q0 4 -0.5 8t-1.5 7l5 5q-5 2 -5 6q0 3 2.5 7t2.5 6l22 14l134 -4q5 5 13 5q10 0 17 -6l11 -33
q-4 -88 -5.5 -129t-0.5 -40q-3 -2 9 -135v1zM342 641h-7v-7h7v7zM297 586h-5l10 -4zM251 602h-6v-6h6v6zM230 619l-5 -4l5 -6l5 6zM205 645h-8v-7h8v7zM183 548h-6l6 -6v6zM106 582l-4 -6l4 -5l5 5zM304 383h-7v-7h7v7zM111 557l-5 -9l19 9h-14zM168 473q0 1 -4 8l-5 -5
q6 -4 8 -4h1v1zM406 224h-2q-1 0 -3 -1t-4 -3l4 -6q6 7 6 8zM99 526h-7v-6h7v6zM181 441h-8v-7h8v7zM358 243l-4 -9h4v9zM335 262l-4 -5l4 -5l4 5zM128 469h-7v-7h7v7zM266 332h-7v-8h7v8zM159 419h-2q-1 0 -3 -1t-4 -3h9v4zM392 176l-5 -4l5 -5l5 5zM325 229l6 5q-4 5 -8 5
q-6 0 -7 -5l19 -20l4 6zM177 357q-1 3 -4.5 5t-7 3.5t-6.5 3t-5 3.5l19 -19zM335 181q-4 6 -12 6q-7 0 -11 -6l9 -9l1 -1q2 0 4 1.5t4 3.5l3.5 3.5zM157 341h-7v-7h7v7zM69 419q-7 5 -8 5h-2l5 -9zM342 127h-7v-7h7v7zM131 343q-2 1 -5 1q-2 0 -5.5 -2.5t-9.5 -7.5h14
q6 5 6 8v1zM306 147q-5 6 -8 6h-1l5 -10zM173 281h-2q-2 0 -7 5l-5 -10q3 -2 5 -3.5t3 -1.5h1q6 8 6 9zM297 121q0 2 -5 8l-9 -9l4 -6h3q1 0 7 6v1zM106 310h-4l4 -5v5zM339 67h-4l4 -5v5zM69 334q-4 5 -10 5q-8 0 -9 -5l4 -5h7q4 0 8 5zM140 234q-9 5 -22 5q-12 0 -12 -10
v-1v-4q5 -5 16 -5h15q5 0 3 1v14zM250 105q-4 5 -9 5h-6l10 -10zM159 191l-5 -4l5 -6l5 6zM187 102q0 1 -1 2.5t-3 5.5l-6 -5q8 -5 9 -5h1v2zM71 217h-7v-8h7v8zM216 48q-7 5 -8 5h-1l4 -10zM168 91l-4 -5l4 -5l5 5zM69 181l-5 -5l5 -4l4 4zM145 114q-9 -2 -18 -5.5
t-21 -8.5q5 5 22 5q15 0 17 9z"/>
            <glyph glyph-name="h" unicode="h" horiz-adv-x="483"
                   d="M449 45q-5 -6 -10 -34q-8 -3 -24.5 -5t-41.5 -1q-4 0 -9.5 -0.5t-12 -2t-12.5 -2t-9 -0.5q-7 0 -28 11q-4 12 -7 30.5t-3 45.5q-1 43 -0.5 67.5t0.5 27.5q0 2 1 7t3 13q0 6 0.5 11t1.5 9q-1 9 -2 21t-4 26q-10 15 -23 22.5t-30 6.5q-9 0 -17 -3.5t-14.5 -10t-11 -14
t-6.5 -15.5l5 -15q-2 1 -3 1h-2q-3 0 -5.5 -2t-5.5 -5l-5.5 -5.5l-3.5 -3.5q2 0 4 -2.5t5 -5.5l5.5 -5.5t5.5 -2.5h2t3 1q-2 -8 0 -29q0 -18 -5 -29q3 -7 4 -14t2 -13q-1 -5 -2 -12t-4 -14q3 -9 4 -20t1 -22q0 -12 -1 -22.5t-4 -19.5q-12 -15 -33 -14q-4 0 -11.5 0.5
t-15 1.5l-15 2t-11.5 1q-15 0 -26 -5h-3q-18 0 -27 12q-2 2 -5 8.5t-9 18.5q5 3 5 6t-2.5 8.5t-2.5 7.5q0 3 4 7l-2 3q3 77 5.5 115.5t2.5 36.5q-2 16 -1.5 39t-2.5 53q0 28 -1 50t-1 37q-1 35 1 62t4 49q-2 10 -3.5 22.5t-0.5 27.5q-1 12 0.5 30t3.5 41q-9 11 -10 26
q0 3 1 8t2 10.5t1.5 10.5t0.5 9q7 10 19.5 15.5t31.5 5.5q3 0 10 -0.5l21 -1.5q10 -1 17 -0.5t14 1.5l29 -5l13 -19l2 -122q-7 -6 -13 -10t-7 -11l5 -4q2 4 9 4h6q-6 -6 -6 -13q0 -5 3 -13.5t3 -13.5q0 -8 -6 -13q6 -7 11 -15t10.5 -15t13.5 -10.5t19 -3.5q4 0 10 0.5
t12.5 1.5l13 2t10.5 1q12 0 23 -5l15 15q-6 10 -15 10q-2 0 -6 -1.5t-8.5 -3.5t-8.5 -3.5t-6 -1.5q4 5 7 12.5t6 17.5q2 9 3.5 16.5t3.5 16.5q-5 7 -8 14.5t-3 15.5q0 12 6 23q-4 31 -5.5 48.5t-1.5 21.5q0 19 4 34t12 24q8 2 15 3.5t15 1.5h34l7 -3.5t8 -1.5q8 -2 16 0
q7 0 11 0.5t6 0.5q11 0 20.5 -7.5t9.5 -18.5q-2 -103 -4 -179.5t0 -117.5q0 -6 -1 -15.5t-3 -22.5q-1 -13 -1.5 -20.5t0.5 -5.5zM361 548l-5 -6l5 -4l5 4zM347 525q0 1 -6 8l-4 -5q5 -5 8 -5h1zM337 504q-7 5 -9 5l-1 -1l4 -9zM380 470q-4 5 -13 5q-12 0 -15 -11q4 -4 7 -4
q5 0 11 4.5t10 5.5zM371 421l-5 -5l5 -5l4 5zM346 455q-2 2 -6 2t-9 -2.5t-9 -8.5l5 -6zM185 582q-7 4 -8 4h-2l5 -9zM381 375l-6 6q-4 -1 -4 -6q0 -6 4 -8l5 5zM344 398h-7v-6h7v6zM356 372q-2 5 -7 5q-6 0 -8 -5l5 -5h3q1 0 7 5zM283 421q-2 3 -5 4.5t-8 1.5q-8 0 -11 -6
l4 -5h11q8 0 9 5zM170 523q-1 5 -7 5t-7 -5l4 -4h2q1 0 3 1t5 3zM92 597h-2q-2 0 -8 -6l5 -5l5 9v2zM287 401q-4 1 -7 1h-5q-22 0 -22 -12q0 -1 6 -9q2 -1 4 -1h4q24 0 30 21h-10zM219 450l-5 -10h2q2 0 9 6zM346 323q-2 6 -7 6t-8 -6l6 -5h2zM67 597h-9l9 -6v6zM195 465h-1
q-7 0 -9 -5l5 -5l10 9zM253 440q-2 2 -6 2q-8 0 -23 -17q-16 -16 -29 -14q2 -5 11 -5l3 1q19 6 30 15t14 18zM143 511h-7v-7h7v7zM303 348q-1 0 -2.5 1.5t-3.5 3t-3.5 3t-3.5 1.5h-3l10 -14zM166 474q-3 6 -10 6h-5l9 -10zM317 323q-4 4 -12 4q-14 0 -18 -9h17q9 0 13 5z
M388 233h-8v-8h8v8zM337 289q-2 -1 -6 -1q-3 0 -9.5 3t-9.5 3h-2q-1 0 -3 -1q-3 -6 -3 -10q0 -1 2 -1q3 0 8.5 1t7.5 1q7 0 9 -5q6 6 6 9v1zM116 494h-10l10 -4v4zM270 340h-7v-7h7v7zM258 358q-23 15 -31 14q-8 0 -13 -5l5 -5q2 0 6 -1.5t8 -3.5t7.5 -3.5t6.5 -1.5
q6 0 12 5zM180 426h-3q1 0 -7 -5l5 -5q5 6 5 8v2zM146 455q-3 6 -10 6t-10 -6l6 -5h5q6 0 9 5zM361 230l-5 -5l5 -4l5 4zM407 184h-7v-8h7v8zM151 421q-5 5 -9.5 10t-9.5 5q-6 -8 -7.5 -12t-1.5 -3q0 -4 3 -5h15q7 0 10 5zM166 397q0 2 -6 9l-4 -5q6 -5 8 -5h2v1zM229 327
q-13 9 -21.5 13.5t-11.5 4.5q-8 0 -16 -8q2 -7 8 -7q4 0 11.5 3.5t12.5 3.5q8 0 13 -14zM190 367q-2 1 -8 2.5t-15 4.5q-8 1 -13.5 2.5t-10.5 1.5q-4 0 -7 -1q9 -7 18.5 -11t22.5 -4h8zM331 210q-4 11 -16 11q-8 0 -12 -5q1 0 3.5 -2t5.5 -3.5l6 -3t5 -1.5q4 0 8 4zM322 182
h-10l5 -10q5 6 5 8v2zM200 309q-6 5 -18 5t-12 -11q5 -4 8 -4q6 0 12 4.5t10 5.5zM146 333q-5 10 -14 10q-11 0 -16 -10q9 -6 16 -6q5 0 14 6zM337 132h-6l6 -4v4zM180 269q-3 5 -10 5h-4l14 -9v4zM324 111h-7v-7h7v7zM75 360h-8v-7h8v7zM146 276q0 1 -5 8l-5 -10h10v2z
M126 303q-5 5 -9 5q2 0 -4.5 -2t-20.5 -7h17q6 0 10.5 1t6.5 3zM116 265h-4l4 -6v6zM122 235h-6l6 -5v5zM141 206h-9l4 -10l6 8zM151 172q-2 6 -9 4h-6l10 -9zM54 255h-6l6 -5v5zM185 98h-5l5 -4v4zM92 178q0 1 -5 9l-5 -5q6 -6 8 -6h2v2zM136 138q-2 5 -6 5q-9 0 -9 -9
l1 -2h5q6 0 9 6z"/>
            <glyph glyph-name="i" unicode="i" horiz-adv-x="234"
                   d="M201 46q1 -24 -13.5 -35t-43.5 -11q-8 0 -20.5 1.5t-30.5 3.5q-32 6 -52 5q-9 7 -9 17q0 5 2.5 13.5t2.5 13.5q0 7 -6 14q3 39 5.5 68.5t4.5 49t4 27.5t4 4q-4 6 -6 37.5t-4 90t-3.5 144.5t-3.5 201q9 19 28 29q-4 1 13 1h58q18 -1 33 -3.5t28 -7.5q5 -8 7.5 -17t3.5 -21
q-1 -7 -2.5 -16.5t-4.5 -22.5q-2 -13 -3 -23t-1 -17q0 -9 1 -23.5t2 -32.5q2 -18 2 -32.5t1 -23.5q0 -9 -0.5 -23t-2.5 -33q-1 -18 -2.5 -31t-5.5 -21q4 -91 6.5 -155.5t2.5 -111.5q0 -5 0.5 -13t2 -16.5t2.5 -16.5t1 -13h-1zM138 470q-1 2 -6 2q-7 0 -18 -7l6 -5q0 -1 1 -1
h2q4 0 15 11zM109 401q-10 -1 -24 -9q1 -6 10 -5h5l1.5 1.5l4.5 4.5t3 7v1zM70 362h-10l10 -5v5zM134 289h-6l6 -5v5zM148 210q-10 11 -13 11q-4 0 -7 -6l10 -9l2 -1q1 0 8 5zM68 286h-8v-7h8v7zM161 139h-7v-7h7v7z"/>
            <glyph glyph-name="j" unicode="j" horiz-adv-x="444"
                   d="M414 661q0 -12 -3 -21t-10 -20q4 -90 5.5 -159.5t1 -118t-0.5 -75.5t2 -32q1 -20 -2 -34.5t-9 -27.5q6 -6 6 -16q0 1 -10 -41q-5 -19 -17 -37.5t-34 -36.5q-19 -16 -38 -24.5t-41 -7.5q-14 0 -19 -9q2 -1 -9 -1h-34q-17 0 -35 10q-6 3 -30 8q-28 5 -33 6q-13 4 -25 12.5
t-21 22.5q-7 13 -15.5 26.5t-17.5 26.5l-16 145l4 4q-2 4 -3.5 7.5t-2.5 10.5q1 35 68 36q8 -1 17 -1q10 0 21 -1q16 -2 25.5 -3t13.5 -2q16 -9 16 -37v-6t-1 -16q-1 -15 0 -22q-5 -7 -5 -16q0 -3 2 -8.5t4 -12t3.5 -13.5t0.5 -12q4 -5 8.5 -10t9.5 -9t10.5 -7t10.5 -3
q8 0 14.5 5t11.5 15q11 22 22 28q-10 7 -10 23q0 6 1 12.5t4 12.5l3 -1q-1 0 2 2.5t10 7.5v3q0 -1 -10 13q-5 -6 -6 -6h-4v35q0 10 1 24t2 32.5t1.5 32t0.5 21.5t-0.5 18t-1.5 25q-2 15 -2.5 25.5t-0.5 17.5q0 5 0.5 16t1.5 28q2 16 3 25.5t1 13.5l-10 120q-1 6 3 12.5
t11 11t14.5 7.5t14.5 3q3 0 8.5 -1t8.5 -1q4 0 11 0.5t15 1t15 1.5t11 1q16 0 26.5 -3.5t17 -10.5t9.5 -18.5t4 -27.5zM351 623l-5 -10h5v10zM283 588h-4l4 -4v4zM312 536h-10l10 -5v5zM280 500h-7v-8h7v8zM302 463l-5 -5l5 -4l6 4zM316 338l-4 5l4 -10v5zM308 318
q-4 6 -13 6q-8 0 -12 -6l5 -4q-1 -1 11 -1q6 0 9 5zM379 179h-9l9 -6v6zM310 234h-8v-7h8v7zM316 179q-1 6 -8 6q-8 0 -11 -6q2 -6 9 -6h10v6zM283 179q-3 5 -7 5q-6 0 -7 -5l4 -6h2q1 0 8 6zM263 159l-4 1q-8 0 -10 -5q7 -6 8 -6l2 1q2 4 3.5 5t1.5 2zM319 94h-7v-7h7v7z
M283 102q-7 5 -8 5h-2l6 -10zM259 87q-3 6 -9 6l-5 -1l9 -9zM262 51h-8v-7h8v7zM107 191h-7v-7h7v7zM138 116l6 -4l19 18zM201 59h-5l5 -5v5zM114 150h-10q-8 0 -9 -5q1 -2 4 -3.5t7 -1.5h3q6 8 6 7zM167 92l-3 1h-3q-6 0 -9 -6l11 -10q5 3 5 10zM91 102l-6 -5l6 -5l4 5z
"/>
            <glyph glyph-name="k" unicode="k" horiz-adv-x="510"
                   d="M481 29q0 -5 -0.5 -9t-1.5 -8q-5 -4 -10 -6.5t-11 -2.5q-5 0 -14 1.5t-15 1.5q-11 0 -18 -4q-4 2 -8.5 2.5t-9.5 1.5q-8 1 -18 0q-5 -1 -12 -1h-7q-32 1 -43 21q-3 8 -7 22t-11 35q-6 23 -11 39t-10 25q-5 7 -8.5 14.5t-8.5 16.5q-10 16 -10 31q0 9 3 17q-1 1 -7.5 4
t-18.5 11q-8 5 -15 7t-13 2l-14 -14q14 -8 13 -24q0 -6 -2.5 -17t-2.5 -18q0 -10 6 -14q-6 -10 -5 -17q0 -5 3.5 -17.5t3.5 -18.5q0 -3 -0.5 -5.5t-1.5 -5.5h-2q1 0 -12 -10q15 -6 15 -27q-1 -23 -0.5 -33t-0.5 -8l-15 -15q-5 0 -14 -0.5t-24 -3.5q-25 -2 -37 -3
q-46 0 -65 22q-3 8 -3.5 15.5t-0.5 17.5q0 7 1 17t4 24q2 29 7 44q-4 161 -4.5 241.5t-4.5 76.5q-1 3 0 13t2.5 20.5t2 18.5t-0.5 7q-2 73 -6.5 109.5t-2.5 40.5q0 36 19 48q6 0 16 0.5t24 2.5q11 2 20.5 2.5t16.5 0.5q43 1 65 -21q2 -8 2 -13q0 -8 -4 -22.5t-4 -22.5
q0 -11 6 -20h-2q-1 0 -12 -10q3 -4 6.5 -7.5t7.5 -2.5q2 -4 2 -5q0 -5 -7 -9l-6 -3t-3 -2l9 -9l-9 -10q9 -4 16 -23q7 -20 18 -21v-5h-5q-7 -1 -10 5q-5 -3 -5 -12v-3q8 -10 24 -20q12 8 11 19l-1 5l-4 6q1 -1 2 -1h1q3 0 16 11q-2 4 -2 8q0 9 8.5 24t8.5 26h5q12 -1 19 9
l-10 10q8 13 18 47q5 18 9.5 30t9.5 18q13 22 42 22h7q1 -1 4 -1h3q10 0 25.5 1t23.5 1q39 0 52 -21q-4 -11 -11 -29t-17 -42l-60 -116q-21 -45 -34 -77t-15 -54l56 -130q1 -2 3 -5t4 -7q3 -11 7.5 -25t14.5 -22q-1 -1 -1 -6q0 -14 14 -28q2 -10 9 -25.5t20 -37.5
q12 -20 17 -36t6 -29zM387 582v4h-6zM353 508v6l-6 5zM328 524q-1 4 -8 4q-4 0 -7 -4l5 -5h1q1 0 9 5zM269 524v4h-4zM280 486q0 2 -6 8l-9 -10q2 2 9 -4l5 4zM316 431v7h-7v-7h7zM147 588q0 2 -4 9l-5 -6l7 -5h2v2zM274 464q-3 6 -9 6h-5q-6 -3 -6 -7q0 -8 8 -8q3 0 7 4.5
t5 4.5zM245 484q-6 6 -8 6h-2l5 -10zM172 552h-5v-4zM186 519q-1 0 -4.5 4.5t-7.5 4.5q-7 0 -7 -7q0 -5 5 -7h4q9 -1 10 5zM143 557q-9 10 -14 10t-6 -4q8 -5 11.5 -7l3.5 -2q3 0 5 3zM240 450q-2 5 -6 5q-9 0 -9 -8l1 -1h3q8 0 11 4zM294 401q-7 4 -19 4q-22 0 -25 -18
q3 -3 10 -3q5 0 15 8.5t17 8.5h2zM138 521v3h-2l-8 -5l5 -5q2 4 3.5 5.5zM245 416h-1q-22 3 -37 10t-21 20l-4 -15q9 -4 15 -6l6 -2q10 -7 13 -17h9q16 0 20 10zM289 350v3q1 1 -3 1h-17q-9 0 -9 -11q0 -6 7 -6h9q5 0 5 1t3 5q5 4 5 7zM172 472v2q-5 -3 -13 -3q-25 0 -26 -1
q4 -10 20 -10h9q1 1 5.5 5t4.5 7zM109 504v4l-15 6zM172 440q-2 6 -8 6t-7 -6l5 -4h2q1 0 8 4zM367 236l-8 5q-7 0 -7 -8q0 -5 5 -7zM240 353q-8 10 -24 20q5 -3 5 -9q0 -4 -5 -7q12 -7 18 -7q3 0 6 3zM260 329l-6 4l-9 -10l5 -5zM160 416v7h-8v-7h8zM303 280q-1 4 -7 4
q-4 0 -7 -4l5 -6h1q3 0 8 6zM201 401q-5 11 -11 11q-4 0 -11.5 -9t-14.5 -9q-3 0 -7 3l-5.5 -5.5t-4.5 -8.5v-2q8 3 15 4.5t14 3.5q17 4 25 12zM280 287q0 8 -11 8q-8 0 -9 -6l14 -9q6 4 6 7zM333 222q0 3 -5 8l-5 -4l7 -5zM130 421v7h-7v-7h7zM89 464l-5 6l-5 -6l5 -4z
M284 250v5l-5 5zM201 343q-5 6 -7 6q-11 0 -12 -16q1 -1 3 -1h1q2 0 15 11zM177 360v2q-5 6 -14 6q-11 0 -11 -9q0 -6 8 -6h12zM353 175v2h-12q-6 0 -8 -5q3 -5 8 -5h6l4.5 6zM216 315q0 2 -6 8q2 1 -3 1h-21q-13 0 -14 -10q4 -3 10 -4.5t11 -1.5q14 0 23 6v1zM230 287
q0 7 -6 7q-4 0 -14 -10q4 -4 9 -4h7q4 4 4 7zM362 150v3h-1q-4 0 -8 -6l4 -4zM260 250q-5 6 -8 6q-4 0 -7 -6l5 -4l1 -1q1 0 9 5zM279 226l-5 4l-5 -4l5 -4zM164 333v7h-7v-7h7zM133 362v5h-5zM103 387q-2 5 -8 5q-11 0 -16 -11h15q7 0 9 6zM172 294h-5v-5zM152 314
q-1 4 -7 4t-7 -4l5 -5h1q1 0 8 5zM197 258q0 8 -11 8q-10 0 -10 -9q0 -7 10 -7h5l4.5 6zM360 85v7h-7v-7h7zM99 338h-5v-5zM152 286v3q-7 -4 -15 -7.5t-9 -11.5q2 8 13 9q12 2 11 7zM104 297l-1 2v1q-2 0 -9 -6l5 -5q5 7 5 8zM172 246q-18 5 -24 5q-7 0 -20 -5v-5
q0 -9 5 -11q6 13 18 13q16 1 21 3zM157 188q0 1 -5 8l-5 -5q7 -4 8 -4h2v1zM123 206v5h-4zM164 157v8h-7v-8h7zM140 172v7h-7v-7h7zM130 99v7h-7v-7h7z"/>
            <glyph glyph-name="l" unicode="l" horiz-adv-x="431"
                   d="M423 41q0 -20 -12.5 -29.5t-35.5 -9.5q-7 0 -16 1t-22 3q-24 6 -38 4l-205 -8q-4 4 -8 4q-3 0 -8 -3t-8 -3q-2 0 -11 7.5t-26 22.5q4 69 6 120.5t0 79.5q1 15 2 26.5t5 18.5q-4 88 -4 161q0 72 -2 137q0 17 -3 53q-1 19 -1.5 32t0.5 22q-2 24 28 39q5 1 10 1h9
q9 -1 21 -1t28 -2q17 -2 29 -2t21 -1q16 0 19 -17q1 -1 1 -27q0 -12 6 -20q-9 -63 -9 -90q1 -10 1.5 -19.5t0.5 -17.5l-7 -10l7 -265q-4 -7 -4 -11q0 -5 2.5 -12t2.5 -11q0 -6 -5 -10q5 -7 5 -17q0 -7 -1 -11t-4 -8q28 -31 54 -29l123 10q6 0 14 -2.5t15 -6.5t12.5 -9.5
t7.5 -10.5q-6 -11 -6 -26q0 -5 1 -12t2 -15t2 -15t1 -11zM275 139v8h8v-8h-8zM155 471h-8v-8h8v8zM133 449h-4l4 -5v5zM153 385h-6l6 -5v5zM130 378h-7v-8h7v8zM103 385q-1 3 -6 3q-7 0 -18 -8l4 -5h3h2q5 0 15 10zM170 304h-7v-8h7v8zM130 250h-7v-8h7v8zM74 316q2 1 -2 1
h-12q-8 0 -11 -5l6 -6h4q3 0 15 10zM261 90l-5 -5l5 -5l5 5zM173 144h-6l6 -5v5zM99 213l-5 -9l1 -1q2 0 8 5zM155 151h-8v-7h8v7zM197 95q0 5 -7 5q-8 0 -8 -8v-2h15v5zM119 129q-4 0 -9.5 5t-8.5 5q-4 0 -7 -5l9 -9h4q9 0 12 4zM123 50h-4l4 -4v4z"/>
            <glyph glyph-name="m" unicode="m" horiz-adv-x="618"
                   d="M583 678q0 -11 -1.5 -29.5t-3.5 -43.5q-3 -24 -5 -42.5t-1 -30.5q1 -15 2 -28.5t3 -25.5q-9 -4 -9 -11q0 -5 3 -8.5t13 -6.5l-2 -373q-2 -3 -2.5 -6.5t-1.5 -8.5q-1 -3 0 -13q1 -5 1 -9v-5q0 -27 -24 -33q-3 -1 -14 -1.5t-30 -0.5q-11 0 -17 -1q-4 2 -11.5 3t-20.5 1
q-14 0 -23 16q3 12 4.5 26t1.5 28q0 8 -1 22t-3 31q-1 18 -2 31t0 22q-1 15 0.5 28.5t5.5 27.5h2q1 0 2.5 -1.5t4.5 -3.5l10 10q-1 16 -25 15l19 19h-2q-15 -1 -16 20q-2 21 -17 20h-3q-4 -3 -9 -9.5t-10.5 -13.5t-11 -13.5t-9.5 -8.5q3 -2 5 -3.5t3 -1.5h3l4 5
q-2 -7 -3.5 -14t-3.5 -14q-3 -9 -5.5 -15t-7.5 -11q2 -6 3 -13q0 -5 -1.5 -12t-2.5 -15t-2.5 -14.5t-1.5 -11.5q0 -3 1 -9t1 -10q-1 -25 -17 -43q2 -3 2.5 -7t0.5 -10q0 -12 -3 -24t-11 -23q-16 -25 -41 -25q-4 0 -7.5 2.5t-6.5 5.5t-6 5.5t-6 2.5h-2t-1 -1
q-7 27 -13.5 54.5t-10.5 56.5q-6 34 -10 61t-7 50h1l14 10q-7 4 -10.5 7l-3.5 3h-1l-6 -7q1 22 -9 41t-29 34q1 1 -24 1q-16 0 -16 -13q0 1 2.5 -2t7.5 -10h25q-3 -14 -4.5 -24.5t-0.5 -15.5h-3q-2 0 -7 5q-10 -14 -10 -12v-3l10 -9l3 4l1 -108q3 -5 4.5 -12.5t1.5 -16.5
v-15h-3q3 0 -12 -9q16 -5 16 -26q0 -1 -0.5 -6t-1.5 -13q-1 -12 1 -19l-15 -16q-9 2 -18 2q-5 0 -13.5 -1.5t-18.5 -2.5t-18.5 -1.5t-14.5 -0.5q-21 0 -32.5 6.5t-10.5 19.5q0 5 1.5 12t1.5 11q0 8 -5 14q5 2 5 6q0 3 -2.5 7.5t-5.5 6.5l8 153l3 8q0 63 -1 103t-2 59
q0 14 1 23.5t6 14.5l-12 244q6 16 19 23.5t31 7.5h11q7 0 15 -1h28q5 -1 13.5 -1.5t19.5 -2.5q22 -3 36 -1q9 -7 15.5 -19.5t9.5 -30.5q4 -15 7 -30t7 -29h-2q1 0 -13 11l-4 -6q14 -7 22.5 -21.5t9.5 -36.5q2 -26 6 -43.5t10 -26.5q-1 2 -1 -23q0 -12 11 -15h3q-2 -1 -7 -1
q-9 0 -11 5q-5 -1 -5 -7t5 -7q2 -6 7 -9t11 -5q18 -4 21 -6l16 14l-10 9q0 5 4 8t9 6t10 5.5t6 6.5q-11 9 -11 18q0 3 2 8t4.5 11t4.5 11.5t2 9.5q0 3 -0.5 5.5t-1.5 5.5h5q6 -1 13 3t7 9q0 2 -6 7h-10q7 19 6 25q1 -1 3 -1q5 0 17 11q-10 14 -10 33q0 18 8 43q4 10 8 20.5
t8 21.5q18 15 52 15q2 0 10 -0.5t23 -1.5q10 -1 18.5 0t13.5 2q12 -3 23 -4.5t23 -3.5q25 -8 25 -32v-1zM568 625q-6 6 -12 5q-4 1 -28 -20q4 11 16 11q19 0 24 4zM498 625q-7 -1 -19 -9q7 1 19 9zM424 616l4.5 -4.5t3.5 -1.5t4.5 2.5t5 5.5t4.5 5t3 2zM459 562q0 3 -5 9
q-5 -3 -5 -7q0 -5 5 -8l4 6h1zM513 507q-10 11 -14 11t-5 -6q11 -11 15 -11q3 0 4 1v5zM531 485h-8v-7h8v7zM484 502l-10 -10l5 -4q5 1 5 8v3v3zM503 444q-5 -4 -5 -8q0 -8 8 -8q1 0 2 1.5t5 4.5zM435 507l-6 -5l6 -4l4 4zM400 529q0 9 -9 9q-8 0 -11 -6l15 -10zM458 454
q-2 -1 -5 1.5l-6 5l-6 5t-4 2.5q-3 0 -8 -5q3 0 6 -2.5t6.5 -5t6 -5t4.5 -2.5q3 0 6 6zM378 525h-7v-7h7v7zM459 427q0 7 -6 7q-4 0 -14 -10q2 -6 9 -6h6q5 7 5 9zM424 446q0 8 -6 8q-8 0 -8 -9v-1l7 -6h3q4 7 4 8zM569 298h-7v-7h7v7zM479 404q-4 4 -8 4q-2 0 -5.5 -2.5
l-7 -5t-7.5 -4.5t-6 -2l4 -4q2 1 6 2t9 2.5t9 3.5t6 6zM395 492q2 1 -4 1h-20q-17 0 -25 -5l15 -10q3 4 19 5q14 2 15 9zM508 350q-2 5 -7 5q-6 0 -7 -5l4 -5h2q2 0 8 5zM400 454q-12 9 -16 9q-9 0 -9 -8q0 -4 5 -7h12q5 0 8 6zM420 398l-5 -4l5 -4l4 4zM484 320v-4l5 4h-5z
M405 404q-3 1 -8.5 5.5t-8.5 4.5q-5 0 -8 -5l11 -11h3q8 0 11 6zM189 616q-13 0 -16 4l-4 -4q1 -6 8 -6h12v6zM449 375h-4h-3q-3 0 -11 -1t-11 -1q-6 0 -11 2.5t-9 8.5l-1 -4q0 -4 3.5 -7t8 -6.5t8.5 -6.5t5 -6h4h2q3 0 5 2.5t4 6.5t4.5 7.5t5.5 4.5zM464 340q-4 5 -12 5
q-10 0 -13 -5l6 -5h10q6 0 9 5zM496 303h-7v-7h7v7zM531 259h-8v-8h8v8zM371 434q-4 -10 -14 -10q-19 0 -21 -10l10 -10h3q5 -1 8.5 1.5t6.5 7.5q10 15 11 15zM173 591l-4 -5l4 -4l6 4zM489 276l-5 -5l5 -5l5 5zM385 380q-16 -5 -20 -20l6 -6q3 4 6.5 10.5t7.5 15.5z
M217 522v-4l6 4h-6zM258 484q0 1 -6 8l-9 -10l5 -4h1q1 0 2.5 1t5.5 3zM173 566h-4l4 -4v4zM523 217l-5 -5l5 -5l5 5zM341 393q0 6 -10 6q-7 0 -10 -5q1 0 5.5 -5t8.5 -5h1q5 7 5 9zM125 592q0 3 -5 9l-5 -5q4 -3 5 -4.5t2 -1.5l3 1v1zM228 482l-7 6h-4l6 -10zM252 461
q0 7 -5 7q-10 0 -10 -8v-2q8 -5 9 -5l2 1q4 4 4 7zM415 320q-4 18 -16 18q-4 0 -12.5 -1.5t-11.5 -1.5q-9 0 -14 5l10 -20l-19 -9q14 -4 22 -5t12 -2q22 1 29 16zM144 551l5 -5l5 5h-10zM209 502q0 7 -5 7q-3 0 -20 -7l15 -14l2 -1q1 0 7 5q1 4 1 6v4zM301 394l-9 -10l5 -4
h4q7 -2 10 4zM246 441h-9v-7h9v7zM165 519q0 2 -6 8l-10 -9l5 -6h1q2 0 9 6zM322 362q0 8 -7 8q-4 0 -14 -10q3 -6 9 -6h7q5 7 5 8zM105 571l-5 -9q16 -10 14 -10q4 0 6 4zM458 217l-4 -5l4 -5l6 5zM223 448q0 6 -6 6q-9 0 -9 -9v-1h15v4zM283 398q-9 16 -19 16t-22 -10
q-5 -4 -9.5 -7.5t-9.5 -6.5l5 -6h4q8 0 11 6q2 0 5.5 1.5t7.5 3l8 3t7 1.5q5 0 12 -5v4zM336 331q-1 3 -2 4t-5 1q-2 0 -6 -1.5t-8.5 -4t-8 -4t-5.5 -1.5l10 -9q1 2 4.5 4t8 4t8 3.5t4.5 3.5zM489 168q-3 0 -6.5 1.5t-7.5 3.5t-8 3.5t-7 1.5q-5 0 -11 -5q9 -4 16 -5.5
t13 -1.5t11 2zM115 522h-2q-1 0 -8 -4l5 -6q5 8 5 9v1zM380 251l-15 6l15 -10v4zM223 424q-2 -1 -5 -1.5t-6 -0.5q-11 0 -26 8q-16 9 -20 8h-2q4 -6 20 -12q13 -8 15 -17h9q7 0 12.5 2.5t7.5 6.5zM481 136h-7v-7h7v7zM277 345q-5 10 -15 10q-12 0 -25 -10l11 -10q2 -1 3 -1
h1q3 0 7 1.5t7.5 3.5t6.5 3.5t4 2.5zM154 472q-12 -2 -18.5 -3l-6.5 -1q-4 0 -7.5 1t-6.5 3l-5 -4q4 -10 17 -10h17l2 1.5t4 3.5t3.5 4t1.5 4zM80 507l-4 5l4 -10v5zM341 271h-4h-4q-8 0 -18 -3q-15 -6 -18 -7l4 -4h9q22 -2 31 14zM361 237q-3 5 -11 5h-14q-5 -3 -5 -8
q0 -7 11 -7q12 0 19 10zM208 370q-10 -5 -10 -12q0 -13 19 -13q4 0 6.5 1.5t4.5 3.5zM243 323q0 8 -7 8q-8 0 -8 -9v-2q6 -5 7 -5l2 1q6 5 6 7zM184 398q-5 12 -13 12q-11 0 -22 -16l-5 4q-2 1 -3 1h-1q-3 0 -15 -9l3 -1.5l1 -0.5q5 0 13.5 3.5t12.5 3.5q3 0 4 -1h14
q7 0 11 4zM243 292q6 -13 13 -18.5t16 -6.5q9 0 15 9zM365 178l-4 -5l4 -5l6 5zM68 471h-7v-8h7v8zM317 217q-8 12 -16.5 19.5t-17.5 10.5l18 -15l-4 -5q12 -11 15 -11t5 1zM267 248q0 3 -4.5 8t-5.5 5l-5 -10q2 -4 10 -4h3h2v1zM173 345l-9 -10l5 -4l10 9zM159 357
q0 13 -14 13q-11 0 -16 -10q7 -12 20 -11l5 1zM336 178q-3 5 -7 5q-3 0 -8.5 -5t-9.5 -5l6 -5l2 -1h1q4 0 16 11zM304 190h-7v-7h7v7zM339 148q-6 0 -8 -5l5 -5q8 2 12 4.5t3 5.5h-12zM252 232l-4 -5l4 -5l5 5zM71 390h-10l10 -6v6zM125 316l-5 -10l5 5v5zM154 242
q-2 5 -8 5q-5 0 -7 -5l5 -5h2q2 0 8 5zM83 303h-7v-7h7v7zM105 242l-1 -2q0 -4 7 -4t9 6h-15zM137 200h-8v-8h8v8zM117 180h-7v-7h7v7zM137 160h-8v-7h8v7z"/>
            <glyph glyph-name="n" unicode="n" horiz-adv-x="492"
                   d="M458 49q-1 -7 -2 -16t-4 -15.5t-8.5 -11.5t-13.5 -5q-8 2 -15.5 3.5t-16.5 0.5q-4 0 -11.5 -0.5t-15.5 -1.5t-15.5 -1.5t-12.5 -0.5q-19 0 -38 10q-13 20 -18.5 40t-5.5 43q-2 4 -9 25t-20 61q-10 43 -17.5 69t-11.5 33q4 -2 11 -1q32 0 42 20q-4 5 -12 5h-17
q-3 -8 -9 -8q-3 0 -9 3.5t-10 3.5q-7 0 -11 -9l-5 5q-16 -7 -19 -30q-3 -22 -16 -29q10 -7 10 -16q0 -5 -2 -13.5t-2 -13.5q0 -10 10 -17q0 7 0 -15v-73q-1 -25 -1.5 -45t-4.5 -38q-8 -6 -20.5 -8.5t-29.5 -3.5q-35 1 -50.5 1t-12.5 1q-29 10 -29 43q0 12 5 20l-8 7
q2 49 3 87.5t1.5 66.5t1 47t1.5 29q0 14 6 20q-4 28 -5 59.5t1 68.5l-1 113l4 7l-9 121q12 28 33 28q6 0 11 -3q-1 -1 12 -1q12 0 40 1q13 0 23.5 0.5t18.5 3.5q15 -10 27.5 -26.5t19.5 -40.5q4 -20 9.5 -39.5t12.5 -40.5q7 -16 11 -31t8 -28q-11 11 -15 11h-1t-3 -1
l-11 -10q4 -5 10 -9t14 -9q7 -4 12 -10t8 -16q5 -14 32 -15h14l9 9t5 10q-3 6 -10 6h-4l-5 -7q4 28 4 62q1 10 0.5 26.5t-3.5 38.5q-1 21 -3 37t-1 28q-1 11 0.5 20.5t2.5 15.5q0 5 3 7.5t7.5 5t9 4t9.5 3.5q13 -6 29 -6q4 0 10 0.5t12.5 1l13 1t9.5 0.5q36 1 39 -37
q-5 -1 -5 -5q0 -3 1.5 -7t-3.5 -8q-1 -100 -1.5 -172.5t-1 -120t0 -70.5t0.5 -22q-2 -1 0 -57.5t9 -167.5zM333 565h-7v-8h7v8zM385 503q-3 5 -10 5t-9 -5l9 -10zM341 523q0 7 -5 10q-5 -8 -7 -11.5t-2 -2.5q0 -6 5 -6q2 0 9 6v4zM195 634h-7v-8h7v8zM419 399l6 -4l5 4h-11z
M228 582l-5 4zM391 417q0 8 -11 8q-7 0 -10 -6q1 0 5.5 -4.5t7.5 -4.5h2zM356 434q-4 2 -5.5 3.5t-2.5 1.5h-2l4 -10zM430 355l-5 -10h1q1 0 3.5 1.5t5.5 3.5zM329 452h-7v-8h7v8zM193 577q-6 5 -7 5h-3l5 -9zM218 538v-5l5 5h-5zM104 646q-3 6 -12 6t-12 -6l4 -5h12
q6 0 8 5zM292 449l-5 -5l5 -5l4 5zM193 547q-3 7 -10 7t-10 -7l5 -5h4q7 0 11 5zM346 415q-3 -7 -9 -11.5t-16 -6.5t-16.5 -5t-8.5 -7q2 -1 4 -1h4q7 0 14 2t15 6l27 13zM208 527q-4 6 -7 6q-4 0 -13 -14q2 -6 8 -6h7q5 3 5 10v4zM159 567q-4 2 -5.5 4t-2.5 2h-2l4 -11z
M312 419l-10 -9h4l4.5 4.5t1.5 2.5v2zM218 490q0 3 -6 9l-4 -6l7 -5l3 1v1zM129 577v-4l5 4h-5zM287 425q-2 4 -8 4t-7 -4l4 -6h2q3 0 9 6zM238 473l-10 -10l10 -9l9 9zM293 412h-6v-7h6v7zM350 350l-9 -10h4q8 0 11 5zM336 365q-4 6 -14 6t-10 -9q0 -7 7 -7h12l5 7v3z
M178 513q-1 1 -2 1t-2 1q-11 0 -11 -10q0 -5 5 -6l1.5 1t5.5 4q3 4 3 7v2zM375 312q-1 15 -23 15q-23 0 -21 -14v-1q8 -7 22 -7q7 0 12.5 1.5t9.5 5.5zM390 282q-2 5 -7 5q-6 0 -8 -5l5 -6h2q1 0 8 6zM198 483q-4 6 -10 6q-5 0 -12.5 -5t-12.5 -5q-1 -1 16 -1q7 0 11.5 1.5
t7.5 3.5zM323 343h-7v-7h7v7zM149 503h-5l5 -4v4zM232 444q-12 11 -15 11q-9 0 -9 -9q0 -6 4 -7q-3 -2 -6.5 -3t-7.5 -1q-15 0 -20 -6q5 -1 14 -5.5t15 -4.5t11 6l-10 9zM243 416q0 1 -1.5 3t-3.5 6l-26 -20l6 -6q1 3 4.5 5.5t7.5 4.5t7.5 3.5t5.5 2.5v1zM292 370q-5 5 -8 5
t-6 -3.5t-5.5 -8t-5 -8.5t-5.5 -5l5 -5zM198 463q-3 1 -4 1h-1q-7 0 -17 -3q-8 -4 -12 -5t-5 -2l4 -5q1 0 5.5 1t14.5 3q11 1 15 10zM400 228h-2q-8 0 -8 -8v-2h6q5 6 5 7zM326 292v-6l5 6h-5zM312 315v2v4q-6 6 -8 6t-4 -3.5t-4 -7.5t-4.5 -7t-4.5 -3l5 -5q0 1 3.5 2.5
t7.5 3t6.5 3.5t2.5 5zM267 390q-9 8 -19 8q-7 0 -13.5 -3t-15.5 -9q-13 -10 -19 -15.5t-7 -5.5q2 -5 11 -5h4q8 10 28 17q12 4 19.5 7t11.5 6zM144 469q-6 6 -12 6q-9 0 -17 -12q2 6 7 6q2 0 7 -3t7 -3q4 0 8 6zM351 254q0 1 -5 8l-10 -10l5 -5h1q3 0 8 5zM282 323q0 8 -7 8
q-8 0 -8 -9v-1q6 -5 7 -5h2q6 6 6 7zM370 232l-1.5 1.5t-3.5 5.5q-4 3 -7 3q-8 0 -8 -7q0 -6 6 -7l4 -1q9 0 10 5zM149 444q-2 5 -7 5q-6 0 -8 -5l5 -5h2q1 0 2.5 1.5t5.5 3.5zM257 338q0 7 -9 7t-16 -9q2 -5 9 -5q12 0 11 1q5 4 5 6zM316 282q-4 2 -7 3t-6 1q-21 0 -27 -20
q3 3 8.5 5t11.5 4t11.5 3.5t8.5 3.5zM156 422h-7v-7h7v7zM62 516h-7v-8h7v8zM198 395q-2 1 -4 1h-4q-5 0 -12 -1t-14 -3q-19 -5 -26 -6q4 -1 9 -2.5t11 -3.5t11 -3t9 -1q12 0 20 9v10zM331 242q-6 5 -13 7t-14 2q-15 0 -28 -9q7 -10 16 -10q3 0 8 1.5t10.5 3.5t11 3.5
t9.5 1.5zM204 342l-6 8l-5 -5q6 -5 8 -5h2zM361 174q0 2 -5 9l-6 -5q7 -5 8 -5h2zM223 312q-2 4 -8 4q-5 0 -7 -4l4 -6h2q1 0 9 6zM124 399q-2 6 -8 6q-5 0 -7 -6l6 -4v-1q2 0 9 5zM322 192q-4 6 -9 6q-3 0 -7 -6l6 -4v-1q3 0 10 5zM262 252q-2 0 -5 2t-5.5 4.5t-5 4.5
t-3.5 2q-2 0 -3.5 -1t-1.5 -2l18 -15zM370 143l-5 1q-7 0 -9 -6q6 -5 7 -5l3 1q5 5 5 8zM159 345q-3 6 -9 6h-2l-4 -1l9 -10zM129 365l-10 -10l5 -5l10 10zM282 212q-3 6 -8 6q-8 0 -8 -11v-2t1 -2zM323 166h-7v-8h7v8zM175 336q0 3 -0.5 5t-1.5 4q-1 -11 -17 -18
q-17 -6 -22 -15l10 -10q5 2 10.5 5t10 6.5t7.5 9t3 13.5zM292 178h-2q-1 0 -8 -5l5 -5l5 7v3zM109 350l-10 -10h5q8 0 11 5zM173 271q-4 3 -5 4.5t-2 1.5l-3 -1l10 -10v5zM350 89l-4 -4l4 -6l6 6zM104 292q4 -19 21 -19q6 0 9 3zM124 192q-2 6 -8 6q-4 0 -7 -6l6 -4v-1
q2 0 9 5zM80 148h-15l15 -5v5z"/>
            <glyph glyph-name="o" unicode="o" horiz-adv-x="471"
                   d="M441 234q-8 -5 -8 -10q0 -3 2.5 -10.5t2.5 -10.5v-4t1 -4q-8 -49 -21.5 -84.5t-30.5 -56.5q-25 -30 -59 -42t-83 -11q-43 -1 -75.5 8.5t-56.5 23.5q-14 11 -27.5 28t-23.5 38t-16.5 41.5t-9.5 37.5q-4 99 -4.5 148t-3.5 51q1 0 2.5 40.5t7.5 126.5q2 29 10 49t23 36
q7 25 23 42.5t45 29.5q44 20 101 20q52 0 92 -15.5t67 -49.5q-1 -2 -1.5 -3.5t-0.5 -3.5q0 -3 3 -7t6.5 -8.5t7 -8.5t4.5 -7q3 -11 6.5 -26.5t5.5 -35.5q4 -48 7 -92t5 -86zM357 582q0 2 -5 7l-5 -4q4 -2 5 -3.5t2 -1.5l2 1zM318 604q-1 5 -5 5t-8.5 -4.5t-5.5 -4.5h19v4z
M392 525h-7v-6h7v6zM347 556q-2 6 -8 6q-5 0 -6 -6q1 -2 3 -3.5t4 -1.5h7v5zM240 663h-8v-7h8v7zM342 519l-5 -5l5 -5l5 5zM285 570l-5 5l5 -9v4zM251 614q-1 3 -4 3l-3.5 -2t-11.5 -7q2 -4 6 -4q-1 0 13 10zM358 473h-6v-7h6v7zM212 611h-7v-7h7v7zM318 504q-4 -1 -7.5 2.5
t-6.5 7.5l-5 -5q11 -10 15 -10h2t2 1v4zM399 397l-1.5 2t-2.5 6l-6 -6q4 -2 5.5 -3l1.5 -1h3v2zM162 633q-5 5 -12 5t-12 -5q3 -6 9 -6q16 0 15 1v5zM190 562q0 3 -4 8l-5 -4q3 -3 4.5 -4l1.5 -1zM375 362h-5l5 -5v5zM166 556v-5l5 5h-5zM414 314q-3 5 -10 5h-15q3 -7 17 -7
q3 0 5 0.5t3 1.5zM311 345h-7v-7h7v7zM411 246h-7v-7h7v7zM124 500q-4 2 -5.5 3.5t-2.5 1.5l-2 -1l5 -9zM138 485q-9 -1 -19 -12v-2q1 2 4 3.5t6.5 2.5t6 2t2.5 4v2zM309 385q-4 6 -7 6t-7 -2t-7 -2q-8 0 -8 10l1.5 2t3.5 6q-2 4 -3.5 7.5t-0.5 7.5q0 4 1 10t3 12t3.5 11.5
t1.5 8.5l5 -5l4 5l-4 4l-5 -4q-10 9 -10 22q0 3 1 8.5l2 11l2 11t1 7.5q0 10 -5 19.5t-12.5 17t-17 12.5t-18.5 5q-22 -1 -32 -28q-5 -6 -11 -44v-1q0 -3 2 -10t2 -11q0 -8 -8 -11q8 -8 8 -19q0 -5 -1.5 -14t-1.5 -14q0 -8 3 -14q-5 -3 -5 -7q0 -2 3 -5.5t3 -5.5q0 -4 -5 -7
q6 -10 4 -28q-1 -20 0 -28q-5 -5 -5 -11q0 -5 2.5 -12.5t2.5 -11.5q0 -8 -8 -13q-7 5 -10.5 8t-5.5 3t-4 -1v-5q7 -5 11 -7l4 -2q4 0 5 4l8 -10v-5q0 -6 -4 -9q4 -5 4 -18v-19q-5 -7 -5 -12q0 -3 2.5 -8t5.5 -10t5.5 -10t2.5 -9v-4q8 -17 20.5 -25.5t31.5 -8.5h4q3 0 5 1
q-2 3 -3.5 6.5t-1.5 6.5q1 4 4.5 9.5t7.5 12.5t8 14.5t5 16.5q-2 33 -2.5 52.5t-3.5 28.5q6 4 6 9q0 3 -2.5 8.5t-2.5 8.5q0 5 4 7l-5 5v4q0 8 5 10l-5 5q-1 3 -1 5v7q1 19 7 27.5t17 8.5h2q2 0 4 -1zM342 248h-5l5 -5v5zM179 402h-8v-7h8v7zM335 222h-7v-7h7v7zM109 439
q0 1 -1 3t-3 5q-6 -1 -6 -7q0 -4 6 -7l4 5v1zM350 184h-8v-8h8v8zM162 343v-5l4 5h-4zM295 153l-5 -10l28 10h-23zM333 111l-5 -6l5 -4l4 4zM164 265h-7v-8h7v8zM80 343q-6 6 -7 6l-2 -1l5 -10zM292 123h-7v-8h7v8zM107 298h-7v-7h7v7zM138 267h-2q-8 0 -8 -8v-2h5q5 7 5 9
v1zM181 201q-3 -1 -10 4l-5 -10q6 -4 8 -4h2q5 6 5 8v2zM261 105q-4 6 -11 6q-8 0 -12 -6l5 -4h10q7 0 8 4zM119 229h-5l5 -5v5zM80 257q0 3 -2.5 4.5t-6.5 1.5q-8 0 -9 -6l5 -5h4q8 0 9 5zM271 63h-10l10 -5v5zM205 120q-3 -2 -11 5l11 -10v5zM235 89h-7v-7h7v7zM64 231h-7
v-7h7v7zM173 123h-7v-8h7v8zM147 153q-4 5 -14 5q-9 0 -9 -9q0 -6 7 -6h12q5 7 5 8z"/>
            <glyph glyph-name="p" unicode="p" horiz-adv-x="456"
                   d="M445 507q-3 -4 -4.5 -26t-7.5 -62q-2 -22 -11.5 -41t-27.5 -38q-15 -18 -33.5 -30.5t-40.5 -18.5q-8 -2 -22 -3.5t-37 -1.5q-44 0 -58 -26q-3 -5 -5 -8.5t-5 -7.5l14 -209q1 -9 -6.5 -17t-23.5 -18q-11 7 -35 5q-5 1 -13 0.5t-17.5 -1.5t-18 -1.5t-14.5 -0.5
q-23 0 -34 11.5t-7 34.5l2 253q1 -1 5 -1q7 0 24 16v2q0 3 -6 8l-23 -6l-1 64q0 17 1.5 32t3.5 28q-4 1 -4 8v11l3 9l-9 215q1 6 7.5 14.5t20.5 16.5l219 -3q7 -7 17 -7q5 0 13 1t13 1q12 0 23 -12q13 -11 20 -8q34 -25 51 -59t16 -84q9 -18 9 -41zM385 524q0 3 -6 9
q-4 -3 -4 -8q0 -4 4 -7l5 5zM256 646l-5 5zM340 597q-15 7 -23 11.5t-7 3.5q-19 9 -34 9q-4 -5 -8 -5q-3 0 -9.5 3t-8.5 3q-4 0 -8 -5l19 -11q9 6 20 6q5 0 12 -2t16 -6t16 -6t11 -1h4zM343 496h-8v-8h8v8zM303 530h-7v-7h7v7zM330 469l-4 -10l1 -1q2 0 8 5zM173 617
q-3 5 -10 5q-12 0 -10 -8v-3h11q7 0 9 6zM326 394h4l15 16zM296 419q-8 1 -25 11q18 28 17 70q0 25 -3.5 44t-9.5 27q-8 13 -31 16q-14 2 -24.5 5.5t-16.5 8.5l-6 -9h10q5 -3 5 -10v-5q-4 -10 -11 -10q-2 0 -5.5 1.5t-6.5 3.5t-6.5 3.5t-5.5 1.5q1 -7 9 -14l8 -8l3 -3
q1 -2 1 -4v-2q0 -7 -11 -28q10 -9 10 -24q0 -3 -0.5 -7t-1 -8.5l-1 -9t-0.5 -7.5q0 -11 4 -20.5t11 -16.5t16.5 -11t21.5 -4q-6 -7 -6 -9l1 -2h4q7 0 10 5l-14 10q5 11 14 12q2 0 6 -3t8.5 -6t8.5 -5.5t6 -2.5q7 0 11 10zM343 357h-8v-7h8v7zM177 503q-1 0 -4 2t-6.5 4
t-7.5 4t-6 2t-3 -0.5l-3 -1.5q13 -13 24 -13q5 0 6 3zM109 523q-3 5 -8 5t-7 -5l5 -5h1q1 0 3 1.5t6 3.5zM190 431h-8v-7h8v7zM153 463q-3 6 -7 6q-6 0 -8 -6l5 -4l2 -1q1 0 8 5zM217 395q-8 0 -10 -5l5 -6l10 10zM232 362q0 8 -6 8q-9 0 -9 -8v-2q7 -6 8 -6l2 1q5 6 5 7z
M123 454l-4 -5l10 -10l4 5zM271 316q-2 2 -5 3.5t-8 1.5q-18 0 -16 -1q-6 -1 -6 -7t6 -7h10q15 0 19 10zM194 377h-7v-7h7v7zM167 390q-7 5 -18 5q-12 0 -16 -11l5 -4q3 -1 4 -1h2q4 0 11 4q5 3 8.5 4.5t3.5 2.5zM119 424q-3 5 -9 5h-3h-4l10 -10zM180 362h-7v-7h7v7z
M207 316h-4v-10q2 4 3.5 5t1.5 2zM158 336q0 2 -5 9q-6 -2 -6 -8q0 -4 6 -6l4 5h1zM119 375l-6 -11l10 11h-4zM94 390q-2 3 -7 3q-7 0 -18 -9l5 -4q2 -1 3 -1h1q3 0 16 11zM167 296q-6 5 -7 5q-7 0 -7 -8q0 -5 4 -7zM192 241h-5l5 -4v4zM136 299h-7v-8h7v8zM123 247l-4 -6
l4 -4l6 4zM89 207h-6l6 -4v4zM109 133q-4 1 -9.5 5.5t-8.5 4.5q-4 0 -8 -5q4 0 9.5 -5t9.5 -5q3 0 7 5z"/>
            <glyph glyph-name="q" unicode="q" horiz-adv-x="460"
                   d="M431 230v1q-4 -25 -8 -48.5t-7 -47.5q-12 -51 -41 -85q-8 -7 -15 -12.5t-14 -12.5q-20 -17 -20 -26q0 -8 6 -15q5 -15 43 -26q35 -11 33 -22q1 -15 -31 -16q-7 1 -21 2t-35 5q-19 4 -30 5t-15 1q-37 0 -68 33q-16 17 -34 28.5t-36 17.5q-9 12 -24 10q-32 27 -49.5 49.5
t-21.5 44.5q-10 64 -14.5 103t-4.5 49q0 16 5 24q-5 8 -5 24q0 11 5 23q-5 3 -3 29q-1 38 2 47q0 20 0.5 34.5t1.5 26.5q1 84 22.5 136.5t70.5 78.5q5 1 17.5 5t32.5 9q19 5 31.5 8t16.5 2q10 0 23.5 -1.5t29.5 -5.5q21 -6 34 -9.5t20 -2.5q31 -17 50.5 -41.5t33.5 -55.5
q10 -26 15 -58.5t4 -72.5q0 -14 -1 -33.5t-3 -46.5q-1 -14 -1 -26v-21v-32q-1 -23 0 -43t5 -36zM348 600v7h-7v-7h7zM254 680v8h-7v-8h7zM303 578q0 1 -4 8l-5 -4q4 -6 8 -6h1v2zM266 600q-3 4 -9 4q-8 0 -15 -9h13q8 0 11 5zM299 548q-2 4 -6.5 5.5t-9 2.5t-8.5 2.5t-5 4.5
l24 -21zM332 505v5h-5zM187 647v7h-7v-7h7zM194 609h-5q-6 2 -9 -5l5 -4zM379 406v5h-5zM429 344v7h-7v-7h7zM306 458v7h-7v-7h7zM194 563q-3 1 -4.5 2.5t-2.5 1.5h-2l5 -10zM347 393q0 2 -6 7l-5 -8h11v1zM109 628q-3 6 -9 6q-7 0 -10 -6l5 -4h2h3q5 0 9 4zM164 557v7h-7
v-7h7zM138 563h-6v-6zM322 354v4h-5zM365 306q-8 6 -17 6q-12 0 -16 -6l4 -5h17q9 0 12 5zM379 277l-5 6l-4 -6l4 -4zM176 444l-5 4l-5 -4l5 -5zM348 254v7h-7v-7h7zM138 458v5h-6zM360 230l-7 5h-2l4 -10zM294 505l-5 5l-9 -10q-9 6 -12 25q-1 16 -7 23l-19 19q-8 7 -18 7
q-11 0 -23 -18q-12 -20 -21 -22l5 -5v-19q0 -9 -5 -14l-4 4q-6 -5 -6 -8l1 -1l1 -1q2 0 8 6q3 -2 4 -7.5t1.5 -11.5t1.5 -11.5t3 -7.5q-3 -8 -3 -14q0 -7 2 -18.5t2 -18.5q-2 -24 -20 -30l14 -9q-2 -7 1 -11q4 -7 4 -11q0 -2 -5 -7q5 -17 5 -28t-5 -28l5 -6v-4q0 -7 -5 -9
q5 -7 5 -12q0 -3 -2.5 -10t-2.5 -11q0 -7 5 -10q-6 -8 -6 -21q-1 -12 4.5 -24t15.5 -27l-24 -9q4 -9 14 -10q7 0 19.5 5t18.5 5q5 5 9 5q3 0 9 -1.5t8 -1.5q5 0 8 3l-11 9q9 7 10 27q1 10 4 16.5t11 8.5v5q0 8 -5 10l14 18q-6 0 -10 5t-9 10l10 10l1 2q0 4 -11 17l10 9v1
l-10 13l10 10q-10 6 -10 16q0 4 5 15t5 15q0 8 -10 15q-1 1 -1 4v4q0 6 4.5 18t6.5 17q-6 4 -6 6t3 5.5t3 5.5t-5 7q6 7 6 14q0 6 -3.5 15.5t-3.5 14.5q0 9 11 17l4 -5zM68 496v7h-6v-7h6zM71 467v5h-2l-7 -5h9zM123 387v5h-4zM313 189l-5 8l-5 -5l8 -5h2v2zM361 143l-1 2
h-1q-1 0 -8 -5l4 -5q6 6 6 8zM321 159v8h-8v-8h8zM171 316q-4 4 -9 4q-14 0 -20 -19h4h1q7 0 24 15zM294 173l-5 5l-4 -5l4 -5zM114 339h-5v-4zM351 88l-4 5l-6 -5l6 -5zM294 140q-9 5 -19 14l14 -19zM132 273q-5 4 -8.5 7t-4.5 3h-5l13 -15zM289 97q-5 6 -12 6t-11 -6l9 -9
l2 -1q3 0 7.5 5zM330 36v7h-8v-7h8zM87 258v8h-6v-8h6zM237 107q-2 5 -8 5q-4 0 -6 -5l5 -4l1 -1q1 0 8 5zM299 36q-4 2 -5.5 3.5l-1.5 1.5h-3l5 -10zM261 63l-10 11l-4 -5l8 -10zM128 194l-1 3h-4q-7 0 -9 -5l7 -5h2zM209 97q-5 6 -12 6q-9 0 -12 -6l5 -4h11q7 0 8 4z
M252 38q0 2 -5 7l-10 -9l5 -5h1q3 0 8 5zM303 -16q-2 5 -9 5q-10 0 -9 -7v-2q-1 -1 10 -1q8 0 8 5zM228 50l-19 9l-5 -9q7 -3 11 -4t5 -1q5 0 8 5zM146 112q2 8 -4 9l-4 -5l8 -9v5zM185 74l-5 4l-4 -9l1 -1zM95 149q-5 5 -9 5q-1 0 -5.5 -2t-14.5 -7h16q8 0 13 4zM204 21
l-8 6l-2 -1l5 -9zM211 145h-7v7h7v-7z"/>
            <glyph glyph-name="r" unicode="r" horiz-adv-x="499"
                   d="M470 38q0 -14 -7 -26q-10 -10 -26 -11q-4 0 -10 1t-13 2t-13 2t-10 1q-12 0 -21 -5l-6 4q-4 -4 -11 -4q-2 0 -6 1.5l-8 3t-7.5 3.5t-5.5 2q-26 26 -27 116q1 7 0.5 17.5t0.5 23.5q1 14 1 22q0 9 -1 13q1 35 -13.5 59t-45.5 35q-4 -2 -8 -3.5t-8 -1.5q-5 0 -13.5 1.5
t-12.5 1.5q-8 0 -12 -3q20 -7 21 -24q0 -4 -1.5 -9t-3 -10.5t-2.5 -11.5t-1 -9q0 -13 7 -21q-10 -6 -10 -14q0 -3 1.5 -6.5t4 -8t4 -8.5t1.5 -7q0 -8 -6 -14q2 -14 4 -29.5t2 -32.5l-1 -67q-12 -22 -40 -21q-5 0 -13 1t-16.5 2.5t-16 3t-11.5 1.5q-3 0 -7 -1.5t-9 -3
t-9.5 -2.5t-7.5 0q-8 -1 -15 3t-12 10.5t-8 15t-3 16.5q0 12 5 25l-12 8l16 407q-5 3 -5 11q0 15 1 13l2 1q1 0 7 -5q10 13 10 12q0 7 -5 7q-3 0 -7.5 -2t-8.5 -2l-2 173q9 12 27.5 19t43.5 7q9 0 21 -1t27 -3q16 -2 28 -2.5t20 -0.5q5 -1 15 0t23 2q13 2 23 2.5t16 -0.5
q52 0 86 -12t53 -41q10 -14 19 -49t16 -90q1 -5 1.5 -11.5t-0.5 -12.5q2 -18 -3.5 -41.5t-16.5 -52.5q-3 -9 -21 -25q-9 -7 -13 -14t-4 -13q0 -8 22 -42q12 -16 18 -29.5t6 -26.5q0 -10 -4 -18q5 -7 7.5 -16t3.5 -19q2 -15 0 -39q0 -38 -1 -38q0 -8 2.5 -19t5.5 -26
q8 -30 9 -44zM354 619h-4l4 -10v10zM392 573h-8v-8h8v8zM286 629h-6l6 -4v4zM248 626h-7v-7h7v7zM355 507q0 2 -1.5 4.5t-3.5 4.5l-3.5 3.5t-2.5 1.5l-4 -5q1 -1 5 -6t8 -5l1 1zM201 649q-5 5 -14 5q-10 0 -15 -5l5 -5q-2 0 1 0h12t11 5zM334 471l-4 -5l4 -5l6 5zM314 456
h-1q-1 0 -8 -4q1 16 0.5 40t-4.5 52q-2 11 -7 20t-12.5 15.5t-16.5 10.5t-19 3q-35 0 -49 -28q2 -9 3 -21.5t2 -29.5q-1 -25 -0.5 -40t0.5 -18q7 -39 31 -40q4 0 10.5 2t14 4t14.5 4t11 2q10 0 17 -7l6 6l-15 10q-1 1 -1 2v1q0 5 10 16l14 -15h3q3 0 8 5zM354 387
q-4 6 -12 6q-13 0 -17 -11q4 -5 8 -5t11 4.5t10 5.5zM189 538h-7v-8h7v8zM138 565v-5l4 5h-4zM344 343l-4 -6l4 -4l6 4zM320 373q-4 4 -9 4q-15 0 -15 -15h3h1q3 0 6 1.5t5.5 3.5t5 3.5t3.5 2.5zM157 507q0 1 -5 9l-10 -10l5 -6h2q1 0 8 6v1zM115 547h-8v-7h8v7zM291 387
q-2 6 -8 6l-12 -1q-5 -1 -14.5 -3.5t-25.5 -6.5l5 -5q4 3 12 3q3 0 11.5 -1.5t11.5 -1.5q13 0 20 10zM177 486q-4 4 -11 4q-14 0 -19 -14q2 3 6.5 3.5l9 1t9 1.5t5.5 4zM354 298l-1 1q-2 0 -9 -6l6 -5q5 7 5 8zM313 320h-7v-7h7v7zM325 293q-6 6 -9 6l-2 -1l11 -10v5z
M217 395q0 7 -10 7l-6 -1v-3q0 -11 8 -11h2q6 7 6 8zM191 417q2 6 -4 10q-5 -3 -5 -10t5 -10l4 4v6zM251 343q-2 5 -8 5h-3h-4l11 -11zM142 446q-1 6 -7 6t-8 -6l5 -5h2q2 0 8 5zM260 323h-4q-21 0 -29 -10l9 -9q6 1 13 6.5t17 12.5h-6zM320 244q-1 5 -7 5t-7 -5l4 -5h2
q1 0 8 5zM191 367l-4 -5l4 -5l6 5zM227 354q0 2 -6 9q-10 -12 -23 -19.5t-31 -10.5q4 -1 9 -1t11.5 1.5t13.5 5.5q21 13 26 14v1zM166 382q-7 0 -9 -5l5 -4l10 9h-6zM132 397h-10l10 -4v4zM88 411q-3 6 -7 6q-6 0 -9 -6l6 -4h2q1 0 2.5 1t5.5 3zM112 373q-1 4 -8 4h-2h-4
l9 -10zM132 323v-5l6 5h-6zM118 343q-5 6 -13 6t-13 -6l6 -6h11q7 0 9 6zM194 261h-7v-7h7v7zM162 264q-5 -4 -5 -7q0 -6 5 -9l15 16h-15zM142 288q-1 2 -4.5 3.5t-7.5 2.5t-7.5 1.5t-4.5 2.5l20 -15zM157 234l-15 -10l5 -5q0 1 7 6q3 4 3 6v3zM112 254q-4 5 -14 5t-15 -5
l5 -6h15q6 0 9 6zM182 145q-5 5 -15 5q-11 0 -10 -8v-3q4 -4 7 -4q2 0 4 1.5t4.5 3t5 3.5t4.5 2zM115 202h-8v-8h8v8zM88 224h-5l5 -5v5zM90 157h-7v-8h7v8zM107 125h-4l4 -4v4zM112 95h-5l5 -4v4z"/>
            <glyph glyph-name="s" unicode="s" horiz-adv-x="476"
                   d="M450 180l1 1q-2 -23 -7 -45t-17 -43q-15 -24 -31 -39t-36 -21l-10 -7.5t-15 -10.5q-21 -15 -84 -16q-18 1 -37.5 3t-39.5 9q-24 5 -42 11.5t-32 17.5q-12 8 -25 24.5t-26 38.5q-11 25 -18 44t-7 35q1 46 20 53q2 -1 6 -1h7q9 0 27 1t27 1q42 0 58 -19q2 -26 14 -45.5
t38 -37.5q8 -5 13 -5t13.5 3t12.5 3q8 0 14 -6q12 9 9 24h5q5 0 15 10q-10 7 -10 16q0 5 2.5 14t2.5 15q0 15 -27 40t-79 64q2 8 2 11q0 17 -28 21q-35 24 -57.5 47t-35.5 40q-18 27 -27.5 56t-7.5 61q-1 43 12.5 76t47.5 58q27 21 61.5 28.5t82.5 6.5q75 2 123 -26.5
t62 -86.5q4 -13 9 -27t6 -27q-2 -42 -56 -42q-18 0 -43 6q-10 2 -20 4.5t-20 4.5l-10 38l4 -5l11 11q-20 13 -39 20t-38 13q-8 -3 -15.5 -10.5t-13.5 -14.5q-9 2 -22 12q-16 13 -22 13q-7 0 -13 -11q2 -2 26 -14q20 -9 20 -19q0 -2 -1 -4.5t-2 -4.5q0 -25 30 -50
q18 -18 28 -29.5t14 -16.5l-5 -5l9 -9q1 4 8 4h11l101 -87q4 -2 12 -9q6 -5 15 -28q6 -17 20 -25q9 -21 13.5 -43t2.5 -47q3 -9 3 -22zM257 666v7h-7v-7h7zM134 595h-23q1 -6 10 -6q8 0 13 6zM195 470v7h-7v-7h7zM271 379v7h-7v-7h7zM228 417v7h-7v-7h7zM332 312v5l-6 4z
M375 259l-5 5zM183 441v5h-5zM140 484v5l-6 -9zM321 297q-3 5 -11 5t-13 -5l6 -5h10q6 0 8 5zM99 503v7h-8v-7h8zM202 393h-4l-15 -14zM404 158v5q-14 0 -15 4l-5 -4q3 -6 8 -6q13 0 12 1zM325 206v7h-8v-7h8zM332 158v5q-3 5 -11 5q-7 0 -9 -5q1 -6 8 -6q13 0 12 1zM333 68
v7h-7v-7h7zM297 82l-4 4l-4 -4l4 -5zM274 68q-3 4 -8 4h-3h-3l9 -10zM132 134v8h-7v-8h7zM162 96v8h-8v-8h8zM183 68l-5 4l-5 -4l5 -6z"/>
            <glyph glyph-name="t" unicode="t" horiz-adv-x="463"
                   d="M445 658q-1 4 -2 -12t-3 -54q-12 -19 -32 -19q-4 0 -10.5 1t-13.5 2t-13 1.5t-10 0.5q-41 2 -53 -58q5 -3 5 -11l-1 -5l-8 -10q5 -6 7 -15.5t3 -20.5q0 -18 -5 -42q2 -8 3.5 -18t1.5 -21q-1 -3 -1.5 -8.5t-1.5 -11.5t-1.5 -12t0.5 -9l8 -295q-5 -6 -7.5 -11.5t-4.5 -10.5
t-3.5 -8.5t-4.5 -4.5q-3 -2 -11.5 -3t-20.5 0q-5 0 -12.5 -1t-16 -1.5t-15.5 -0.5h-12q-20 1 -34 5.5t-25 14.5v100q1 21 1.5 37.5t0.5 30.5q3 22 4 30t3 2q-1 58 -3 102.5t-3.5 75t-2 47.5t0.5 22q0 19 5 27q-5 13 -5 27q0 17 6 26q-15 22 -46 28q-3 -1 -16 0t-39 2l-13 2
q-12 5 -19 16.5t-6 31.5q0 6 0.5 15t1.5 21q2 12 3 20.5t1 13.5q0 11 14 16q18 5 21 6l292 -5q3 0 9 0.5t12.5 2t12.5 2.5t10 1q12 -1 22 -3t17 -8q9 -23 10 -51zM372 606q-5 6 -10 6q-6 0 -13 -8q-5 -5 -7.5 -8t-3.5 -4q3 10 14 10q8 0 13 1t7 3zM289 597l5 -5q10 8 18 25z
M250 641l-4 -5l4 -5l4 5zM274 606q-6 7 -12 7q-3 0 -7 -2t-8 -4.5t-8 -4.5t-6 -2q-6 0 -13 6q4 -14 13 -14q3 0 8 2.5t10.5 5.5t11 5t8.5 2q2 0 3 -1zM259 578h-5l5 -5v5zM264 552h-5l11 -4zM206 584q0 1 -1.5 2.5t-3.5 5.5l-5 -6q3 -2 5 -3t3 -1h2v2zM186 568q-4 10 -15 10
q-9 0 -14 -5q2 0 5 -2t5.5 -3.5t5.5 -3.5t5 -2q4 0 8 6zM206 514q-1 6 -8 6q-5 0 -7 -6l5 -5l2 -1zM177 528q-7 6 -8 6q-7 0 -7 -8q0 -5 5 -6zM264 407q-4 2 -5 3t-2 1h-3l5 -10zM171 475l-4 -10l1 -1q2 0 9 6zM198 443h-7v-7h7v7zM208 321h-7v-7h7v7zM186 299l-5 -5l5 -4
l5 4zM284 157q-13 0 -14 5l-6 -5q2 -5 8 -5q13 0 12 1v4zM206 154q0 1 -1.5 3t-3.5 5l-5 -5q7 -5 8 -5l2 1v1z"/>
            <glyph glyph-name="u" unicode="u" horiz-adv-x="483"
                   d="M450 654q0 -5 -0.5 -13t-1 -17t0 -17.5t2.5 -12.5l-2 -328q-3 -9 -3 -17q0 -4 1.5 -13.5t1.5 -13.5q0 -6 -1 -10.5t-3 -8.5l5 -4l-15 -88q0 -1 -2 -4t-5 -10q-17 -31 -35 -46.5t-36 -22.5q-19 -17 -57 -23q-16 -1 -31.5 -2t-30.5 -3q-7 1 -20 3t-34 4q-17 3 -30 5.5
t-24 6.5q-28 12 -45 34t-29 55q-5 19 -8 49t-3 75q-4 136 -5 207.5t0 81.5q0 20 4 28q-2 9 -4 22t-1 35q1 19 -1.5 32.5t-8.5 22.5q4 11 7.5 22t6.5 22q5 8 19.5 10.5t36.5 3.5q10 0 22 -1.5t25 -3.5q4 4 10 4q3 0 11 -2t12 -2q15 -13 15 -27v-3t-1 -5l-4 -5q2 -8 3.5 -17.5
t1.5 -19.5q0 -7 -0.5 -17t-2.5 -23q-1 -12 -1.5 -22t-0.5 -16q-1 -11 0.5 -20.5t3.5 -17.5q-4 -13 -4 -25q0 -5 0.5 -11.5t2 -14.5t2 -14.5t0.5 -10.5q0 -8 -1.5 -14t-3.5 -12q5 -6 5 -14q0 -4 -2 -12t-2 -13q0 -4 0.5 -7t2.5 -6q-1 -9 0 -30q1 -8 -0.5 -15.5t-3.5 -12.5
q5 -7 5 -15q0 -2 -0.5 -6t-2 -8.5t-2 -8.5t-0.5 -6q0 -7 4 -14q-4 -5 -4 -12q0 -4 2.5 -12t2.5 -13q0 -6 -5 -12q9 -27 14 -33q9 -18 25 -24l1 1h3q4 0 9 -2.5t10 -5.5t10 -5.5t7 -2.5q8 0 13 15q-4 6 -15 4q2 3 6 4t8.5 2t9 3t5.5 6q-6 4 -7 13q0 3 1.5 7.5t2.5 9.5
t2.5 9.5t1.5 6.5q0 11 -5 17q4 7 4 18q0 2 -1 7t-1.5 10.5t-1.5 10t-1 7.5q0 17 24 19q-16 3 -18 17q-4 24 -5 25q-2 -2 -1 37q0 23 5 37q-3 5 -4 13.5t-1 19.5v28t1 6q4 6 4 13q0 5 -2.5 14t-2.5 13q0 6 5 14q-5 3 -5 9q0 16 1 15l9 9l-9 10l4 125q14 7 32 11.5t40 4.5
q20 -1 39 -3t39 -7q2 -14 3 -28zM358 598q-3 5 -7 5q-6 0 -8 -5l5 -5h1q2 0 3.5 1.5t5.5 3.5zM423 504h-7v-7h7v7zM315 513q0 1 -5 8l-5 -5q5 -5 7 -5h2zM367 415l-5 -5l5 -5l6 5zM155 593l19 -19l5 5zM319 318q0 8 -5 9l-4 -9q6 -5 7 -5h2v5zM362 266h-1q-2 0 -8 -6l5 -4
q4 6 4 7v3zM128 494h-7v-7h7v7zM170 448h-5l5 -4v4zM375 244h-8v-7h8v7zM90 514h-7v-7h7v7zM384 214h-7v-7h7v7zM165 380h5l15 15zM396 164h-2q-16 0 -17 5l-4 -5q2 -6 9 -6q14 0 14 1v5zM136 405h-10l10 -5v5zM312 214h-7v-7h7v7zM185 337q-7 6 -9 6q-7 0 -7 -8q0 -4 5 -8z
M98 387q0 3 -5 8l-5 -4q6 -6 7 -6l2 1zM324 164q-3 5 -10 5q-8 0 -9 -5l5 -5h4q6 0 10 5zM73 352h-5l5 -4v4zM117 299q-4 5 -13 5h-16q1 0 3.5 -1.5t5 -3.5t5.5 -3.5t6 -1.5q4 0 9 5zM182 224h-8v-7h8v7zM131 274l-2 1q-1 0 -8 -5l5 -4q5 5 5 7v1zM321 75h-7v-7h7v7zM291 82
q-7 5 -9 5l-1 -1l4 -9zM146 217h-2q-8 0 -8 -9v-1h4q6 6 6 8v2zM223 131q0 3 -5 8l-5 -4q4 -3 5.5 -4.5t2.5 -1.5l2 1v1zM107 227l-5 -5l5 -5l4 5zM266 68q-2 5 -8 5h-2l-5 -1l10 -9zM167 113h-7v-7h7v7zM119 143h-8v-8h8v8zM153 109h-7v-7h7v7zM165 72l-5 -4l5 -5l5 5z"/>
            <glyph glyph-name="v" unicode="v" horiz-adv-x="470"
                   d="M453 694l-4 -5q-12 -58 -26 -139.5t-38 -192.5q-9 -11 -13.5 -26.5t-7.5 -35.5q1 -46 -9 -64q-2 -4 -10.5 -5t-8.5 -6q0 -9 14 -9q-1 -1 -6 -28q-3 -18 -18 -16l-10 -9l10 -10q5 6 6 5l5 1l-21 -123q-4 -15 -25 -25q-10 -4 -18.5 -5t-19.5 -1q-7 0 -18 0.5t-26 2.5
q-14 2 -25 2.5t-19 1.5l-14 11l-39 199q4 3 4 6q0 4 -5.5 8.5t-5.5 7.5l-18 123q-1 5 -6 13q-10 25 -9 53v13q-5 10 -11 17l-38 197l-5 27q0 7 1.5 14t2.5 12q28 11 58 10q27 2 61 -4l24 -25v-8q0 -17 10 -21q-2 -8 -2 -10q0 -8 3.5 -19.5t3.5 -17.5q0 -9 -5 -16l9 -10
l15 -127q5 -9 4 -24q0 -18 6 -25h-3q1 0 -12 -10q2 0 8 -7.5t11 -7.5t6 1q-1 -5 4.5 -10t9.5 -10h4h5q10 0 24 8q9 5 14.5 8.5t6.5 3.5q-4 10 -16 10q-10 0 -19 -5q18 38 22 104q1 38 5 64t9 42q2 17 3.5 33.5t5.5 33.5q7 37 33 49q10 -2 19 -2q8 0 26.5 1.5t26.5 3.5
q36 -2 51 -27zM370 567v6q-3 -2 -10 4l-5 -4q1 -6 9 -6h6zM367 528v8h-7v-8h7zM364 470h-4v-5zM340 494q-3 6 -8 6h-3h-3l10 -10zM312 504q-3 5 -9 5q-2 0 -7 -5l6 -4l1 -1q1 0 9 5zM340 446l-4 4l-6 -4l6 -5zM323 411v7h-7v-7h7zM343 377v7h-7v-7h7zM296 411v6h-9zM312 367
l-6 6l-4 -6l4 -5zM167 504v7h-7v-7h7zM123 548v8h-7v-8h7zM182 421v7h-7v-7h7zM277 334q-4 4 -10 4h-14q-6 -3 -6 -9q0 -11 10 -11q7 0 11.5 7t8.5 9zM333 251v7h-7v-7h7zM184 382v5q-2 6 -9 6q-12 0 -10 -9v-2h19zM224 338v5q-3 6 -8 6q-6 0 -7 -6q2 -5 8 -5h7zM248 309
l-5 5l-6 -10h2q1 0 9 5zM287 260l-8 6q-7 0 -7 -8q0 -5 5 -7zM147 377v7h-7v-7h7zM313 211v8h-7v-8h7zM262 260v10q-2 5 -8 5q-4 0 -6 -5q1 0 4.5 -5t7.5 -5h2zM184 327v2h-5q-7 2 -9 -5q6 -6 7 -6h2q5 8 5 9zM268 231v5q-8 5 -9 5h-2zM156 346q0 8 -9 8q-4 0 -7 -5l10 -11
q6 7 6 8zM203 294q-5 11 -23 11q-17 0 -20 -11q12 -5 22 -5q13 0 21 5zM219 268q0 7 -7 7q-9 0 -9 -8v-1q7 -6 8 -6h2q6 7 6 8zM248 231q-2 6 -8 6t-7 -6l4 -5h2q1 0 9 5zM262 211l-5 6l-4 -10l1 -1q1 0 8 5zM233 208v3q-5 6 -7 6q-13 0 -13 -16v-4q2 4 11 5t9 6zM180 239
l-1 2h-9l5 -10zM199 217q-1 0 -5 5t-7 5q-8 0 -8 -8q0 -6 5 -8h4q9 0 11 6zM196 163v7h-7v-7h7zM230 90v7h-6v-7h6zM199 127v2h-10l5 -10zM250 60v8h-7v-8h7z"/>
            <glyph glyph-name="w" unicode="w" horiz-adv-x="728"
                   d="M703 686q0 -4 -2 -13t-4 -19t-3.5 -19t-0.5 -13q-4 -9 -6 -19.5t-4 -25.5q-5 -25 -6 -47q-2 -5 -4.5 -10.5t-5.5 -11.5l-37 -228q-10 -13 -3 -32l-31 -163q-5 -7 -4 -41q-1 -46 -72 -44q-1 -1 -19.5 1t-51.5 5l-12 15l-41 259q-4 34 -34 47q-14 -10 -25 -35.5t-15 -65.5
q-5 5 -7 5l-2 -1l-10 -11l1 -3q17 -2 17 -12q0 -7 -4 -19.5t-4 -19.5q0 -1 -5 -8l4 -4l-20 -132q-19 -21 -58 -21q-37 0 -73 6q-12 3 -24 35q1 1 1 3v5q0 7 -5 25q-5 20 -5 25l-20 131q-2 10 -6 22q-5 15 -5 23v5q0 3 1 4q1 -1 6 -1q7 0 23 16q-5 5 -10 5q-3 0 -10.5 -2.5
t-10.5 -2.5l-4 5q-4 29 -15 94.5t-33 178.5v5q0 13 -8 39t-8 39q0 5 2 15q-6 7 -6 17q0 11 6 17q10 5 24 7.5t33 3.5q23 0 59 -6l27 -31q0 -38 8 -93.5t20 -134.5q-10 -4 -10 -9q0 -1 2.5 -4t5.5 -7t5.5 -8t1.5 -6q7 -13 7 -22q2 -15 -27 -32q4 -9 29 -9q46 37 44 78
q1 -1 6 -1q6 0 23 15l1 3l-5 7q-2 -5 -9 -5l-8 1l21 205q4 26 9.5 38t14.5 15q12 2 28.5 4t37.5 1q23 0 43 -6q23 -26 19 -96q11 -15 11 -44q0 -6 -0.5 -12t-1.5 -13q11 -20 11 -27v-3q0 -3 -1 -4l-4 -6q-5 6 -11 6h-14l-10 -10q4 -7 26 -11q19 -3 19 -15q0 -2 -2 -8
q3 -16 -8 -24q3 -6 7.5 -10t8.5 -8q3 -5 3 -25t15 -21q4 -6 8 -6t9.5 5.5t9.5 5.5q2 0 6 -5q6 1 6 6q0 2 -3 6t-2 8q-1 19 3 39t11 39l-4 5l29 214q17 20 53 20h10q9 0 23 -1q23 -2 35 1q20 -12 20 -33zM573 601v8h-7v-8h7zM642 494v7h-8v-7h8zM590 407l-4 4l-4 -4l4 -6z
M559 431v7h-7v-7h7zM396 577l-30 15l25 -19zM359 597v7h-7v-7h7zM589 323v9h-7v-9h7zM322 592v5h-18zM545 357v8h-8v-8h8zM394 508v9h-8v-9h8zM518 357h-5v-4zM359 504v7h-7v-7h7zM435 436q-3 5 -8 5t-7 -5l5 -5l2 -1zM396 466q0 2 -5 9l-10 -10l5 -5h1q1 0 9 5v1zM459 411
q-2 1 -6.5 2.5t-13.5 3.5q-13 5 -21 5q-4 0 -7 -1l14 -14l6 2q4 0 10 -4t9 -4q5 0 9 10zM562 290h-6v-6zM475 375q0 7 -9 7q-5 0 -7 -5l10 -10q6 7 6 8zM364 470v7h-8v-7h8zM582 257v3h-6q-7 0 -10 -4q7 -6 8 -6h2q3 4 4.5 5.5zM391 446l-8 5q-7 0 -7 -8q0 -5 5 -7zM539 306
q0 4 -5.5 11.5t-5.5 11.5q-5 -11 -16 -11q-15 0 -19 -4l15 -10l-19 -10q8 -5 21 -5q29 0 29 17zM342 484v6h-14q-7 0 -10 -6q3 -3 19 -9q5 2 5 9zM449 367q0 6 -8 6h-3h-3l9 -11zM459 349q-1 4 -7 4q-7 0 -8 -4l5 -6h2zM537 260v5h-5zM298 500q0 3 -5 8l-9 -8l4 -6h2
q2 0 8 6zM356 431q-2 5 -7 5t-7 -5l5 -5h1q1 0 8 5zM474 318q1 6 -5 11q0 -5 -3.5 -8t-8 -5.5t-8.5 -4t-5 -2.5q5 -5 9 -5t10 5t11 5v4zM415 387q-4 7 -15 7q-17 0 -34 -21q4 -3 11 -3q4 0 9 3t10 6.5t10 6t8 1.5h1zM599 157v8h-9v-8h9zM362 401q-6 6 -18 6h-22l10 -15h11
q13 0 19 9zM513 230l-10 10h-5zM313 411v5q-7 5 -8 5h-1zM411 333q-3 5 -11 5h-14q-5 -3 -5 -9q0 -11 11 -11q14 0 19 15zM522 197v5h-4zM475 252l-1 4q-2 1 -4 1h-3q-6 0 -14 -5q-6 -3 -9.5 -4t-4.5 -2q4 -6 11 -6h13q1 1 6.5 5.5t5.5 6.5zM493 222q-1 4 -8 4h-11
q-5 -2 -5 -7q0 -9 9 -9q3 0 15 12zM352 339q0 6 -4 7q-6 6 -6 7l-5 -10q3 -5 9 -5h3h3v1zM532 153v4q-2 6 -7 6q-6 0 -7 -6q1 -4 8 -4h6zM60 623l-6 8l-5 -5q7 -5 8 -5h2zM318 387q-6 10 -11 10t-12.5 -8.5t-13.5 -8.5q-2 0 -8 2q1 -1 -4 -5t-5 -7v-3h9q4 10 18 10
q23 0 27 10zM420 257q0 8 -6 8q-9 0 -9 -8v-1q6 -6 9 -6h1q5 8 5 7zM164 504v7h-7v-7h7zM503 157l-8 6h-2l5 -10zM435 226q-7 5 -8 5l-2 -1l5 -8zM455 202v4l-6.5 6.5t-6.5 4.5l-3 -1q-1 -1 -1 -4v-1q0 -10 12 -10h2q2 0 3 1zM318 323l-10 10q-10 -4 -10 -10t8 -6q7 0 12 6z
M293 345v4q-5 5 -14 5q-10 0 -10 -9q0 -8 7 -8q13 0 12 1q2 4 3.5 5.5zM474 163l-3 3t-4 1q-4 0 -9 -4.5t-9 -5.5l6 -4q1 -1 3 -1q3 0 16 11zM191 426l-10 10l-5 -5l10 -10zM483 136v2h-5q-7 0 -9 -5l7 -5l3 1q4 4 4 7zM332 294q-6 11 -23 11q-16 0 -21 -11q12 -5 23 -5
q6 0 11 1.5t10 3.5zM250 349q0 2 -6 8l-5 -4l8 -5zM506 79v8h-8v-8h8zM176 407q-1 4 -9 4h-1h-5l10 -10zM235 338h-6v-5zM269 294q-2 6 -8 6t-7 -6l5 -4l1 -1q2 0 9 5zM242 304v8h-7v-8h7zM308 237q0 2 -4 9q-6 -3 -6 -7q0 -8 6 -9l4 6v1zM220 322v1q-6 6 -8 6q-7 0 -7 -11
q0 -6 6 -9q0 1 4.5 5.5t4.5 7.5zM186 357l-5 5l-14 -13l1 -1h1h1q4 0 16 9zM269 266l1 4l-31 -14l5 -6q1 4 5 6t8.5 3.5t8 2.5t3.5 4zM152 375l-1 2q-1 1 -3 1h-2q-3 0 -10 -4.5t-9 -6.5q2 -5 9 -5h6q0 2 5 6.5t5 6.5zM225 279v5q-1 1 -4 1h-1q-3 0 -14 -11q1 -4 8 -4h6
q5 2 5 9zM288 226q-17 5 -24 5q-8 0 -25 -5v-2l5 -8q21 10 42 10h2zM228 236v7h-8v-7h8zM195 274q-2 6 -7 6q-6 0 -7 -6l5 -4h2l1.5 1t5.5 3zM211 246l-5 4l-5 -4l5 -6zM273 173q0 2 -4 9l-5 -5l7 -5h2v1zM239 191v6h-1q-2 0 -9 -6h10zM256 157v8h-6v-8h6zM186 226l-5 4
l-5 -4l5 -4zM146 187v4h-4zM157 119v5h-11zM530 304h-8v8h8v-8z"/>
            <glyph glyph-name="x" unicode="x" horiz-adv-x="482"
                   d="M453 16v1q-21 -17 -62 -17q-2 0 -20.5 1.5t-50.5 5.5q-34 26 -35 87q0 9 2 19q-13 12 -23 35q-12 26 -26 34l-19 -18l-39 -133q-23 -32 -83 -30q-12 -1 -26.5 0.5t-32.5 4.5q-7 12 -8 27q1 8 3.5 18.5t8.5 24.5q6 15 10 25.5t6 16.5q2 5 5.5 11t10.5 14l42 121q1 11 9 34
q5 11 10.5 21t10.5 20q13 28 13 45q0 25 -15 41q-4 6 -13.5 28.5t-27.5 59.5q-2 9 -9 25t-19 50q-8 18 -18 42.5t-24 58.5q5 23 13 26q2 1 10 1h9t12 1q4 -1 11.5 -0.5t15.5 1t15.5 1.5t11.5 1q41 2 55 -30q4 -5 17 -64q4 -22 13 -35.5t21 -23.5l40 39l-5 6q3 14 7.5 29.5
t8.5 31.5q6 16 15.5 27.5t23.5 15.5l116 -2q3 -10 2 -20q1 -10 -3 -22.5t-10 -27.5q-8 -18 -13 -29.5t-5 -17.5q-7 -8 -13 -20.5t-11 -31.5q-7 -18 -12.5 -30.5t-13.5 -20.5q-2 -23 -20 -57q-20 -37 -20 -55q0 -4 7 -25q1 -9 9 -32q6 -11 11.5 -22.5t10.5 -23.5
q13 -31 13 -45q29 -72 48 -126t30 -92zM333 597v7h-7v-7h7zM372 548v8h-8v-8h8zM267 557q-4 3 -5.5 4.5l-1.5 1.5h-3l5 -11zM326 489v5h-5zM179 625q-5 6 -12 6q-9 0 -12 -6l5 -4q-1 -1 11 -1q6 0 8 5zM263 525q0 8 -7 8q-9 0 -9 -8v-2q5 -4 9 -4h1zM233 548q-4 2 -5.5 3
l-1.5 1h-3l6 -10zM277 501v3h-2q-1 0 -8 -5l4 -5q6 6 6 7zM208 555q0 1 -5 8l-4 -6l7 -5h2v3zM316 446l-4 4l-6 -4l6 -6zM191 548v8h-6v-8h6zM270 470v7h-8v-7h8zM252 489q-2 5 -7 5t-7 -5l5 -5h1q1 0 8 5zM297 428q0 2 -6 8l-4 -6q5 -4 7 -4h2zM270 446v7h-8v-7h8zM287 406
q-2 5 -9 5h-2h-5l11 -10zM316 367v5h-10zM252 436q-1 4 -5 4q-9 0 -9 -8v-2h4q8 0 10 6zM213 450l-5 5h-5zM221 426v7h-8v-7h8zM287 353v4l-5 -9zM267 372v5q-1 1 -4 1h-1q-5 0 -13.5 -4.5t-10.5 -6.5q3 -5 10 -5h14q5 2 5 10zM136 484v5h-6zM333 279v7h-7v-7h7zM223 367
l-4 5l-6 -5l6 -5zM304 274v8h-8v-8h8zM194 379l-1.5 2t-3.5 6l-4 -6q7 -5 6 -5l3 1v2zM229 325l-6 8q-5 -2 -5 -7q0 -6 5 -8l6 5v2zM203 337v6h-4zM243 303q-2 1 -6 1q-9 0 -29 -10l11 -10q7 4 15 7.5t9 11.5zM296 226q-1 4 -7 4t-7 -4l5 -5h1q3 0 8 5zM189 325q0 3 -4 8
l-11 -10l5 -5h2q1 0 8 5v2zM247 250v5l-7 5h-2zM263 229l-1 1l-3 1q-12 0 -12 -8v-2h10q6 7 6 8zM287 190v1q-22 0 -30 5q-4 -7 -4 -9q0 -3 3 -3q2 0 7.5 1.5t7.5 1.5q8 0 11 -5q5 7 5 8zM208 260l-29 14q5 -17 21 -17q6 0 8 3zM182 236v7h-8v-7h8zM155 240v5l-2 1
q-1 0 -8 -6h10zM203 177l-14 10q-5 -2 -5 -8q0 -5 5 -7h4q10 0 10 5zM165 133q-5 5 -10 5q-4 0 -10.5 -4.5t-8.5 -5.5h16q8 0 13 5z"/>
            <glyph glyph-name="y" unicode="y" horiz-adv-x="453"
                   d="M435 692q0 -26 -13 -61q-6 -14 -11.5 -29t-9.5 -29l-56 -166q-1 -4 -2 -9.5t-4 -13.5q-4 -9 -7.5 -18.5t-7.5 -20.5t-6.5 -21.5t-2.5 -19.5h-3q1 0 -11 -10l15 -7l-1 -255q-8 -16 -24 -24t-38 -8q7 0 -12.5 1.5t-66.5 4.5q-5 1 -10 4t-9.5 7t-7 9t-2.5 10t2.5 12.5
t2.5 12.5t-1 8.5t0 6.5l1 229q-4 8 -8 19t-7 26q-12 44 -11 45q-4 7 -8 17.5t-8 27.5q-10 19 -19.5 45t-20 58t-22.5 70t-27 82q-5 9 9 16l19 8q4 -1 9 -1.5t9 -0.5q5 0 12.5 0.5l15 1t14.5 1t12 0.5q22 -1 35 -8t20 -23l-1 -4q1 -9 3.5 -23.5t6.5 -35.5q6 -18 9 -33t2 -25
l34 -44l24 19q6 -4 9 -6.5t2 -2.5h4l9 9q-4 5 -9 10t-10 6l34 139q19 10 40 15.5t44 5.5q12 -1 26.5 -2t31.5 -3q1 -5 1.5 -10.5t0.5 -11.5zM333 604h-8v-7h8v7zM276 574q0 2 -5 8l-4 -4q6 -5 7 -5h2v1zM306 505q-8 0 -10 -5l5 -5l10 9zM171 614h-7v-8h7v8zM267 504l-2 1
l-8 -5l6 -5q4 6 4 7v2zM247 485q-3 4 -9.5 7.5t-14.5 7.5l-5 -10q2 0 5 -1.5t5.5 -3.5t5.5 -3.5t5 -1.5q5 0 8 5zM287 451h-2q-17 0 -18 4l-4 -4q10 -11 14 -11h2.5t1.5 1q6 6 6 7v3zM328 395h-7v-8h7v8zM72 623l-5 8l-5 -5q6 -5 8 -5h1zM165 525q0 2 -5 9q-6 -3 -6 -8t6 -6
l4 4zM179 504h-5l5 -4v4zM223 446q-2 5 -8 5q-5 0 -7 -5l5 -5h2q1 0 8 5zM153 497h-8v-7h8v7zM296 349h-5l5 -5v5zM204 429q0 8 -7 8q-6 0 -9 -6l10 -10zM188 407q-5 5 -7 5l-2 -1l5 -9zM232 373q-5 5 -13 5q-11 0 -15 -10q4 -6 8 -6q1 0 4 2t6 3.5t6 3.5t4 2zM196 365h-8
v-7h8v7zM228 324h-5v-10q5 6 5 7v3zM170 373q-3 3 -6 3q1 0 -3 -2t-11 -6l4 -6h2q2 0 4 2t4.5 3.5t3.5 3.5t2 2zM235 287h-7v-7h7v7zM174 125h-4l4 -6v6z"/>
            <glyph glyph-name="z" unicode="z" horiz-adv-x="449"
                   d="M416 40q-1 -40 -50 -40q-15 0 -44 6q-14 3 -25 4.5t-18 0.5q-5 0 -12 -0.5t-14.5 -1.5t-14.5 -2t-11 -1q-12 0 -21.5 1t-18.5 3l-113 -8q-25 7 -27 8q-7 4 -11 8.5t-6 12.5q4 17 6 62q-1 19 1.5 34t6.5 26q0 12 4.5 25.5t14.5 30.5q11 20 17 34t9 22q33 35 38 84
q10 7 18 22t15 35q7 21 15 36.5t16 22.5q1 4 4.5 12.5t10.5 23.5q4 12 6.5 21t2.5 16l10 10l-18 27l-124 3q-4 -5 -8 -5q-1 0 -4 1.5l-6 3l-6 3t-4 1.5q-17 16 -17 55q0 8 1.5 23.5t4.5 38.5l20 16l263 -1q4 0 10 1l12 2l12 2t10 0q28 1 40 -20q-2 -4 -2 -6q0 -5 3 -12
t3 -11q0 -6 -4 -9v-38q0 -13 -1.5 -23t-4.5 -18q1 -2 1 -3q0 -2 1 -3q0 -5 -4 -11t-8.5 -12t-8 -11.5t-3.5 -10.5q0 -6 2 -11q0 -3 -10.5 -22t-29.5 -54q-12 -23 -20.5 -44t-12.5 -37q-9 -14 -23 -38.5t-28 -59.5q-15 -33 -27.5 -55t-23.5 -33q13 -1 24 -18q13 -16 26 -16
l125 9q21 -8 30 -28q-3 -6 -4.5 -12.5t-1.5 -13.5q0 -5 1 -13t2 -16.5t2 -16t1 -11.5zM288 651l-4 -5l4 -5l5 5zM303 606q1 1 -11 1q-7 0 -8 -5q1 -3 5 -3q12 0 14 7zM261 604h-7v-7h7v7zM298 558q-6 5 -7 5l-3 -1l5 -8zM234 617v-5l6 5h-6zM215 626q-5 6 -15 6q-9 0 -14 -6
l5 -5h14q7 0 10 5zM294 525q0 1 -6 9q-5 -3 -5 -8t5 -6l5 4zM264 548q-3 2 -4.5 4t-2.5 2h-3l6 -11zM308 504h-5l5 -4v4zM240 555q0 2 -6 7l-5 -4l8 -6l3 2v1zM281 497h-7v-7h7v7zM247 463h-7v-8h7v8zM288 373h-2q-1 0 -8 -5l6 -6q2 4 3 5.5t1 2.5v3zM264 300h-11
q-6 0 -9 -6q2 -2 4 -3t5 -1h7l3 4.5t1 2.5v3zM210 329l-4 -5l4 -6l5 6zM229 260q2 7 -14 10v-2q-1 -8 11 -8h3zM212 243h-6v-7h6v7zM186 246h-2q-4 0 -8 -4.5t-5 -5.5h10q6 6 6 8zM312 115q2 10 -12 10q-5 0 -12 -1l15 -15h1q2 0 8 5v1zM167 211h-2q-1 0 -2.5 -1t-5.5 -3
l5 -5q5 6 5 7v2zM127 236q-2 5 -10 5q-7 0 -10 -5l6 -5h3q8 0 11 5zM251 102h-7v-8h7v8zM167 173q-1 2 -3 3t-6 1h-2h-5l16 -10v6zM134 190h-7v-7h7v7zM200 133q-8 6 -19 6q-14 0 -14 -10q3 -5 15 -5h18v9zM223 97h-8v-7h8v7zM107 207h-4l4 -5v5zM110 146h-7v-8h7v8z
M130 116h-7v-7h7v7zM137 75q-1 5 -7 5t-7 -5l4 -5l2 -1q1 0 8 6zM113 41v-5l4 5h-4z"/>
            <glyph glyph-name="braceleft" unicode="{" horiz-adv-x="431"
                   d="M88 222q-12 2 -25 2t-24.5 2.5t-20.5 10t-13 24.5q5 9 5 21q0 7 -0.5 13t-0.5 12q0 10 4.5 18t19.5 14q29 0 57 10t48 39q12 25 16.5 51t4.5 54q0 35 -3.5 70t-3.5 70q0 24 3 47.5t11 46.5q25 43 65.5 57.5t85.5 14.5q17 0 33.5 -1.5t32.5 -3.5l22 -23l-11 -77
q-15 -6 -30 -8.5t-29.5 -6.5t-26.5 -11.5t-20 -23.5q-7 -34 -7 -74q0 -29 1.5 -57t1.5 -56q0 -26 -3 -50.5t-11 -46.5t-24 -40t-41 -31q25 -14 40.5 -38t23.5 -53t11 -60.5t3 -59.5q0 -19 -1.5 -40t-1.5 -41q0 -33 10 -62t43 -46l61 -11q3 -9 4 -17t1 -16q0 -9 -1 -18
t-1 -19q0 -5 0.5 -9.5t1.5 -9.5l-27 -17q-25 2 -51.5 3t-51.5 5.5t-47.5 13.5t-38.5 28l-28 50q-2 12 -3 24.5t-1 25.5q0 36 4 73.5t4 73.5q0 44 -14 83.5t-57 69.5z"/>
            <glyph glyph-name="bar" unicode="|" horiz-adv-x="181"
                   d="M32 -245q2 126 2.5 262.5t0.5 273.5t0.5 271t2.5 255q10 10 27.5 19t36.5 9q14 0 26 -6t21 -22l-6 -1079q-8 -11 -19.5 -14.5t-24.5 -3.5q-14 0 -26.5 2.5t-23.5 4.5z"/>
            <glyph glyph-name="braceright" unicode="}" horiz-adv-x="440"
                   d="M419 333q6 -15 10.5 -31t4.5 -32q0 -15 -4 -26q-17 -11 -36 -15.5t-37 -9.5t-32.5 -13.5t-22.5 -27.5q-13 -31 -16 -67.5t-3 -74.5q0 -19 0.5 -37.5t0.5 -36.5q0 -34 -3 -65.5t-12 -57.5q-22 -38 -59 -51t-76 -13q-22 0 -43 3t-39 6q-16 16 -16 41q0 10 1.5 20.5
t3.5 21.5q10 8 24 12.5t29 9t28.5 11.5t24.5 22q6 19 8 41t2 45t-1 46.5t-1 46.5q0 27 2.5 53.5t10.5 50t23 43.5t39 35q-4 12 -11.5 18.5t-16 12t-16.5 12t-12 18.5q-11 22 -14.5 47t-3.5 51t1.5 52.5t1.5 52.5q0 22 -2.5 43t-10.5 39t-22.5 33t-37.5 26q-5 -2 -9 -3t-8 -1
q-14 0 -22 9.5t-11 22.5q4 13 4 27.5t3.5 27t16 21t42.5 8.5q24 0 48.5 -3.5t47 -12.5t42.5 -24.5t34 -38.5q7 -20 9 -43t2 -49q0 -32 -2 -64.5t-2 -64.5q0 -34 5 -64.5t19.5 -53t41.5 -36t72 -13.5zM252 244h-5v-5h5v5z"/>
            <glyph glyph-name="asciitilde" unicode="~" horiz-adv-x="797"
                   d="M764 311q-42 -39 -91 -55t-102 -16q-35 0 -70.5 5.5t-70 15t-67 21t-60.5 23.5q-11 2 -21.5 3.5t-21.5 1.5q-30 0 -57.5 -8t-53.5 -19t-51 -23t-50 -21q-11 6 -15 14t-4 17q0 14 4 27.5t4 27.5v8q43 40 97.5 62.5t117.5 22.5q39 0 77 -10.5t76.5 -23.5t77 -23.5
t78.5 -10.5q12 0 24 1t24 4l83 28q12 8 28 15.5t33 12.5q8 -11 11 -20t3 -19q0 -11 -2 -22.5t-2 -24.5q0 -9 1 -14z"/>
            <glyph glyph-name="exclamdown" unicode="&#xa1;" horiz-adv-x="239"
                   d="M34 2q-3 39 2.5 89.5t18.5 110.5q15 85 26 135.5t11 66.5q8 10 18 10q5 0 14 -4t23 -11q20 -100 29 -152.5t8 -51.5q11 -59 15.5 -109t5.5 -96q0 -13 -0.5 -24t-1.5 -22q-7 -12 -15.5 -21.5t-21.5 -14.5q12 -2 -59 -2q-26 1 -42.5 6.5t-23.5 16.5q-4 8 -6 26t-3 46z
M31 641q0 20 10 36t29 26q21 -1 39 -1t37 -1q26 -2 39 -12t18 -27q-1 -4 -1.5 -10t-0.5 -12q0 -14 3 -40q2 -13 2.5 -23.5t-0.5 -17.5q0 -56 -40 -71q-5 1 -14 2t-20 0q-22 -1 -32 -1q-9 0 -5 0q-48 0 -60 35q7 14 7 34q0 6 -1.5 17t-3.5 26q-3 13 -4 23.5t-1 17.5zM135 -19
h10v9h-10v-9z"/>
            <glyph glyph-name="cent" unicode="&#xa2;" horiz-adv-x="461"
                   d="M137 -61q-2 -11 -3.5 -23.5t-5.5 -24t-12 -20t-23 -10.5q-17 -4 -31.5 5.5t-18.5 22.5q17 38 30 77.5t9 77.5q-19 21 -31 45.5t-18.5 50.5t-9 52.5t-2.5 51.5v139q6 4 6 11t-1 14.5t-0.5 15.5t6.5 14q6 19 14.5 38t20.5 36t28 30t37 19q16 12 35.5 11.5t38.5 -3t37 -2
t33 15.5q7 10 12 25.5t10.5 32.5t11.5 31.5t15.5 22.5t23 6t32.5 -18q3 -17 -2.5 -34.5t-13 -35.5t-13.5 -35.5t-5 -33.5t12 -30.5t39 -25.5q4 -17 12.5 -37t13 -40t1.5 -39t-22 -33q-17 4 -38 1t-41 -3.5t-35 6t-19 29.5q-2 8 -3.5 18t-4.5 18.5t-9 15.5t-16 9
q-17 2 -27 -1.5t-16.5 -11t-12 -17.5t-11.5 -20q4 -35 0 -67.5t-5.5 -62t5.5 -57t34 -52.5q19 -6 31 -1t19.5 15.5t12.5 23.5t9 23q-9 36 22 45q16 -2 36 0t38.5 2t34.5 -5.5t24 -24.5q-8 -17 -10 -32.5t-3.5 -30.5t-6 -29.5t-19.5 -29.5l6 -6q-19 -31 -44.5 -51t-55 -31
t-62.5 -13.5t-66 1.5q-10 -2 -14 -9.5t-6 -17t-4.5 -19t-8.5 -15.5zM148 178q-4 4 -5 1.5t-6 -7.5h11v6zM132 222h11h-11zM137 316q-2 6 -5.5 7t-7.5 -1t-6.5 -5.5t-2.5 -5.5q8 0 11 2.5t11 2.5zM115 122h5v11h-5v-11z"/>
            <glyph glyph-name="sterling" unicode="&#xa3;" horiz-adv-x="515"
                   d="M456 733q4 -18 12 -38t14 -39.5t5 -39t-15 -37.5q-17 3 -37.5 1t-40 -2.5t-35.5 4.5t-25 24q5 10 2.5 17.5t-8.5 13.5t-14 10.5t-13 8.5q-20 4 -37.5 -3.5t-22.5 -24.5q-13 -6 -12 -11.5t6 -11.5t7.5 -12.5t-7.5 -13.5q10 -15 15.5 -38t13.5 -42.5t23.5 -31t46.5 -4.5
q15 -2 20 -10.5t4.5 -20t-2.5 -22.5t0 -18q5 -13 -2 -24t-20 -14q-17 3 -28 -4t-21 -18q0 -23 -4 -47t-2 -47q-6 -5 -7 -11t-9 -11q2 -11 -1.5 -23t-5 -23t3.5 -21t25 -16q33 -9 54 12q6 10 9.5 24t9 26t15 20t27.5 7q25 -1 48 -2.5t40 -19.5q5 -39 -2.5 -80.5t-29.5 -74.5
q-16 -23 -38 -35t-47 -16.5t-51.5 -3t-51.5 5.5q-23 13 -45 29.5t-48 19.5q-15 -11 -30.5 -22.5t-32 -19.5t-34 -12t-35.5 0l-11 10q5 25 1.5 56t-2 59t14.5 48t52 24q6 1 14.5 -0.5t12.5 6.5q-8 3 -11.5 9.5t-3.5 15t3 16.5t7 14q-5 13 -5.5 28.5t-2 30.5t-7.5 27.5
t-23 18.5q-11 -3 -21.5 -2t-19 6t-13 13.5t-2.5 20.5q-4 29 5.5 50.5t38.5 26.5q13 23 9 43.5t-14 44.5q-3 33 -2 65t9 60.5t24.5 53t45.5 41.5q14 8 30.5 14.5t30.5 1.5q30 12 60 12.5t66 -0.5q38 -2 69.5 -21t57.5 -51zM191 568h-11l11 -6v6zM139 519v8h-8v-8h8zM241 519
h-6v-6zM186 463h-11l5 -5zM115 453q-5 0 -10 -0.5t-7 -5.5h17v6zM194 409v8h-8v-8h8zM186 365q-4 2 -6.5 -1t-4.5 -5q4 -2 6.5 1t4.5 5zM125 348q-1 -3 1.5 -4.5t5.5 -1.5t6 1.5t4 4.5h-17zM213 332h-10l10 -6v6zM250 260v8h-9v-8h9zM167 210v9h-8v-9h8zM230 200
q-6 2 -12 -1.5t-5 -10.5h11q2 3 5 5t1 7zM183 156v8h-8v-8h8zM164 123h-11l6 -6zM219 123q-2 -7 6 -7t10 7h-16zM274 123h-27l27 -6v6zM233 57v8h-9v-8h9z"/>
            <glyph glyph-name="currency" unicode="&#xa4;" horiz-adv-x="649"
                   d="M464 90q-23 0 -44.5 -10.5t-45.5 -16.5l-138 11l-29 16l-34 -6q-23 -20 -43.5 -45t-49.5 -39l-33 17q-5 8 -8 16t-3 16q0 13 11 27t26 28.5t29.5 29.5t21.5 30q-8 17 -14.5 37t-6.5 40l-7 99q8 20 18 38.5t10 39.5q-8 17 -23 32t-29 29.5t-24.5 28t-10.5 28.5q0 16 10 29
l16 10l40 -6q23 -19 44.5 -42t50.5 -36q21 8 41 14.5t41 14.5q14 0 29 -2t29 -2q16 0 28 4q9 -4 18.5 -6t19 -5t18 -7t14.5 -11l35 5l88 85h23l34 -40l-13 -33l-37 -28q-13 -20 -28 -36.5t-17 -42.5q14 -11 19 -30t13 -35l-4 -107q-6 -18 -15.5 -34.5t-9.5 -37.5v-5.5
t2 -6.5l77 -71l13 -33l-34 -35h-29zM431 189q10 10 16 21.5t10 23l8 23t11 22.5q-6 6 -6 15q0 5 0.5 10t0.5 10q0 11 -5.5 24.5t-14 26.5t-18.5 24t-19 18l-44 23l-78 5q-13 -3 -24 -9t-21 -14t-19.5 -16.5t-20.5 -15.5l-21 -44l-5 -69l9 -38q12 -16 23.5 -31t26 -26t34 -18
t46.5 -7q14 0 27.5 1t26.5 3z"/>
            <glyph glyph-name="yen" unicode="&#xa5;" horiz-adv-x="519"
                   d="M339 227q0 -7 0.5 -13t0.5 -13q0 -30 -3 -60.5t-3 -61.5q0 -15 1.5 -29.5t3.5 -28.5l-17 -15l-94 -8l-45 16q-3 21 -3 42q0 31 4 61t4 61v11l-12 45l-22 16h-111q-16 8 -18 22t-5 28l17 38h113l21 19q-8 20 -13 43.5t-16 43.5q-24 2 -48.5 4.5t-50.5 2.5l-16 17
q2 8 1.5 17t0.5 18t3.5 17t10.5 13q6 2 14 2t15.5 1t14 4t11.5 10v44q-14 20 -21 42t-12.5 43.5t-12.5 43t-20 39.5q5 7 5 17v12l23 11l116 -11l16 -17q1 -11 5.5 -22t4.5 -21q0 -7 -3 -13q10 -8 12 -16.5t2.5 -17.5t2.5 -17.5t12 -15.5q-7 -6 -7 -11q0 -6 4 -11t4 -12
q0 -3 -4.5 -5t-10.5 -4t-12 -5t-10 -9q5 -4 12 -4q8 0 15.5 3.5t12.5 6.5q4 -6 10.5 -12.5t6.5 -14.5q-11 -5 -24.5 -7.5t-20.5 -15.5q5 -4 12 -4q15 0 25 5t17 12.5t12.5 15.5t11.5 15q5 0 14.5 0.5t9.5 8.5t-5 8q-3 0 -7 -2.5t-7 -2.5q-4 0 -5 5q16 42 24 84t21 84l29 23
l126 -11l-4 -57q-16 -44 -34.5 -90t-22.5 -94q8 -7 18 -10.5t20.5 -6t19.5 -6t15 -10.5v-49l-16 -17l-90 -7q-8 -6 -13 -14.5t-8.5 -17.5t-7.5 -18t-9 -16q5 -11 7.5 -24t9.5 -21q19 0 38 2.5t38 2.5q21 0 37.5 -5.5t16.5 -24.5q0 -4 -0.5 -7.5t-0.5 -7.5q0 -9 3 -16
q-4 -8 -8.5 -14.5t-12.5 -12.5q-8 2 -15.5 3t-15.5 1q-23 0 -45.5 -5.5t-45.5 -5.5zM356 590h4l23 10h-16zM136 514h-9v-8h9v8zM350 288l21 8h-15zM327 573q-11 -3 -21.5 -6.5t-12.5 -16.5q8 8 20 11.5t14 11.5zM228 512h4l45 26h-5zM192 546h10v6h-10v-6zM171 583l5 -4v4
h-5zM188 407h-5l5 -8v8zM186 451v7h-10v-7h10zM171 489q1 -3 3 -3q4 0 7 2t6 2q4 0 5 -6l24 22h-5q-11 0 -20.5 -6.5t-19.5 -10.5zM211 206h-7l7 -7v7zM228 439l-17 -17zM277 296h-5l-40 -24h12zM261 328q4 0 6.5 0.5t4.5 4.5v5h-3q-5 0 -8 -4t-8 -6h8zM293 422h-4l-68 -32
v-12zM266 451h-13l-4 -7zM293 496l34 33l-50 -33l-28 -12zM314 321h-8l8 -4v4zM343 489l-29 -17h13z"/>
            <glyph glyph-name="brokenbar" unicode="&#xa6;" horiz-adv-x="182"
                   d="M149 814q-1 -60 -1.5 -114.5t-1 -108t-0.5 -109.5v-120q-4 -8 -5 -12q-18 -5 -30 -12t-22.5 -7.5t-22.5 8.5t-31 35l3 457q8 11 19.5 14.5t24.5 3.5q14 0 26.5 -2.5t23.5 -4.5zM35 245q8 3 11 6q16 13 32 16.5t32 1.5q11 -7 20 -14t16 -16v-119t-0.5 -126t-1 -123
t-1.5 -111q-10 -10 -27.5 -19t-36.5 -9q-14 0 -26 6t-21 22z"/>
            <glyph glyph-name="section" unicode="&#xa7;" horiz-adv-x="509"
                   d="M282 -137l-99 13q-30 8 -52.5 25.5t-49.5 35.5l-28 37l57 57l40 17q20 -16 39 -33t43 -28q14 4 28 5.5t22 15.5l-4 56q-27 32 -54.5 65.5t-52.5 62.5q-35 21 -61.5 53t-56.5 61l-25 53q-6 27 -6 53q0 17 2.5 33.5t7.5 32.5l21 32l57 33q4 12 4 25q0 12 -3.5 23t-7.5 22.5
t-7.5 23t-3.5 23.5v6.5t1 6.5l17 61l61 55l73 12h90l66 -40q11 -14 22 -29.5t11 -33.5v-8l-61 -46h-33l-29 34q-11 1 -21 3t-21 2q-9 0 -14 -1l-26 -28q9 -23 21 -44.5t33 -37.5q-4 -5 -14.5 -9.5t-10.5 -11.5q0 -4 4 -8q7 5 14.5 9.5t15.5 4.5h4t4 -1l151 -156l33 -57
q2 -11 3 -23.5t1 -23.5q0 -20 -2.5 -39t-6.5 -37q-21 -21 -43 -41.5t-46 -36.5q14 -29 21.5 -57.5t10.5 -60.5l-9 -10q2 -5 3 -9t1 -8q0 -13 -5 -25.5t-7 -24.5l-53 -55zM389 232l15 11h-4zM343 126h-9l-28 -12h21zM360 138h10v6h-10v-6zM358 140h-7v-10h7v10zM249 489
l29 21h-6zM228 527h8v10h-8v-10zM188 556l-12 -13h7l21 13h-16zM167 588h4l12 12zM138 482h22l7 12h-7zM211 270h-7l-4 -4h4zM244 289q18 -14 43 -25.5t52 -14.5q7 10 7.5 23t4.5 26q-13 8 -14 18.5t-3 21.5q-16 7 -28.5 20t-24 27t-24.5 27t-29 20v12l-52 5l-16 -11l-6 -38
q7 -17 19.5 -30.5t26 -26t25.5 -25.5t19 -29z"/>
            <glyph glyph-name="copyright" unicode="&#xa9;" horiz-adv-x="852"
                   d="M658 721q88 -66 129 -159.5t41 -199.5q0 -29 -3 -57q-9 -5 -11 -11.5t-2 -14.5v-11q0 -11 -4 -18q-24 -57 -64.5 -105.5t-92.5 -84t-111.5 -55.5t-120.5 -20q-47 0 -92 12.5t-86.5 35t-78 54t-64.5 68.5q-23 29 -37 59t-22.5 59t-11.5 56.5t-3 51.5q0 19 0.5 39t0.5 46
q7 5 9 11t2 13q0 4 -0.5 8t-0.5 9q0 10 7 15h6q18 64 57 115t90 86t111 54t121 19q62 0 121 -18.5t110 -56.5zM752 461q-8 20 -17.5 41t-9.5 42q-51 81 -132.5 129.5t-180.5 48.5q-63 0 -121 -26t-103 -71t-71.5 -106.5t-26.5 -132.5q0 -68 28 -128t75 -105t107 -71.5
t125 -26.5q46 2 90.5 18t84.5 41.5t73.5 58.5t56.5 71q0 29 10 54t18 46zM603 311q15 -7 15 -24q0 -10 -4 -20t-6 -17q-29 -54 -79.5 -77t-109.5 -23q-29 2 -59 10.5t-56 23.5t-45.5 37t-27.5 51q-22 60 -22 120q0 52 15 96t43.5 76t70 49.5t94.5 17.5q25 0 55.5 -7
t57.5 -21.5t45 -38t18 -56.5q0 -18 -15 -25.5t-29 -7.5q-23 0 -39.5 14t-30.5 31.5t-29 31.5t-36 14q-8 -1 -17 -3t-20 -8q-45 -28 -59.5 -67.5t-14.5 -82.5q0 -20 1.5 -45.5t9 -50.5t22 -47t41.5 -34q20 0 46.5 4t47.5 12q14 28 34 50.5t52 22.5q14 0 31 -6z"/>
            <glyph glyph-name="registered" unicode="&#xae;" horiz-adv-x="857"
                   d="M638 738q51 -27 88 -67.5t61 -90t35 -105t11 -111.5v-21t-1 -21q-10 -5 -10 -13q0 -4 1 -8.5t1 -9.5q0 -7 -3 -14q-12 -54 -44.5 -101t-77 -84.5t-96.5 -64t-104 -38.5l-111 -6q-6 8 -15 10.5t-18 2.5h-13q-6 0 -11 0.5t-9 3.5q-52 16 -101.5 47.5t-88.5 72.5t-64 90
t-29 101q-15 10 -15 24q0 10 4 19.5t4 17.5q0 7 -4 11q0 54 12 107.5t36.5 101.5t63.5 87.5t93 64.5q36 20 75 34.5t81 14.5q19 0 44 -5q15 3 33 3q42 0 88 -14.5t84 -38.5zM721 228q21 36 30.5 75t9.5 78q0 79 -27.5 142.5t-73.5 108t-106.5 68.5t-126.5 24q-68 0 -127 -27
t-102.5 -71t-68.5 -101t-25 -118v-12t1 -12q-13 -9 -13 -17t7.5 -17t7.5 -22q0 -3 -0.5 -5.5t-1.5 -5.5q10 -46 39 -92t69 -82.5t88.5 -59t98.5 -22.5q48 0 94.5 9t88.5 29.5t77 52.5t61 77zM588 405q-19 -6 -33 -17.5t-14 -28.5t10 -36t22.5 -39.5t25 -43t17.5 -46.5
q-5 -8 -12.5 -11t-15.5 -3q-13 0 -27 3.5t-27 3.5q-11 0 -18 -4q-33 33 -33 72q-16 12 -24 29.5t-15.5 33t-17 27t-27.5 11.5q-10 0 -15.5 -7t-8.5 -17.5t-3.5 -22t-0.5 -20.5v-38q0 -21 -3.5 -40t-17.5 -33q-5 1 -9.5 1h-9.5h-22q-17 0 -30 4t-13 22v6l6 394l17 11
q21 -3 45 -3q30 0 62 2.5t64 2.5q23 0 51.5 -4t53 -16t41 -34.5t16.5 -58.5q0 -26 -5.5 -51.5t-28.5 -48.5zM361 388h-6v-11h6v11zM438 422q29 8 48 20t36 41q-13 17 -19.5 30t-14.5 25q-14 8 -28.5 13.5t-29.5 5.5q-30 0 -45 -12.5t-15 -20.5q0 -10 3.5 -21.5t3.5 -22.5
q0 -12 -5 -19q3 -18 18 -29t35 -11q8 0 13 1z"/>
            <glyph glyph-name="degree" unicode="&#xb0;" horiz-adv-x="382"
                   d="M350 674q2 -11 4 -23t2 -23q0 -19 -2.5 -38.5t-7.5 -37.5q-3 -14 -12 -24t-20 -19t-22.5 -17.5t-19.5 -17.5l-61 -21q-12 3 -21 3t-18 -1.5t-18 -1.5q-11 0 -18.5 4.5t-13 10t-10.5 10t-12 4.5q-4 0 -7 -1q-10 10 -21.5 23t-21 27.5t-16 29t-6.5 28.5q0 9 1.5 18.5
t1.5 18.5q0 12 -4 20l33 74l50 44l61 24l78 -12l57 -33zM284 613l-12 52l-28 26q-8 7 -16.5 10t-18 4t-19 1t-19.5 2q-17 -2 -28.5 -14.5t-25.5 -23.5l-17 -49l10 -52l40 -34l57 -12l53 29z"/>
            <glyph glyph-name="plusminus" unicode="&#xb1;" horiz-adv-x="708"
                   d="M677 480q8 -14 10 -30t2 -27l-12 -37l-26 -8h-212l-23 -9q-4 -27 -6.5 -52t-2.5 -51q0 -22 3 -44l-16 -16h-73l-17 28q4 12 4 30q0 11 -0.5 21t-0.5 21v11t2 12l-9 32l-24 17l-99 8q-12 -5 -23.5 -6.5t-23.5 -1.5h-33q-11 0 -20 -1t-18 -4q-7 5 -13.5 13t-14.5 8
q1 11 2 21.5t1 21.5q0 8 -0.5 13.5t-2.5 12.5l28 21l50 7l23 -11q21 6 41 6q17 0 33 -2t33 -2q11 0 23.5 2t25.5 7l21 17v144l19 11q12 -4 26 -4q9 0 17.5 1t17.5 3l27 -27q-2 -23 -5 -47.5t-3 -47.5v-15t2 -14l29 -21h212zM644 107q26 0 35.5 -23t9.5 -51q0 -13 -5 -23
l-12 -9h-45q-53 0 -105 -1t-105 -1q-43 0 -85 1.5t-84 5.5l-50 -13q-13 4 -25.5 5t-25.5 1q-14 0 -28 -1t-28 -1q-27 0 -39 5t-15.5 14t-3 21t-2.5 25q4 7 7.5 15.5t3.5 16.5l61 13q91 0 180.5 -2.5t180.5 -2.5q45 0 90 1t90 4z"/>
            <glyph glyph-name="acute" unicode="&#xb4;" horiz-adv-x="220"
                   d="M136 782q17 -4 38 -3.5t39 -8.5q-28 -51 -68.5 -93t-82.5 -79l-40 5l-5 16q6 21 17 38t22.5 34t22 35t15.5 39l42 17v0z"/>
            <glyph glyph-name="mu" unicode="&#xb5;" horiz-adv-x="709"
                   d="M684 592l13 -28q-29 -132 -52 -262.5t-43 -261.5q-8 -11 -14.5 -21t-14.5 -19q-32 5 -65.5 6t-63.5 15l-83 -33l-65 8q-13 9 -26 17.5t-28 8.5q-2 0 -4 -0.5t-4 -0.5l-18 -17q-9 -27 -13 -55.5t-7 -57.5t-6.5 -58t-11.5 -57l-34 -17q-14 5 -32 5q-10 0 -19.5 -1t-19.5 -1
q-9 0 -18 2t-17 7l-11 50q13 32 18.5 65.5t10.5 67.5t11.5 66.5t20.5 61.5q-5 9 -5 20q0 16 5.5 31t5.5 30v8t-2 8l12 10q3 49 10 98.5t16.5 98t19 97.5t16.5 97q13 12 28.5 16t32.5 4q12 0 25 -1t25 -2q2 1 4 1.5t5 0.5q11 0 19 -9t16 -17q-19 -91 -34.5 -182t-26.5 -185
q5 -19 10.5 -37t17.5 -35q20 -6 38.5 -16.5t39.5 -10.5l41 15l44 46l38 105q9 40 15 80.5t12.5 80.5t14.5 79.5t19 78.5l69 10zM128 -17h-12l-5 -4zM161 257l21 10h-4zM199 107h-10l-28 -17h11zM234 151h-18l11 -8zM514 281h-8v-8h8v8zM531 231h-9v-7h9v7z"/>
            <glyph glyph-name="FL00B7h" unicode="&#xb7;" horiz-adv-x="229"
                   d="M198 182q-2 -10 -2.5 -26t0.5 -38q2 -24 1 -41t-3 -27q-4 -17 -12.5 -30t-21.5 -21q-20 1 -38 1h-38q-43 4 -55 37q6 18 6 45q0 6 -0.5 14.5t-1 18t-1 18t-0.5 14.5q0 26 8 44t24 30l55 2q64 -2 79 -42v1z"/>
            <glyph glyph-name="ordmasculine" unicode="&#xba;" horiz-adv-x="382"
                   d="M358 644q-1 -11 -2 -23t-4 -23q-5 -18 -12.5 -36t-16.5 -35q-7 -12 -18 -19.5t-24 -13.5t-26.5 -11t-23.5 -12l-64 -4q-8 5 -20 8q-8 2 -17 3t-18 3q-11 3 -17 9.5t-10 13t-7.5 12t-10.5 7.5q-2 1 -7 1q-7 13 -14.5 28.5t-13 31.5t-8 32t0.5 29q3 9 7 18t6 17q3 12 1 21
l51 63l60 29l65 8l72 -32l47 -47zM279 602l2 54l-21 32q-11 18 -29.5 22.5t-36.5 12.5q-17 2 -31 -7t-31 -15l-29 -43l-4 -53l30 -43l52 -27l59 15z"/>
            <glyph glyph-name="onequarter" unicode="&#xbc;" horiz-adv-x="830"
                   d="M649 748q-108 -181 -213.5 -364t-199.5 -372l-38 -29l-51 5l-10 24q115 201 227.5 402t229.5 400q5 3 9.5 4t8.5 1q14 0 28 -6t26 -11zM198 363q-20 -2 -39 -4t-39 -2l-23 23q5 10 5 23q0 7 -1 13.5t-1 13.5q0 16 9 28q-5 49 -7.5 99.5t-4.5 100.5l-21 22l-34 7l-19 27
l36 34l44 16q11 10 20.5 21.5t23.5 16.5l44 -4l23 -17v-392zM632 424q7 13 15.5 16.5t18.5 3.5q6 0 13 -0.5t15 -0.5q7 0 14 1.5t14 6.5q13 -2 27 -3t23 -14q-4 -7 -4 -15q0 -13 11 -30l-12 -26q2 -12 3 -25t1 -26q0 -14 -0.5 -27.5t-0.5 -27.5q0 -17 1.5 -34t7.5 -34
l25 -27v-61l-25 -28q-1 -7 -3.5 -14.5t-2.5 -14.5q0 -10 6 -16l-29 -28q-14 1 -27.5 2.5t-26.5 1.5h-14q-7 9 -9 18.5t-2 19.5q0 6 0.5 12t0.5 12l-35 28l-78 -4q-14 5 -29.5 6t-23.5 15q1 35 6.5 69t20.5 66q23 45 49.5 88.5t49.5 89.5zM656 279l-40 -55l-5 -35
q6 -2 14 -4.5t16 -2.5q17 0 25 14v71z"/>
            <glyph glyph-name="onehalf" unicode="&#xbd;" horiz-adv-x="822"
                   d="M666 802q-12 -35 -28.5 -68t-34.5 -65t-36.5 -64t-35.5 -65q-71 -137 -149 -269.5t-153 -266.5l-33 -21h-38l-24 17q29 62 64.5 122t72 119t72 118t65.5 120q20 41 43 80.5t45.5 78.5t43 78.5t36.5 81.5l37 21q14 -2 28 -3t25 -14zM179 351q-10 3 -20.5 3.5l-21 1t-20 3
t-16.5 9.5q-2 23 -2.5 47t-0.5 47q0 32 0.5 63t0.5 63q0 19 -0.5 37.5t-1.5 37.5q-11 14 -27 16.5t-30 7.5l-17 21q4 14 13.5 23.5t20.5 16.5l27 4q5 4 13 12.5t17 17t18 14.5t17 6q5 0 10.5 -1.5t10.5 -1.5q6 0 9 3q14 -3 20 -15t13 -23q0 -100 -3.5 -198t-8.5 -198z
M781 401q7 -14 9 -27.5t2 -26.5q0 -7 -0.5 -13.5t-0.5 -13.5q0 -3 0.5 -6.5t0.5 -6.5l-11 -45q-23 -39 -52 -73t-59 -67v-21q23 -4 44.5 -8.5t43.5 -4.5q6 0 11.5 0.5t11.5 1.5q2 -12 9 -23t7 -24q0 -3 -1 -7t-4 -8l-23 -24q-29 -3 -58 -2.5t-58 -1.5l-40 12l-61 -12l-33 33
q3 7 3.5 15t8.5 13l-12 17l17 40q42 39 74 85.5t64 90.5q8 23 8 53q-7 5 -13 11t-16 6q-5 0 -11.5 -6t-13 -14.5t-13.5 -17.5t-11 -15l-73 8q-5 15 -5 25q0 12 2 23t3 22l55 57l51 12q12 -2 25.5 -2t26 -1t25 -4t23.5 -10z"/>
            <glyph glyph-name="threequarters" unicode="&#xbe;" horiz-adv-x="853"
                   d="M693 798q-60 -114 -123.5 -224.5t-131.5 -216.5l-7 -34q-16 -25 -31 -51.5t-34 -47.5q-9 -29 -23 -55t-29.5 -51.5t-30.5 -51.5t-24 -54l-33 -29q-10 5 -23 5q-10 0 -22 -5l-17 29q106 198 219.5 392.5t219.5 393.5q14 4 25.5 13.5t24.5 9.5q5 0 11 -2zM236 351h-116
l-46 17q-11 14 -22 29t-18 32q-4 11 -3 23t-5 22l21 34q9 2 18.5 3t20.5 1q28 0 37 -9t12 -20.5t5.5 -23.5t17.5 -18h16l24 29v7v17q0 5 0.5 9.5t3.5 8.5l-28 40l-26 5l-17 29l6 27q14 11 30.5 19t25.5 26v38l-19 18h-22l-28 -40q-20 -3 -38 -3q-21 0 -39 3l-13 40l36 67
q20 13 41.5 18.5t40.5 14.5l90 -16l50 -50l11 -61q-2 -27 -13.5 -52t-13.5 -49q9 -17 21 -37t12 -40q0 -57 -22 -112zM799 196l29 -40l-5 -62l-24 -28q-2 -7 -2 -15.5t-1 -17t-4 -16t-10 -13.5q-16 0 -32.5 -2t-32.5 -2l-24 21l-4 52q-13 14 -29.5 16.5t-32.5 4.5
q-13 -4 -29 -4q-17 0 -33.5 4t-32.5 7q3 6 4 12.5t1 12.5q0 13 -2.5 26t-2.5 26q0 8 1 14.5t5 13.5q30 57 61 111.5t61 111.5l40 22h6q10 0 20.5 -2t21.5 -2t19 4q4 -2 8.5 -7.5t8.5 -22.5t8 -50.5t7 -91.5l-11 101zM733 267q-8 0 -15.5 -4t-15.5 -4q-5 0 -9 3l-10 17
q-8 0 -13.5 -5t-9.5 -12t-8 -15t-9 -14l-11 -49q5 -1 11 -1.5t11 -0.5q16 0 24 6.5t12 16.5t5.5 22t4.5 23z"/>
            <glyph glyph-name="questiondown" unicode="&#xbf;" horiz-adv-x="427"
                   d="M21 117q-1 28 0 46.5t2 27.5q4 11 10 25.5t15 33.5t21.5 43t29.5 53q1 2 4 13.5t10 32.5q4 13 11 21.5t18 15.5q8 -2 20 0q5 -1 13 -0.5t17 1t17.5 1.5t14.5 1q25 0 36.5 -8t10.5 -21q2 -25 -10 -57.5t-38 -74.5q-24 -44 -35 -78t-12 -58q-1 -14 1.5 -26t7.5 -22
q13 -27 36 -28h5t4 1q1 1 11 15.5t31 47.5q24 37 57 37q27 0 45.5 -4t31.5 -13q3 -12 5.5 -23t2.5 -22q-1 -38 -16.5 -71.5t-45.5 -65.5q-25 -24 -58.5 -37.5t-74.5 -13.5q-49 2 -87 14.5t-64 39.5q-45 55 -48 153h1zM111 659q1 44 46 56h37t36 -1q43 -4 55 -37
q-4 -19 -5 -47v-13t0.5 -16.5t0.5 -15.5v-13q0 -21 -5.5 -38t-17.5 -29q-8 1 -17.5 2t-21.5 0q-37 -2 -40 -3q-26 0 -41.5 9.5t-23.5 26.5q9 14 8 35q1 7 -0.5 17.5t-4 24.5t-4 24.5t-1.5 17.5h-1zM74 91h6v6h-6v-6zM96 202h6v6h-6v-6zM166 543h10v9h-10v-9zM200 619h9v10
h-9v-10z"/>
            <glyph glyph-name="AE" unicode="&#xc6;" horiz-adv-x="856"
                   d="M813 151q2 -7 2.5 -13.5t0.5 -13.5q0 -15 -2 -29t-2 -29q0 -23 8 -43l-23 -23q-57 2 -113 4.5t-113 2.5q-38 0 -74.5 -2t-73.5 -5l-15 12l-6 30t-3 31q0 3 0.5 6t0.5 5l12 10l-33 40q-34 -3 -67.5 -3t-67.5 -9l-28 -32q-2 -18 -4 -37t-12 -36l-17 -17h-15h-34
q-11 0 -23 1t-22 6q-9 -4 -17.5 -7t-18.5 -3q-3 0 -7 0.5t-7 2.5l-17 17q57 192 114.5 379.5t114.5 380.5l17 16q33 -3 66.5 -4t67.5 -1q68 0 135.5 2.5t136.5 2.5q16 -4 34 -4q12 0 25 1t26 1q17 0 32.5 -5t15.5 -27q0 -8 -2 -16.5t-2 -16.5q0 -6 1 -12t5 -11l-12 -56
l-21 -17h-175q-15 -8 -19.5 -17.5t-4.5 -21.5q0 -8 1 -16t1 -16q0 -14 -5 -23l10 -38l57 -19q27 2 53 5t53 3l16 -17l5 -107q-5 -11 -10 -19.5t-16 -13.5l-68 6l-78 -17q-5 -8 -11.5 -14.5t-6.5 -16.5q0 -3 2 -9l-33 -17q7 -2 15.5 -3.5t17.5 -1.5v-24q-3 -4 -10 -7.5
t-7 -7.5t5 -6h12q-1 -2 -1 -8q0 -3 0.5 -7t0.5 -7q0 -6 -4 -10t-9 -8t-9 -7.5t-4 -7.5t4 -6l33 17q27 -8 54.5 -11t55.5 -3.5t56.5 -0.5t55.5 -2zM612 340h17v7h-9zM591 376h8v6h-8v-6zM580 708h16l-5 8l10 4zM580 642l40 11h-19zM167 147h-5l-8 -8h8zM551 569l12 11h-5z
M552 479q-7 0 -13 -9h9q6 0 10 4v5h-6zM486 384l-25 -8v-8h8zM473 317v-10h13l-4 10h-9zM461 413h-17l13 -5zM444 340v-4l8 4h-8zM440 300v-10h8v10h-8zM497 269q-16 0 -29.5 -9t-27.5 -14v-13q9 0 14 10t14 10q3 0 5 -1l28 17h-4zM501 424l12 13h-27l4 -13h11zM501 474v5
h-15zM507 294l6 -4l5 4v8zM497 580l4 -4l6 10h-6zM473 609h5l8 4h-8zM457 680h-13h13zM408 741h6v9h-6v-9zM396 626l12 11h-8zM306 559h10v8h-10v-8zM272 586l17 6l-5 5zM294 441h-10h10zM240 294q-2 2 -7 2t-9 -2.5t-8 -3.5q3 -2 5 -4t5 -2q1 0 2 2zM257 252q-10 0 -17 -2
t-12 -9h4q4 0 7 -0.5t7 -0.5q6 0 11 6v6zM272 502l6 6v6l-10 -12h4zM287 254h-9l-6 -8h15v8zM334 184h-5l-23 -12h7zM408 168h-12l-5 -5h17v5zM417 217h-9l-41 -21h12zM374 257v5h-12zM412 257v5h-4zM396 363q-2 4 -2 10q0 14 6.5 27t16.5 24h-17q-4 3 -4 10v14v5l16 17h-2
q-10 0 -12 7t-2 12q0 17 1.5 33.5t1.5 33.5q0 15 -3 30q4 3 4 5q0 4 -6.5 6t-10.5 5l-32 -22h2q5 0 7.5 -4.5t6.5 -6.5q-16 -42 -29 -84.5t-20 -87.5l-34 -34q4 4 8 4q7 0 14 -10q-11 -14 -13 -32t-4 -35l17 -11l73 7l21 16q-3 10 -3 19q0 8 3 15.5t12 14.5zM422 576
q5 0 8.5 -1t8.5 -1q13 0 18 12h-4q-7 0 -13 -2.5t-12 -2.5q-7 0 -11 5v-10h5zM423 536h8v10h-8v-10zM429 491q1 0 1.5 -0.5t1.5 -0.5q5 0 10 4l10 8l45 17h-36zM436 191h6v7h-6v-7zM448 116h-8l-4 -9h12v9zM490 163q-2 3 -9 3q-8 0 -18 -6.5t-19 -8.5q3 -2 7 -2q5 0 10 1.5
t10 1.5t7 -1zM518 57h-11l-6 -13h6zM523 184h-10l-6 -5h11zM523 224h-26l-45 -28l21 12zM528 689h-10l5 -9h5v9zM530 392h7l-9 7h2v-7zM551 201h-4l-17 -10h9z"/>
            <glyph glyph-name="Eacute" unicode="&#xc9;" horiz-adv-x="478"
                   d="M371 1052q-1 -3 -50 -73q-6 -4 -53 -62q-35 -41 -64 -41q-16 0 -32 9l5 34l78 127q27 22 69 22q19 0 36 -6zM455 50q-3 -8 -5 -15.5t-5 -13t-7.5 -10t-10.5 -5.5l-56 -6l-288 6q-5 -6 -16 -6q-10 0 -17 6l-5 5q16 3 16 8q-16 5 -16 6t2.5 2t1 0.5t-6.5 -2.5t-8 -3
q-2 16 -3.5 30.5t-1.5 27.5q0 36 11 59q-7 11 -9.5 26t-2.5 34v24.5v18.5v12.5v5.5q3 7 3 17q0 7 -1.5 15t-1.5 16q0 14 6 24q-6 5 -6 16v17l6 6l-6 171q6 9 6 23q0 10 -3 22.5t-3 21.5q0 14 6 22l-6 138q1 5 4.5 10t7 8.5t7 6t3.5 3.5l156 -6l199 11q22 -11 32 -33
q-3 -18 -3 -70q0 -40 -18 -62q-15 -3 -32 -3q-8 0 -23 1.5t-31 3.5t-30 3.5t-21 1.5q-44 0 -73 -29l-11 -12q12 -6 12 -30q0 -19 -1 -28t0 -8q-8 0 -13 -1.5t-5 -4.5q0 -4 7 -10q4 4 9 4h2q19 -38 84 -38q6 0 19.5 1t28 2t27 2t17.5 1q15 -29 15 -66q0 -12 -2 -33t-7 -51
q-17 -10 -40 -10q-5 0 -15.5 1t-22.5 2.5t-23 3t-16 1.5q-33 0 -49.5 -17.5t-16.5 -58.5q0 -67 1 -67v1q13 -33 50 -33q20 0 37 2.5t30 2.5q22 0 32 -5q18 6 41 6q13 0 23.5 -1.5t18 -6.5t12 -14t4.5 -23q0 -12 -2.5 -25.5t-2.5 -23.5q0 -19 6 -28zM321 1035h-10l5 -6z
M291 786v7h-9v-7h9zM302 675v9h-8v-9h8zM187 575v8h-10v-8h10zM156 609q-4 -1 -9.5 -4t-11.5 -7t-10.5 -7.5t-7.5 -3.5q20 1 39 22zM165 564v9h-9v-9h9zM195 427h-50l5 -7q4 6 12 6q4 0 10 -2.5t11 -2.5q6 0 12 6zM92 487v8h-9v-8h9zM78 481q-11 -1 -28 -11q10 1 28 11z
M130 410v8h-8v-8h8zM177 388q-22 -14 -66 -28q10 0 21 4.5t20.5 9t16 9t8.5 5.5zM313 160v9h-8v-9h8zM199 232h-27v-4zM94 321h-11l-22 -17z"/>
            </font>
</defs>
</svg>
